<svg width="161" height="161" viewBox="0 0 161 161" fill="none" xmlns="http://www.w3.org/2000/svg">
<path d="M80.3779 0.347656C124.561 0.347735 160.378 36.1649 160.378 80.3477C160.378 124.53 124.561 160.348 80.3779 160.348C36.195 160.348 0.376953 124.531 0.376953 80.3477C0.377011 36.1649 36.195 0.347656 80.3779 0.347656ZM80.2285 9.33105C41.0895 9.33105 9.36133 41.0594 9.36133 80.1982C9.36143 119.337 41.0896 151.065 80.2285 151.065C119.367 151.065 151.096 119.337 151.096 80.1982C151.096 41.0594 119.367 9.33119 80.2285 9.33105Z" fill="#030712"/>
<path d="M16.3783 45.2775L17.0379 44.1682L15.9679 43.0443L16.9676 41.3658L18.4627 41.7737L19.1164 40.6733L13.6931 39.3527C13.5934 39.3263 13.4996 39.3322 13.4058 39.3674C13.3149 39.4055 13.2416 39.4672 13.1888 39.5581L12.5791 40.5823C12.5263 40.6703 12.5058 40.7672 12.5146 40.864C12.5263 40.9638 12.5673 41.0489 12.6377 41.1222L16.3783 45.2746V45.2775ZM13.7517 40.459C13.8367 40.4884 13.9246 40.5207 14.0185 40.55C14.1123 40.5793 14.2031 40.6087 14.297 40.638L16.0236 41.1076L15.2937 42.3342L14.0566 41.0401C13.9921 40.9696 13.9217 40.8992 13.8484 40.8346C13.7751 40.7701 13.7077 40.7055 13.6403 40.6468L13.7546 40.4561L13.7517 40.459Z" fill="#f9fafb"/>
<path d="M15.7803 38.1643C16.1262 38.4049 16.4575 38.5223 16.7712 38.5193C17.0848 38.5193 17.4308 38.3843 17.806 38.1173L18.7822 37.3954C18.8907 37.3044 18.9874 37.2399 19.0724 37.2017C19.1545 37.1636 19.2395 37.1519 19.3245 37.1665C19.4095 37.1812 19.5063 37.2282 19.6148 37.3015C19.7408 37.3895 19.8229 37.4746 19.8639 37.5627C19.905 37.6507 19.8991 37.7534 19.8522 37.8679C19.8053 37.9853 19.7174 38.1349 19.5942 38.3139C19.5239 38.4166 19.4389 38.5399 19.3392 38.6778C19.2395 38.8157 19.1193 38.98 18.9786 39.1708C18.8379 39.3615 18.6708 39.5904 18.4832 39.8516L19.1662 40.4238C19.5004 40.1157 19.7731 39.8252 19.99 39.5552C20.2069 39.2852 20.3682 39.074 20.4737 38.9214C20.6936 38.6015 20.8607 38.3169 20.9691 38.0645C21.0776 37.8151 21.1304 37.5862 21.1245 37.3837C21.1186 37.1812 21.0512 36.9846 20.9193 36.8026C20.7874 36.6178 20.588 36.4329 20.3213 36.251C19.9695 36.0074 19.6382 35.8841 19.3216 35.8783C19.005 35.8724 18.6561 36.0133 18.2721 36.3008L17.3604 36.9993C17.1786 37.1401 17.0233 37.2223 16.9002 37.2458C16.777 37.2692 16.6363 37.2282 16.478 37.1196C16.3754 37.0491 16.3021 36.9816 16.2581 36.9171C16.2142 36.8555 16.1966 36.785 16.2054 36.7117C16.2142 36.6383 16.2435 36.5532 16.2992 36.4622C16.352 36.3683 16.4223 36.2598 16.5103 36.1336C16.6891 35.8753 16.8708 35.6171 17.0585 35.353C17.2461 35.0889 17.4102 34.86 17.5539 34.6663L16.9177 34.1264C16.6627 34.3289 16.4311 34.5578 16.22 34.8131C16.009 35.0654 15.8243 35.309 15.666 35.5379C15.4549 35.8431 15.2907 36.1189 15.1764 36.3625C15.0621 36.606 15.0035 36.8291 15.0035 37.0315C15.0035 37.234 15.065 37.4277 15.1881 37.6096C15.3113 37.7916 15.5077 37.9764 15.7803 38.1643Z" fill="#f9fafb"/>
<path d="M18.3121 32.1032L17.554 33.0965L22.0545 36.5385L22.8127 35.5451L18.3121 32.1032Z" fill="#f9fafb"/>
<path d="M23.0388 35.1799L23.8713 34.1968L23.0007 32.9115L24.2642 31.4208L25.6713 32.0722L26.5009 31.095L21.3707 28.8912C21.2769 28.8472 21.1831 28.8384 21.0864 28.8589C20.9896 28.8795 20.9076 28.9323 20.8401 29.0115L20.0691 29.9212C20.0017 30.0005 19.9665 30.0914 19.9607 30.1883C19.9548 30.288 19.9812 30.379 20.0398 30.4641L23.0417 35.1799H23.0388ZM21.2476 29.9917C21.3238 30.0357 21.4059 30.0797 21.4939 30.1266C21.5818 30.1707 21.6668 30.2176 21.7518 30.2587L23.3759 31.0099L22.4525 32.0986L21.447 30.6167C21.3942 30.5345 21.3356 30.4582 21.2769 30.379C21.2183 30.2998 21.1567 30.2294 21.101 30.1589L21.2447 29.9887L21.2476 29.9917Z" fill="#f9fafb"/>
<path d="M28.0048 29.3549C28.1103 29.3431 28.2041 29.2991 28.2833 29.2258L29.1393 28.41C29.2185 28.3337 29.2654 28.2427 29.2829 28.1371C29.3005 28.0314 29.2771 27.9346 29.2185 27.8465L27.1312 24.7389C27.0608 24.6391 26.9876 24.5394 26.9113 24.4366C26.8351 24.3339 26.7618 24.2342 26.6856 24.1403L26.797 24.0317C26.8908 24.108 26.9876 24.1843 27.0843 24.2635C27.181 24.3427 27.2778 24.419 27.3774 24.5012L30.3793 26.7344C30.4644 26.7989 30.5582 26.8253 30.6637 26.8136C30.7692 26.8019 30.863 26.7578 30.9422 26.6845L31.7923 25.8746C31.8744 25.7953 31.9243 25.7044 31.9389 25.5987C31.9536 25.4931 31.933 25.4021 31.8774 25.317L28.8784 20.8243L27.9638 21.6988L30.2738 24.9678C30.35 25.0617 30.4321 25.1673 30.5201 25.2788C30.608 25.3904 30.693 25.4989 30.778 25.6016L30.6578 25.7161C30.5552 25.631 30.4468 25.5488 30.3354 25.4608C30.224 25.3757 30.1126 25.2906 30.007 25.2114L27.0902 23.0662C26.9993 22.9929 26.8996 22.9606 26.7941 22.9635C26.6885 22.9665 26.5918 23.0075 26.5097 23.0868L25.7622 23.8028C25.6801 23.882 25.6332 23.9759 25.6215 24.0845C25.6097 24.1931 25.639 24.2929 25.7065 24.3897L27.7087 27.3946C27.7849 27.4973 27.8612 27.6088 27.9432 27.7321C28.0253 27.8553 28.1045 27.9698 28.1778 28.0813L28.0664 28.1899C27.952 28.0872 27.8436 27.9903 27.741 27.8964C27.6384 27.8055 27.5387 27.7204 27.4449 27.6441L24.2993 25.1996L23.3847 26.0741L27.7263 29.2874C27.8055 29.3461 27.8993 29.3725 28.0077 29.3607L28.0048 29.3549Z" fill="#f9fafb"/>
<path d="M32.5164 23.7852C32.7304 24.0493 32.9884 24.196 33.2933 24.2195C33.5982 24.2459 33.8913 24.1432 34.1727 23.9172C34.4102 23.7236 34.6506 23.5299 34.8939 23.3333C35.1343 23.1367 35.3688 22.9371 35.5945 22.7376C35.8203 22.538 36.0284 22.3473 36.2189 22.1653L35.6033 21.4904L33.9089 22.8549C33.8034 22.94 33.7008 22.9782 33.6011 22.9635C33.5044 22.9518 33.4105 22.8902 33.3255 22.7845L32.6249 21.913L34.4043 20.4809L33.8473 19.7884L32.0679 21.2204L31.5109 20.5279C31.4259 20.4222 31.3878 20.3195 31.3966 20.2198C31.4054 20.1229 31.464 20.029 31.5695 19.9439L33.264 18.5794L32.7392 17.834C32.5164 17.9778 32.2848 18.1392 32.0444 18.3211C31.8041 18.5001 31.5607 18.688 31.3145 18.8816C31.0682 19.0753 30.8279 19.269 30.5904 19.4597C30.309 19.6857 30.1477 19.9498 30.1038 20.252C30.0627 20.5543 30.1477 20.8389 30.3647 21.106L32.5164 23.7823V23.7852Z" fill="#f9fafb"/>
<path d="M36.1515 20.8976C36.3479 21.1764 36.5971 21.3349 36.8991 21.3818C37.201 21.4258 37.5 21.3437 37.7961 21.1353C38.0453 20.9593 38.2974 20.7773 38.5525 20.5954C38.8046 20.4134 39.0508 20.2286 39.2883 20.0437C39.5257 19.8588 39.7456 19.6828 39.9479 19.5125L39.3762 18.7995L37.5997 20.0554C37.4883 20.1347 37.3828 20.164 37.286 20.1464C37.1893 20.1288 37.1013 20.0613 37.0222 19.9498L36.3773 19.0372L38.2417 17.7196L37.7316 16.9947L35.8672 18.3123L35.3571 17.5875C35.2779 17.476 35.2457 17.3704 35.2603 17.2735C35.275 17.1767 35.3395 17.0886 35.4509 17.0094L37.2274 15.7534L36.7496 14.9758C36.518 15.1049 36.2776 15.2516 36.0255 15.416C35.7734 15.5803 35.5183 15.7534 35.2633 15.9295C35.0082 16.1085 34.7532 16.2846 34.504 16.4607C34.2079 16.669 34.032 16.9214 33.9705 17.2207C33.9089 17.52 33.9793 17.8076 34.1757 18.0893L36.1545 20.8947L36.1515 20.8976Z" fill="#f9fafb"/>
<path d="M41.6335 18.5207L40.6133 16.851C40.5342 16.7189 40.4316 16.5868 40.3084 16.4548C40.2938 16.4401 40.2791 16.4255 40.2645 16.4108L40.7101 16.1379L43.2839 17.5083L44.4829 16.7747L41.9032 15.4835C41.8065 15.4277 41.6951 15.3866 41.5749 15.3573C41.4547 15.3279 41.3491 15.3162 41.2612 15.3162L41.2495 15.2957C41.2846 15.2164 41.314 15.1284 41.3374 15.0286C41.3609 14.9318 41.3726 14.8232 41.3726 14.7088L41.4429 11.9885L40.2879 12.6957L40.2527 15.3954L39.8101 15.6654C39.7954 15.6243 39.7808 15.5832 39.7661 15.5451C39.6928 15.3749 39.6078 15.2106 39.5111 15.0492L38.6756 13.6817L37.6114 14.3331L40.5664 19.1692L41.6306 18.5178L41.6335 18.5207Z" fill="#f9fafb"/>
<path d="M44.4917 11.4896C44.6559 11.3957 44.8113 11.3106 44.9608 11.2314C45.1074 11.1551 45.2686 11.0729 45.4386 10.9878C45.5911 10.9115 45.72 10.8558 45.8314 10.8176C45.9428 10.7795 46.0337 10.7736 46.1099 10.7971C46.1862 10.8205 46.2536 10.8851 46.3122 10.9908C46.406 11.1639 46.4324 11.4104 46.3914 11.7302C46.3533 12.0501 46.2594 12.4375 46.1158 12.8982L45.5266 14.8819C45.5031 14.9729 45.5002 15.0609 45.5148 15.1489C45.5295 15.237 45.5559 15.325 45.5999 15.413L45.9018 16.0146L49.531 14.2011L49.0385 13.2151L47.4731 13.9957C47.347 14.0602 47.221 14.1248 47.1008 14.1952C46.9806 14.2657 46.8633 14.339 46.749 14.4212L47.394 12.3817C47.4995 12.0296 47.5669 11.7332 47.5992 11.4984C47.6314 11.2607 47.6285 11.0494 47.5933 10.8616C47.5581 10.6738 47.4936 10.486 47.3969 10.2923C47.2357 9.96954 47.0422 9.75826 46.8135 9.65555C46.5848 9.55578 46.3298 9.53817 46.0454 9.60273C45.7611 9.67022 45.4415 9.79054 45.0898 9.96661C44.9197 10.0517 44.7468 10.1427 44.5767 10.2366C44.4067 10.3305 44.2308 10.4391 44.0491 10.5594C43.8673 10.6797 43.6709 10.8294 43.4569 11.0025L43.9201 11.8183C44.1341 11.6862 44.3246 11.5718 44.4888 11.4779L44.4917 11.4896Z" fill="#f9fafb"/>
<path d="M48.9535 11.3458C49.232 12.012 49.5164 12.5196 49.8095 12.863C50.1027 13.2063 50.431 13.4058 50.8004 13.4587C51.1698 13.5115 51.6036 13.4323 52.1049 13.2239C52.6062 13.0156 52.9639 12.7603 53.1867 12.458C53.4095 12.1557 53.5003 11.7831 53.4622 11.3312C53.4241 10.8792 53.2658 10.3217 52.9873 9.65555C52.7088 8.98942 52.4215 8.48469 52.1284 8.14135C51.8352 7.79801 51.501 7.6014 51.1317 7.54858C50.7623 7.49576 50.3284 7.57499 49.8271 7.78334C49.3288 7.99169 48.9682 8.24699 48.7454 8.54924C48.5255 8.84856 48.4317 9.22418 48.4728 9.67316C48.5138 10.1221 48.6721 10.6797 48.9506 11.3488L48.9535 11.3458ZM49.8183 8.95127C49.9063 8.84856 50.0323 8.76346 50.1994 8.69304C50.3695 8.62261 50.5248 8.59033 50.6626 8.5962C50.8004 8.605 50.9294 8.66076 51.0525 8.76346C51.1756 8.86617 51.2988 9.0305 51.4248 9.25353C51.5509 9.47655 51.6887 9.77 51.8411 10.1339C51.9906 10.4919 52.102 10.7971 52.1724 11.0465C52.2427 11.2959 52.272 11.5014 52.2603 11.6598C52.2486 11.8183 52.1958 11.9503 52.1049 12.053C52.0141 12.1557 51.8851 12.2438 51.7121 12.3171C51.545 12.3876 51.3955 12.4169 51.2606 12.4081C51.1258 12.3993 50.9997 12.3436 50.8795 12.2379C50.7594 12.1352 50.6362 11.9679 50.5072 11.742C50.3812 11.516 50.2405 11.2226 50.091 10.8646C49.9385 10.5007 49.8271 10.1955 49.7568 9.949C49.6864 9.7025 49.6571 9.50002 49.6659 9.34156C49.6747 9.1831 49.7245 9.05104 49.8125 8.95127H49.8183Z" fill="#f9fafb"/>
<path d="M56.4436 10.2835C56.3087 10.3305 56.1768 10.3804 56.0478 10.4332C55.9189 10.486 55.7928 10.5447 55.6697 10.6093L56.5784 8.67249C56.7309 8.33796 56.8364 8.05331 56.9009 7.82442C56.9625 7.59553 56.9889 7.38425 56.9801 7.1935C56.9683 7.00276 56.9302 6.80615 56.8599 6.60367C56.7426 6.26033 56.5784 6.02557 56.3674 5.89645C56.1563 5.76734 55.9042 5.71451 55.611 5.74386C55.3208 5.77027 54.9866 5.8495 54.6143 5.97568C54.4326 6.03731 54.2508 6.1048 54.072 6.17523C53.8902 6.24566 53.7026 6.33076 53.5062 6.42466C53.3098 6.5215 53.0958 6.64182 52.8613 6.78561L53.2101 7.65716C53.4417 7.55445 53.644 7.46641 53.8199 7.39599C53.9958 7.32556 54.1599 7.261 54.3182 7.20231C54.4765 7.14655 54.6436 7.08493 54.8254 7.0233C54.9866 6.96755 55.1244 6.9294 55.2387 6.90886C55.3531 6.88832 55.4469 6.89418 55.5172 6.92646C55.5905 6.95874 55.6462 7.03211 55.6902 7.14362C55.7605 7.32849 55.7518 7.57792 55.6726 7.88898C55.5905 8.20004 55.4498 8.57272 55.2446 9.00703L54.3974 10.8939C54.3622 10.9819 54.3475 11.07 54.3475 11.158C54.3475 11.2461 54.3651 11.337 54.3974 11.4309L54.6143 12.0677L58.4488 10.7531L58.0911 9.71131L56.4377 10.2777L56.4436 10.2835Z" fill="#f9fafb"/>
<path d="M61.6969 9.80815C61.9197 9.64675 62.078 9.46481 62.1718 9.26526C62.2656 9.06278 62.3155 8.84856 62.3125 8.61674C62.3125 8.38785 62.2803 8.15309 62.2128 7.91539C62.1454 7.66596 62.0545 7.45174 61.9402 7.26687C61.8259 7.08199 61.6822 6.93233 61.5093 6.81495C61.3363 6.69757 61.1223 6.62128 60.8731 6.589C60.624 6.55672 60.3279 6.56846 59.9849 6.62715L59.1611 6.7592L58.9413 5.71158L61.2132 5.08947L61.0021 4.16803L57.7657 5.05719L58.2963 7.51923C58.3198 7.63075 58.3784 7.71585 58.4693 7.77454C58.5602 7.83323 58.6628 7.85377 58.7771 7.8391L59.4807 7.73052C59.7269 7.68063 59.938 7.64248 60.1109 7.62194C60.2839 7.6014 60.4305 7.60433 60.5477 7.63368C60.665 7.66303 60.7617 7.72465 60.835 7.81562C60.9083 7.90659 60.9669 8.03864 61.008 8.21471C61.0461 8.39665 61.0549 8.55511 61.0314 8.6901C61.008 8.82509 60.9347 8.93953 60.8086 9.03637C60.6826 9.13321 60.4803 9.22125 60.1989 9.29754C60.0083 9.35036 59.7885 9.40025 59.5393 9.45014C59.2901 9.50002 59.0292 9.54698 58.7654 9.59099L58.909 10.5476C59.252 10.5095 59.5862 10.4625 59.9116 10.4039C60.237 10.3452 60.5301 10.2806 60.7823 10.2131C61.1663 10.1075 61.4712 9.97541 61.694 9.81402L61.6969 9.80815Z" fill="#f9fafb"/>
<path d="M65.4932 7.44587L67.4134 7.0908L68.0935 8.48469L69.3511 8.24993L66.7655 3.29942C66.7216 3.20845 66.6541 3.13802 66.5662 3.094C66.4782 3.04998 66.3815 3.03531 66.2789 3.05585L65.1092 3.27301C65.0066 3.29061 64.9216 3.33757 64.8542 3.41093C64.7867 3.48429 64.7486 3.57233 64.7398 3.67503L64.089 9.22711L65.3555 8.99235L65.4903 7.44587H65.4932ZM65.7542 4.39399C65.7542 4.29715 65.7542 4.20324 65.7542 4.11227L65.9711 4.07119C66.0033 4.15336 66.0385 4.24139 66.0766 4.33236C66.1147 4.42333 66.1528 4.51137 66.1939 4.5994L66.9795 6.20751L65.5753 6.46868L65.7336 4.6845C65.7424 4.58766 65.7483 4.49083 65.7512 4.39399H65.7542Z" fill="#f9fafb"/>
<path d="M69.4156 5.06599C69.6238 5.30075 69.9521 5.47095 70.4006 5.57953L71.5879 5.83776C71.7286 5.86124 71.84 5.89058 71.925 5.9258C72.01 5.96395 72.0745 6.0197 72.1185 6.09306C72.1625 6.16643 72.1918 6.26913 72.2094 6.40119C72.227 6.55378 72.2152 6.6741 72.1771 6.76213C72.139 6.85017 72.0599 6.91473 71.9397 6.95581C71.8195 6.99689 71.6524 7.02917 71.4355 7.05558C71.3094 7.07025 71.1628 7.08493 70.9957 7.10253C70.8257 7.12014 70.6234 7.13775 70.386 7.15829C70.1485 7.17883 69.87 7.20231 69.5475 7.23459L69.5681 8.12667C70.0195 8.17363 70.4182 8.1883 70.7641 8.17363C71.1101 8.15895 71.3739 8.14135 71.5586 8.11787C71.9455 8.07385 72.268 8.0093 72.5289 7.92713C72.7898 7.84496 72.995 7.73345 73.1445 7.59553C73.294 7.45761 73.3937 7.27567 73.4465 7.05558C73.4993 6.83549 73.5051 6.56258 73.467 6.24272C73.4172 5.81722 73.2911 5.48562 73.0859 5.24499C72.8807 5.00436 72.5465 4.83416 72.0775 4.73439L70.9517 4.50843C70.726 4.46441 70.5648 4.40279 70.4622 4.32649C70.3625 4.2502 70.301 4.11521 70.2804 3.92447C70.2658 3.79828 70.2687 3.69851 70.2863 3.62515C70.3039 3.55178 70.3449 3.49309 70.4065 3.44908C70.468 3.40506 70.5501 3.37571 70.6557 3.35517C70.7612 3.33463 70.8902 3.31702 71.0426 3.29942C71.3534 3.2642 71.667 3.22899 71.9895 3.19671C72.312 3.16443 72.5905 3.13802 72.8309 3.11454L72.8162 2.28114C72.4967 2.22539 72.1713 2.19898 71.84 2.20778C71.5117 2.21659 71.2068 2.23713 70.9312 2.26941C70.5619 2.31342 70.2482 2.37211 69.9902 2.44548C69.7322 2.51884 69.527 2.62448 69.3746 2.75653C69.2221 2.89152 69.1166 3.06466 69.0638 3.27594C69.0081 3.49016 68.9994 3.76013 69.0375 4.08586C69.0873 4.5055 69.2134 4.83123 69.4244 5.06599H69.4156Z" fill="#f9fafb"/>
<path d="M75.252 1.99672L74.006 2.08153L74.3903 7.73793L75.6362 7.65312L75.252 1.99672Z" fill="#f9fafb"/>
<path d="M79.6965 6.02264L80.1363 7.51043L81.4173 7.48989L79.6848 2.17844C79.6555 2.0816 79.5998 2.00237 79.5206 1.94368C79.4415 1.88499 79.3477 1.85564 79.2451 1.85858L78.0549 1.87912C77.9523 1.87912 77.8584 1.9114 77.7822 1.97302C77.7031 2.03465 77.6532 2.11388 77.6268 2.21365L76.0673 7.58086L77.3571 7.56032L77.747 6.05785L79.6994 6.02557L79.6965 6.02264ZM78.4418 3.37278C78.4682 3.27888 78.4887 3.18497 78.5063 3.08813C78.5239 2.99129 78.5415 2.90033 78.5561 2.81229H78.7789C78.7965 2.89446 78.8171 2.98836 78.8405 3.08226C78.864 3.1791 78.8874 3.27301 78.9109 3.36398L79.418 5.08066L77.9904 5.10414L78.4418 3.36985V3.37278Z" fill="#f9fafb"/>
<path d="M89.1331 7.9418C89.2211 7.88311 89.2768 7.80682 89.3031 7.70998L90.6927 2.48656L89.4321 2.37505L88.5058 6.26913C88.4852 6.38945 88.4618 6.51857 88.4354 6.65942C88.409 6.80028 88.3856 6.93527 88.3621 7.06439L88.198 7.04971C88.1921 6.91766 88.1862 6.77974 88.1774 6.63888C88.1686 6.49803 88.1569 6.3601 88.1481 6.22805L87.8286 2.62155C87.8227 2.50417 87.7817 2.40733 87.7084 2.33103C87.6351 2.2518 87.5413 2.20778 87.427 2.19898L86.398 2.10801C86.2837 2.09921 86.1811 2.12562 86.0931 2.18724C86.0052 2.24887 85.9465 2.33983 85.9231 2.45135L84.9909 5.94047C84.9645 6.06372 84.9322 6.19871 84.8941 6.33956C84.856 6.48335 84.8208 6.61834 84.7886 6.74746L84.6332 6.73279C84.6332 6.58019 84.6361 6.43347 84.6391 6.29555C84.6391 6.15762 84.6391 6.02851 84.6332 5.90819L84.3899 1.929L83.1323 1.81749L83.5925 7.20231C83.6013 7.30208 83.6424 7.38718 83.7215 7.46054C83.8007 7.53391 83.8945 7.57499 84.0029 7.58379L85.1814 7.6865C85.2899 7.6953 85.3895 7.67183 85.4804 7.61314C85.5713 7.55445 85.627 7.47522 85.6534 7.37251L86.6061 3.75133C86.6325 3.63395 86.6589 3.5107 86.6882 3.38745C86.7146 3.2642 86.741 3.14095 86.7615 3.02357L86.9169 3.03825C86.9227 3.15856 86.9286 3.28181 86.9345 3.40799C86.9403 3.53124 86.9462 3.65743 86.9521 3.78361L87.2599 7.51336C87.2687 7.61901 87.3097 7.70704 87.3889 7.7804C87.468 7.85377 87.5618 7.89485 87.6703 7.90365L88.84 8.00636C88.9543 8.01516 89.0569 7.99169 89.1419 7.933L89.1331 7.9418Z" fill="#f9fafb"/>
<path d="M91.8712 8.51403C92.1731 8.56685 92.478 8.61967 92.7858 8.66956C93.0936 8.71945 93.3956 8.76346 93.6946 8.80161C93.9936 8.83976 94.275 8.87204 94.5359 8.89258L94.6356 7.98289L92.4926 7.6102C92.3578 7.58673 92.264 7.53391 92.2083 7.45174C92.1526 7.36957 92.1379 7.261 92.1614 7.12601L92.3519 6.02557L94.6004 6.41586L94.7529 5.54138L92.5044 5.15109L92.6568 4.27661C92.6803 4.14162 92.733 4.04478 92.8122 3.98609C92.8913 3.9274 92.9998 3.90979 93.1347 3.93327L95.2776 4.30595L95.4916 3.4168C95.2366 3.34344 94.9639 3.27888 94.6678 3.21432C94.3747 3.15269 94.0727 3.094 93.7649 3.03531C93.4571 2.97956 93.1552 2.9238 92.8532 2.87098C92.4985 2.80936 92.1936 2.86218 91.9386 3.02944C91.6835 3.19671 91.5282 3.44908 91.4695 3.78948L90.8803 7.17296C90.8217 7.5075 90.8832 7.79801 91.065 8.04451C91.2467 8.29101 91.5164 8.4436 91.8712 8.50523V8.51403Z" fill="#f9fafb"/>
<path d="M99.1414 9.04811L97.0277 8.54044C96.8958 8.50816 96.802 8.44947 96.7522 8.36437C96.7023 8.27927 96.6935 8.17069 96.7258 8.03571L96.9867 6.94994L99.2059 7.48402L99.414 6.62128L97.1948 6.0872L97.403 5.22445C97.4352 5.0924 97.4909 4.9985 97.5759 4.94567C97.658 4.89285 97.7665 4.88111 97.9013 4.91339L100.015 5.42106L100.285 4.54658C100.035 4.45855 99.7658 4.37345 99.4755 4.29421C99.1853 4.21205 98.8892 4.13575 98.5873 4.05945C98.2853 3.98316 97.9834 3.90979 97.6873 3.83937C97.3355 3.75427 97.0277 3.78948 96.7639 3.93914C96.5 4.0888 96.3271 4.33236 96.2479 4.6669L95.4476 8.00636C95.3685 8.33796 95.4125 8.63141 95.5795 8.88671C95.7466 9.14495 96.0046 9.31515 96.3564 9.39732C96.6554 9.46774 96.9544 9.54111 97.2593 9.61154C97.5642 9.68196 97.8632 9.74652 98.1593 9.80228C98.4554 9.85803 98.7339 9.90792 98.9948 9.949L99.1531 9.04811H99.1414Z" fill="#f9fafb"/>
<path d="M100.839 10.5623L101.419 8.69597C101.466 8.54924 101.498 8.38491 101.516 8.20591C101.516 8.18537 101.516 8.16482 101.522 8.14428L102.02 8.29981L102.689 11.1404L104.028 11.56L103.298 8.7664C103.275 8.65489 103.234 8.54631 103.178 8.4348C103.119 8.32622 103.061 8.23819 103.002 8.17363L103.011 8.15015C103.093 8.12374 103.178 8.08853 103.269 8.04158C103.357 7.99462 103.445 7.933 103.533 7.8567L105.623 6.11654L104.33 5.71158L102.281 7.46348L101.786 7.30795C101.806 7.2698 101.83 7.23165 101.847 7.1935C101.929 7.02624 101.997 6.8531 102.052 6.67703L102.527 5.14815L101.337 4.77547L99.6515 10.1867L100.842 10.5594L100.839 10.5623Z" fill="#f9fafb"/>
<path d="M109.279 13.6582L109.695 12.6399L108.077 11.9767C107.945 11.9239 107.813 11.874 107.681 11.8271C107.549 11.7801 107.414 11.742 107.279 11.7126L109.235 10.8528C109.569 10.7002 109.836 10.5564 110.035 10.4244C110.234 10.2923 110.393 10.1515 110.51 10.0018C110.627 9.85216 110.727 9.67903 110.806 9.47948C110.944 9.14495 110.973 8.85737 110.9 8.61967C110.826 8.38198 110.668 8.17656 110.431 8.00636C110.193 7.83616 109.891 7.67476 109.528 7.5251C109.349 7.45174 109.17 7.38425 108.988 7.31675C108.807 7.25219 108.61 7.19057 108.399 7.13188C108.188 7.07612 107.948 7.0233 107.678 6.97929L107.37 7.86551C107.611 7.9418 107.822 8.0093 108 8.07092C108.179 8.13255 108.346 8.19417 108.502 8.25286C108.657 8.31449 108.824 8.37904 109 8.45241C109.158 8.51697 109.284 8.57859 109.387 8.63728C109.49 8.69597 109.554 8.76053 109.586 8.83389C109.619 8.90725 109.616 8.99822 109.575 9.11267C109.504 9.29754 109.337 9.47948 109.07 9.66142C108.804 9.84336 108.452 10.0282 108.012 10.2219L106.133 11.0876C106.051 11.1316 105.981 11.1874 105.922 11.2549C105.863 11.3224 105.816 11.4016 105.781 11.4926L105.526 12.1147L109.279 13.6523V13.6582Z" fill="#f9fafb"/>
<path d="M110.677 14.1248C110.879 14.4388 111.225 14.7146 111.712 14.9523C112.198 15.19 112.626 15.2927 112.999 15.2634C113.371 15.2311 113.714 15.055 114.028 14.7293C114.341 14.4036 114.658 13.9165 114.975 13.2679C115.291 12.6194 115.482 12.0706 115.546 11.6217C115.611 11.1727 115.54 10.7941 115.335 10.4801C115.133 10.1662 114.787 9.89031 114.3 9.65262C113.814 9.41492 113.386 9.31222 113.013 9.34156C112.641 9.37384 112.301 9.55285 111.987 9.87858C111.677 10.2043 111.36 10.6914 111.043 11.3429C110.727 11.9914 110.533 12.5402 110.469 12.9862C110.404 13.4323 110.472 13.8137 110.674 14.1248H110.677ZM111.773 12.7779C111.858 12.5343 111.987 12.235 112.157 11.8858C112.33 11.5307 112.486 11.2461 112.626 11.0318C112.764 10.8176 112.899 10.6592 113.025 10.5623C113.151 10.4655 113.283 10.4156 113.415 10.4156C113.55 10.4156 113.699 10.4537 113.861 10.533C114.028 10.6151 114.154 10.709 114.239 10.8176C114.324 10.9262 114.368 11.0612 114.371 11.2196C114.374 11.381 114.335 11.5806 114.25 11.8242C114.165 12.0648 114.036 12.3641 113.864 12.7192C113.693 13.0684 113.538 13.353 113.397 13.5702C113.257 13.7873 113.122 13.9458 112.993 14.0397C112.864 14.1365 112.732 14.1835 112.594 14.1835C112.456 14.1835 112.304 14.1424 112.137 14.0602C111.976 13.981 111.852 13.8871 111.77 13.7815C111.688 13.6758 111.647 13.5408 111.644 13.3824C111.644 13.2239 111.685 13.0214 111.77 12.7779H111.773Z" fill="#f9fafb"/>
<path d="M117.704 12.6546C117.85 12.7368 118.006 12.8248 118.173 12.9187C118.319 13.0038 118.44 13.0801 118.531 13.1535C118.621 13.2239 118.68 13.3002 118.701 13.3736C118.721 13.4469 118.706 13.5408 118.651 13.6494C118.557 13.8225 118.366 13.981 118.079 14.1248C117.792 14.2686 117.417 14.4065 116.956 14.5415L114.98 15.1489C114.892 15.1812 114.816 15.2252 114.749 15.2869C114.681 15.3456 114.626 15.4189 114.576 15.504L114.242 16.088L117.76 18.1099L118.308 17.1561L116.792 16.2846C116.669 16.2142 116.546 16.1467 116.42 16.085C116.294 16.0234 116.168 15.9677 116.039 15.9178L118.091 15.325C118.443 15.2164 118.727 15.1108 118.941 15.0081C119.155 14.9054 119.331 14.7851 119.466 14.653C119.601 14.521 119.724 14.3596 119.829 14.1747C120.008 13.8607 120.078 13.5819 120.034 13.3354C119.993 13.0889 119.864 12.8659 119.653 12.6664C119.439 12.4639 119.164 12.2673 118.821 12.0706C118.654 11.9738 118.487 11.8828 118.314 11.7919C118.141 11.7009 117.953 11.6158 117.754 11.5307C117.551 11.4456 117.32 11.3634 117.059 11.2813L116.637 12.1176C116.865 12.2232 117.065 12.3201 117.235 12.4052C117.405 12.4903 117.563 12.5724 117.707 12.6546H117.704Z" fill="#f9fafb"/>
<path d="M120.163 16.4255L120.709 16.8832C120.911 17.0358 121.075 17.1708 121.207 17.2853C121.336 17.3997 121.43 17.5142 121.486 17.6227C121.541 17.7313 121.559 17.8428 121.538 17.9573C121.518 18.0717 121.456 18.2038 121.354 18.3505C121.242 18.5001 121.128 18.6117 121.014 18.6821C120.896 18.7525 120.761 18.7731 120.606 18.7437C120.451 18.7114 120.251 18.6175 120.008 18.4561C119.844 18.3476 119.659 18.2155 119.457 18.06C119.255 17.9044 119.049 17.7401 118.841 17.5699L118.217 18.3094C118.469 18.5412 118.727 18.7613 118.985 18.9697C119.246 19.178 119.483 19.3541 119.703 19.4979C120.037 19.718 120.336 19.8588 120.606 19.9204C120.873 19.9821 121.113 19.9821 121.327 19.9204C121.541 19.8588 121.735 19.7502 121.908 19.6006C122.081 19.448 122.233 19.269 122.371 19.0636C122.512 18.8494 122.614 18.6381 122.679 18.4297C122.743 18.2214 122.761 18.016 122.734 17.8076C122.708 17.5993 122.623 17.3909 122.485 17.1796C122.347 16.9683 122.139 16.7541 121.87 16.537L121.228 16.0058L121.87 15.1489L123.837 16.446L124.391 15.6801L121.588 13.8314L120.09 15.8532C120.023 15.9471 119.996 16.0469 120.011 16.1496C120.026 16.2553 120.078 16.3462 120.166 16.4225L120.163 16.4255Z" fill="#f9fafb"/>
<path d="M123.634 22.136L124.883 21.2175L126.416 22.4265L125.818 23.8585L126.824 24.6509L128.832 19.4363C128.87 19.3423 128.879 19.2455 128.852 19.1487C128.826 19.0518 128.773 18.9726 128.691 18.908L127.756 18.1715C127.674 18.1069 127.583 18.0746 127.483 18.0717C127.384 18.0688 127.293 18.0981 127.211 18.1597L122.617 21.3378L123.631 22.136H123.634ZM127.346 19.3981C127.419 19.3335 127.489 19.2749 127.557 19.2162L127.73 19.3541C127.689 19.4333 127.648 19.5184 127.604 19.6065C127.56 19.6945 127.522 19.7825 127.48 19.8706L126.792 21.5227L125.669 20.6394L127.111 19.58C127.19 19.5243 127.266 19.4627 127.343 19.401L127.346 19.3981Z" fill="#f9fafb"/>
<path d="M130.101 25.5782C129.999 25.6926 129.902 25.763 129.811 25.7924C129.72 25.8217 129.618 25.8041 129.509 25.7425C129.401 25.6809 129.263 25.5752 129.102 25.4285C129.008 25.3434 128.899 25.2436 128.776 25.1292C128.653 25.0147 128.504 24.8739 128.334 24.7066C128.164 24.5423 127.958 24.3486 127.724 24.1285L127.07 24.733C127.334 25.1028 127.586 25.4138 127.823 25.6633C128.064 25.9127 128.251 26.1005 128.389 26.2238C128.677 26.4849 128.94 26.6845 129.172 26.8253C129.406 26.9662 129.623 27.0484 129.826 27.0689C130.028 27.0894 130.23 27.0454 130.43 26.9398C130.629 26.8341 130.837 26.6581 131.054 26.4174C131.341 26.1005 131.505 25.7865 131.552 25.4725C131.599 25.1585 131.503 24.7947 131.268 24.375L130.693 23.3802C130.579 23.1807 130.518 23.0193 130.509 22.8931C130.5 22.7669 130.562 22.6349 130.688 22.4911C130.773 22.3972 130.849 22.3326 130.916 22.3003C130.984 22.2651 131.054 22.2563 131.127 22.2739C131.201 22.2915 131.28 22.3326 131.362 22.3972C131.447 22.4617 131.547 22.5468 131.661 22.6495C131.892 22.8579 132.127 23.0721 132.361 23.2951C132.599 23.5152 132.804 23.7089 132.977 23.8732L133.593 23.3127C133.423 23.034 133.226 22.7728 133.003 22.5322C132.781 22.2886 132.564 22.0744 132.356 21.8866C132.08 21.6371 131.828 21.4405 131.602 21.2938C131.376 21.1471 131.162 21.062 130.96 21.0356C130.758 21.0091 130.562 21.0444 130.365 21.1441C130.169 21.2439 129.961 21.4141 129.741 21.6606C129.459 21.9746 129.298 22.2857 129.26 22.5996C129.222 22.9136 129.31 23.2716 129.527 23.6795L130.116 24.7418C130.192 24.8621 130.245 24.9649 130.271 25.0529C130.298 25.1409 130.301 25.226 130.271 25.3082C130.242 25.3904 130.186 25.4813 130.098 25.5782H130.101Z" fill="#f9fafb"/>
<path d="M134.543 24.0853L130.554 28.1102L131.441 28.9906L135.43 24.9657L134.543 24.0853Z" fill="#f9fafb"/>
<path d="M132.64 30.2088L134.024 29.5104L135.337 30.9542L134.51 32.2688L135.372 33.2167L138.213 28.407C138.269 28.319 138.289 28.228 138.28 28.1282C138.271 28.0285 138.23 27.9404 138.163 27.8641L137.363 26.9838C137.292 26.9075 137.207 26.8605 137.111 26.84C137.014 26.8224 136.917 26.8371 136.826 26.8811L131.769 29.2551L132.637 30.2088H132.64ZM136.753 28.1224C136.838 28.0725 136.917 28.0226 136.993 27.9757L137.143 28.14C137.09 28.2104 137.034 28.2867 136.979 28.3689C136.923 28.451 136.867 28.5303 136.814 28.6095L135.862 30.1266L134.9 29.0702L136.498 28.2632C136.586 28.2222 136.671 28.1752 136.756 28.1253L136.753 28.1224Z" fill="#f9fafb"/>
<path d="M136.902 34.9304C136.902 35.039 136.932 35.1358 136.996 35.2239L137.694 36.1776C137.758 36.2656 137.843 36.3243 137.946 36.3537C138.049 36.383 138.148 36.3742 138.242 36.3243L141.587 34.6517C141.693 34.593 141.804 34.5343 141.915 34.4726C142.027 34.411 142.135 34.3494 142.238 34.2878L142.332 34.414C142.244 34.4991 142.156 34.5842 142.065 34.6693C141.974 34.7544 141.886 34.8424 141.792 34.9304L139.195 37.6214C139.122 37.6977 139.083 37.7886 139.081 37.8943C139.081 38.0029 139.11 38.0997 139.174 38.1877L139.869 39.1356C139.937 39.2295 140.022 39.2882 140.124 39.3146C140.227 39.341 140.321 39.3322 140.409 39.2882L145.246 36.8877L144.498 35.8665L140.963 37.7387C140.86 37.8004 140.746 37.8679 140.623 37.9412C140.499 38.0146 140.382 38.085 140.271 38.1554L140.174 38.0234C140.271 37.9324 140.367 37.8356 140.467 37.7358C140.567 37.636 140.664 37.5363 140.754 37.4424L143.252 34.8219C143.334 34.7397 143.381 34.6458 143.393 34.5401C143.405 34.4345 143.375 34.3347 143.308 34.2408L142.695 33.4045C142.628 33.3106 142.54 33.2519 142.434 33.2284C142.329 33.2049 142.223 33.2196 142.121 33.2754L138.884 34.8747C138.773 34.9363 138.653 35.0009 138.521 35.0654C138.389 35.13 138.263 35.1945 138.145 35.2532L138.055 35.127C138.172 35.0273 138.283 34.9334 138.386 34.8424C138.488 34.7514 138.585 34.6663 138.673 34.5812L141.502 31.7729L140.754 30.7517L137.014 34.6487C136.943 34.7191 136.908 34.8101 136.905 34.9158L136.902 34.9304Z" fill="#f9fafb"/>
<path d="M141.839 40.1274C141.549 40.3035 141.373 40.5412 141.309 40.8405C141.244 41.1398 141.309 41.445 141.493 41.7531C141.652 42.0143 141.816 42.2784 141.98 42.5425C142.144 42.8066 142.311 43.0649 142.481 43.3143C142.648 43.5637 142.812 43.7956 142.968 44.0098L143.715 43.4845L142.581 41.627C142.51 41.5096 142.487 41.4039 142.51 41.3071C142.534 41.2103 142.607 41.1281 142.724 41.0577L143.677 40.4766L144.867 42.4251L145.624 41.9615L144.434 40.013L145.19 39.5493C145.307 39.4789 145.413 39.4525 145.509 39.473C145.606 39.4936 145.691 39.564 145.762 39.6814L146.896 41.5389L147.702 41.1134C147.588 40.8757 147.459 40.6234 147.312 40.3622C147.166 40.0981 147.01 39.834 146.849 39.5669C146.688 39.2999 146.53 39.0329 146.368 38.7717C146.181 38.4636 145.94 38.2699 145.647 38.1877C145.354 38.1056 145.061 38.1554 144.768 38.3374L141.839 40.1274Z" fill="#f9fafb"/>
<path d="M144.231 44.1037C143.932 44.2622 143.739 44.4881 143.657 44.7816C143.575 45.075 143.616 45.3831 143.786 45.703C143.929 45.973 144.073 46.2488 144.222 46.5217C144.369 46.7976 144.521 47.0646 144.674 47.3258C144.826 47.5869 144.973 47.8276 145.117 48.0506L145.896 47.5752L144.882 45.6502C144.818 45.5299 144.803 45.4213 144.832 45.3274C144.864 45.2335 144.941 45.1542 145.061 45.0897L146.049 44.5673L147.113 46.5892L147.899 46.1755L146.834 44.1536L147.62 43.7398C147.74 43.6753 147.849 43.6576 147.943 43.6841C148.036 43.7105 148.116 43.7868 148.18 43.9071L149.194 45.8321L150.027 45.4565C149.927 45.21 149.813 44.9518 149.684 44.6818C149.555 44.4118 149.417 44.136 149.273 43.8572C149.13 43.5784 148.989 43.3055 148.845 43.0326C148.675 42.7127 148.45 42.5044 148.162 42.4046C147.875 42.3048 147.579 42.3371 147.274 42.4985L144.24 44.1008L144.231 44.1037Z" fill="#f9fafb"/>
<path d="M145.873 49.8524L147.658 49.0571C147.799 48.9955 147.943 48.9104 148.089 48.8077C148.107 48.796 148.121 48.7813 148.139 48.7695L148.353 49.2479L146.662 51.6248L147.233 52.9072L148.848 50.5156C148.916 50.4246 148.972 50.3219 149.016 50.2075C149.059 50.093 149.086 49.9903 149.095 49.9023L149.118 49.8935C149.191 49.9375 149.276 49.9786 149.37 50.0167C149.464 50.0519 149.57 50.0783 149.684 50.093L152.369 50.5156L151.818 49.2772L149.15 48.8928L148.939 48.4203C148.98 48.4115 149.024 48.4027 149.065 48.391C149.244 48.3411 149.417 48.2795 149.587 48.2032L151.05 47.5517L150.543 46.4102L145.369 48.7138L145.876 49.8553L145.873 49.8524Z" fill="#f9fafb"/>
<path d="M152.469 53.5968C152.542 53.7729 152.607 53.9372 152.662 54.0957C152.721 54.2541 152.78 54.4214 152.841 54.6033C152.897 54.7647 152.935 54.8997 152.958 55.0142C152.982 55.1286 152.976 55.2225 152.941 55.293C152.909 55.3663 152.835 55.425 152.724 55.469C152.539 55.5395 152.29 55.5336 151.979 55.4514C151.669 55.3722 151.293 55.2284 150.859 55.0259L148.972 54.1837C148.884 54.1514 148.796 54.1338 148.708 54.1368C148.62 54.1368 148.526 54.1544 148.435 54.1866L147.799 54.4067L149.124 58.2421L150.165 57.8812L149.593 56.2261C149.546 56.0911 149.496 55.9591 149.444 55.83C149.391 55.7008 149.332 55.5747 149.265 55.4514L151.2 56.3552C151.534 56.5049 151.818 56.6135 152.047 56.6751C152.275 56.7367 152.486 56.7631 152.677 56.7514C152.868 56.7397 153.064 56.7015 153.263 56.6311C153.606 56.5137 153.841 56.3464 153.97 56.1352C154.099 55.9209 154.149 55.6715 154.122 55.3781C154.093 55.0875 154.017 54.753 153.888 54.3803C153.826 54.1984 153.759 54.0194 153.688 53.8374C153.618 53.6555 153.533 53.4677 153.436 53.2711C153.34 53.0745 153.219 52.8602 153.076 52.6255L152.208 52.9776C152.311 53.2095 152.399 53.4119 152.469 53.588V53.5968Z" fill="#f9fafb"/>
<path d="M152.029 58.0396C151.331 58.2304 150.795 58.4475 150.417 58.6911C150.039 58.9376 149.798 59.2399 149.699 59.5979C149.599 59.9588 149.619 60.399 149.76 60.9213C149.904 61.4437 150.109 61.8369 150.379 62.0951C150.648 62.3534 151.006 62.4942 151.457 62.5148C151.909 62.5353 152.484 62.4531 153.178 62.2624C153.873 62.0717 154.412 61.8545 154.791 61.6051C155.169 61.3586 155.406 61.0534 155.509 60.6954C155.609 60.3344 155.588 59.8942 155.447 59.3719C155.304 58.8496 155.098 58.4563 154.832 58.1981C154.562 57.9399 154.204 57.799 153.753 57.7814C153.301 57.7638 152.73 57.8489 152.032 58.0367L152.029 58.0396ZM154.286 59.2134C154.377 59.3132 154.445 59.4511 154.492 59.6243C154.541 59.8033 154.553 59.9617 154.527 60.0967C154.5 60.2317 154.43 60.352 154.313 60.4635C154.196 60.5721 154.017 60.6748 153.779 60.7717C153.542 60.8685 153.234 60.9683 152.853 61.071C152.478 61.1737 152.161 61.2441 151.906 61.2823C151.651 61.3204 151.443 61.3234 151.287 61.2881C151.132 61.2529 151.006 61.1854 150.918 61.0827C150.827 60.98 150.757 60.8392 150.71 60.6572C150.663 60.4841 150.651 60.3286 150.678 60.1965C150.704 60.0645 150.777 59.9441 150.895 59.8385C151.012 59.7328 151.194 59.6301 151.434 59.5333C151.674 59.4365 151.982 59.3367 152.357 59.234C152.739 59.1313 153.055 59.0608 153.307 59.0227C153.559 58.9845 153.765 58.9816 153.92 59.0139C154.075 59.0462 154.198 59.1107 154.289 59.2105L154.286 59.2134Z" fill="#f9fafb"/>
<path d="M155.31 63.3981C155.356 63.58 155.4 63.7531 155.436 63.9175C155.471 64.0818 155.509 64.2549 155.547 64.4427C155.579 64.61 155.6 64.7509 155.609 64.8653C155.617 64.9798 155.597 65.0737 155.556 65.1412C155.515 65.2086 155.433 65.2556 155.318 65.2849C155.128 65.329 154.882 65.2908 154.582 65.1705C154.283 65.0502 153.935 64.8594 153.53 64.6012L151.771 63.5154C151.689 63.4714 151.604 63.4421 151.516 63.4333C151.428 63.4245 151.334 63.4274 151.238 63.4479L150.578 63.58L151.381 67.5592L152.46 67.342L152.114 65.6253C152.085 65.4845 152.053 65.3495 152.017 65.2145C151.982 65.0795 151.938 64.9475 151.891 64.8154L153.691 65.9687C154.005 66.1624 154.269 66.3061 154.489 66.3971C154.709 66.4881 154.914 66.5438 155.104 66.5585C155.295 66.5732 155.494 66.5585 155.702 66.5174C156.057 66.447 156.312 66.312 156.467 66.1183C156.623 65.9247 156.708 65.6811 156.717 65.3876C156.728 65.0942 156.693 64.7538 156.617 64.3694C156.579 64.1816 156.538 63.9938 156.491 63.803C156.444 63.6152 156.385 63.4157 156.318 63.2102C156.248 63.0048 156.157 62.7759 156.045 62.5236L155.139 62.7583C155.21 63.0019 155.271 63.2132 155.318 63.3981H155.31Z" fill="#f9fafb"/>
<path d="M154.333 67.9553C154.263 68.0375 154.231 68.1343 154.228 68.2517L154.242 68.9619C154.26 69.2142 154.269 69.4255 154.269 69.6016C154.269 69.7747 154.245 69.9214 154.201 70.033C154.157 70.1474 154.084 70.2354 153.984 70.2941C153.885 70.3528 153.747 70.3939 153.565 70.4144C153.381 70.4291 153.222 70.4144 153.09 70.3763C152.961 70.3352 152.856 70.2472 152.777 70.1093C152.698 69.9713 152.636 69.7571 152.598 69.4695C152.571 69.2729 152.548 69.0499 152.533 68.7946C152.519 68.5393 152.504 68.2781 152.495 68.0081L151.528 68.0258C151.519 68.3691 151.525 68.7066 151.54 69.0411C151.554 69.3727 151.581 69.6691 151.616 69.9302C151.672 70.3264 151.762 70.6463 151.894 70.8869C152.023 71.1275 152.185 71.3095 152.372 71.4298C152.56 71.5501 152.768 71.6264 152.997 71.6557C153.225 71.6851 153.46 71.6821 153.703 71.6499C153.958 71.6147 154.184 71.553 154.383 71.465C154.58 71.377 154.75 71.2537 154.887 71.0952C155.025 70.9368 155.128 70.7372 155.192 70.4937C155.257 70.2501 155.283 69.9537 155.268 69.6075L155.245 68.7741L156.312 68.6919L156.635 71.0278L157.576 70.9397L157.115 67.612L154.609 67.8174C154.495 67.8291 154.404 67.8732 154.333 67.9553Z" fill="#f9fafb"/>
<path d="M152.228 74.6343L153.741 74.9688L153.847 76.9202L152.378 77.4162L152.448 78.6956L157.687 76.7676C157.784 76.7354 157.86 76.6767 157.916 76.5945C157.971 76.5124 157.998 76.4184 157.992 76.3157L157.927 75.1273C157.922 75.0246 157.886 74.9336 157.822 74.8573C157.757 74.781 157.675 74.7311 157.576 74.7106L152.158 73.349L152.228 74.6372V74.6343ZM156.734 75.6203C156.831 75.6349 156.922 75.6467 157.013 75.6584L157.024 75.8785C156.937 75.899 156.849 75.9225 156.752 75.9519C156.658 75.9783 156.564 76.0047 156.473 76.034L154.779 76.6063L154.703 75.1801L156.45 75.5674C156.544 75.5909 156.64 75.6085 156.737 75.6232L156.734 75.6203Z" fill="#f9fafb"/>
<path d="M158.124 80.0836C158.083 79.8166 158.009 79.5994 157.895 79.4322C157.784 79.262 157.625 79.1387 157.42 79.0536C157.215 78.9714 156.951 78.9274 156.623 78.9216C156.201 78.9157 155.861 79.0008 155.6 79.1769C155.339 79.3529 155.128 79.6581 154.961 80.0866L154.547 81.231C154.506 81.366 154.462 81.4746 154.415 81.5538C154.368 81.633 154.304 81.6888 154.225 81.724C154.146 81.7592 154.04 81.7739 153.908 81.771C153.756 81.771 153.639 81.7416 153.556 81.6917C153.474 81.6419 153.422 81.5538 153.395 81.4306C153.369 81.3073 153.36 81.1342 153.363 80.917C153.363 80.7908 153.369 80.6441 153.375 80.4739C153.381 80.3037 153.389 80.1012 153.401 79.8635C153.413 79.6258 153.425 79.3441 153.436 79.0213L152.551 78.9245C152.445 79.3676 152.378 79.7608 152.346 80.1042C152.316 80.4475 152.299 80.7146 152.296 80.8994C152.29 81.2868 152.311 81.6184 152.357 81.8854C152.404 82.1554 152.486 82.3725 152.607 82.5398C152.727 82.7071 152.888 82.8303 153.102 82.9096C153.313 82.9888 153.583 83.0328 153.905 83.0387C154.333 83.0445 154.679 82.9624 154.943 82.7922C155.21 82.622 155.421 82.308 155.582 81.8561L155.952 80.7703C156.025 80.5532 156.107 80.3976 156.198 80.3096C156.286 80.2216 156.426 80.1775 156.62 80.1805C156.746 80.1805 156.843 80.1981 156.913 80.2274C156.983 80.2568 157.036 80.3037 157.071 80.3683C157.107 80.4358 157.127 80.5209 157.133 80.6294C157.139 80.738 157.142 80.8671 157.139 81.0197C157.133 81.3308 157.127 81.6507 157.115 81.9735C157.104 82.2963 157.095 82.578 157.086 82.8186L157.913 82.9154C158.009 82.6044 158.077 82.2845 158.112 81.9558C158.147 81.6272 158.168 81.3249 158.174 81.0432C158.179 80.6705 158.162 80.3507 158.124 80.0836Z" fill="#f9fafb"/>
<path d="M152.312 83.7723L152.237 85.0202L157.891 85.3584L157.966 84.1106L152.312 83.7723Z" fill="#f9fafb"/>
<path d="M157.379 87.6811L152.258 85.4479L152.114 86.7303L153.554 87.3084L153.337 89.251L151.806 89.4975L151.666 90.7711L157.151 89.7293C157.25 89.7117 157.335 89.6677 157.406 89.5973C157.473 89.5239 157.514 89.4359 157.526 89.3332L157.658 88.1477C157.669 88.0449 157.649 87.951 157.599 87.863C157.549 87.7779 157.476 87.7163 157.379 87.6781V87.6811ZM156.64 88.7492C156.552 88.7551 156.459 88.7639 156.362 88.7756C156.265 88.7874 156.168 88.7991 156.072 88.8108L154.307 89.0955L154.465 87.6752L156.124 88.3443C156.212 88.3824 156.306 88.4147 156.397 88.444C156.491 88.4734 156.579 88.5027 156.664 88.5262L156.64 88.7463V88.7492Z" fill="#f9fafb"/>
<path d="M151.393 93.0541C151.311 93.1216 151.258 93.2097 151.235 93.3182L150.98 94.4744C150.956 94.5801 150.968 94.6828 151.012 94.7796C151.059 94.8765 151.129 94.9439 151.229 94.9821L154.691 96.3936C154.805 96.4347 154.923 96.4787 155.04 96.5227C155.16 96.5667 155.277 96.6049 155.392 96.643L155.356 96.7956C155.236 96.7868 155.113 96.7751 154.99 96.7663C154.867 96.7545 154.741 96.7457 154.615 96.734L150.88 96.5579C150.774 96.5521 150.681 96.5814 150.599 96.6518C150.516 96.7223 150.464 96.8074 150.44 96.9159L150.188 98.0633C150.165 98.1748 150.173 98.2805 150.22 98.3744C150.267 98.4683 150.338 98.5358 150.429 98.571L155.424 100.625L155.696 99.3897L151.959 97.9665C151.844 97.9283 151.718 97.8902 151.581 97.8462C151.446 97.8022 151.314 97.7611 151.188 97.7229L151.223 97.5615C151.355 97.5733 151.493 97.585 151.633 97.5938C151.774 97.6026 151.912 97.6114 152.044 97.6173L155.658 97.7669C155.773 97.7757 155.875 97.7493 155.963 97.6877C156.048 97.6261 156.107 97.5381 156.13 97.4265L156.353 96.4141C156.377 96.3026 156.365 96.197 156.312 96.1031C156.259 96.0092 156.18 95.9387 156.072 95.8977L152.736 94.5214C152.615 94.4774 152.489 94.4304 152.352 94.3747C152.217 94.3189 152.085 94.2661 151.962 94.2162L151.994 94.0636C152.146 94.0871 152.29 94.1076 152.425 94.1252C152.56 94.1428 152.689 94.1575 152.812 94.1692L156.787 94.4422L157.06 93.2067L151.666 92.9661C151.566 92.9602 151.475 92.9925 151.393 93.06V93.0541Z" fill="#f9fafb"/>
<path d="M154.026 101.221L150.751 100.197C150.429 100.097 150.132 100.12 149.866 100.267C149.599 100.417 149.411 100.663 149.303 101.007C149.212 101.3 149.121 101.596 149.03 101.896C148.939 102.195 148.857 102.489 148.781 102.782C148.705 103.075 148.637 103.348 148.579 103.607L149.467 103.824L150.115 101.746C150.156 101.614 150.22 101.529 150.308 101.485C150.396 101.441 150.505 101.438 150.637 101.479L151.704 101.814L151.024 103.994L151.871 104.258L152.551 102.078L153.398 102.342C153.53 102.383 153.618 102.447 153.665 102.533C153.712 102.618 153.715 102.726 153.677 102.858L153.029 104.936L153.882 105.262C153.987 105.018 154.087 104.754 154.19 104.469C154.292 104.185 154.389 103.894 154.483 103.598C154.58 103.301 154.67 103.005 154.764 102.712C154.873 102.365 154.858 102.057 154.726 101.784C154.594 101.511 154.363 101.324 154.034 101.218L154.026 101.221Z" fill="#f9fafb"/>
<path d="M152.542 105.852L149.338 104.622C149.021 104.499 148.725 104.505 148.45 104.637C148.174 104.769 147.972 105.003 147.843 105.341C147.732 105.628 147.623 105.916 147.515 106.21C147.406 106.503 147.303 106.791 147.21 107.078C147.116 107.366 147.031 107.633 146.958 107.888L147.828 108.161L148.608 106.127C148.658 105.998 148.728 105.916 148.819 105.878C148.91 105.84 149.018 105.846 149.147 105.893L150.188 106.292L149.37 108.425L150.197 108.742L151.015 106.609L151.842 106.926C151.97 106.975 152.053 107.043 152.097 107.134C152.138 107.222 152.135 107.331 152.085 107.46L151.305 109.493L152.135 109.875C152.255 109.64 152.372 109.382 152.492 109.106C152.61 108.827 152.727 108.545 152.841 108.255C152.956 107.964 153.067 107.677 153.178 107.389C153.307 107.052 153.316 106.741 153.199 106.459C153.082 106.177 152.865 105.975 152.545 105.852H152.542Z" fill="#f9fafb"/>
<path d="M146.105 109.646L147.878 110.465C148.016 110.529 148.174 110.582 148.35 110.623C148.371 110.629 148.391 110.632 148.412 110.635L148.192 111.11L145.29 111.404L144.7 112.68L147.561 112.319C147.673 112.31 147.787 112.284 147.904 112.243C148.022 112.199 148.116 112.152 148.186 112.102L148.209 112.114C148.224 112.199 148.247 112.29 148.283 112.384C148.318 112.478 148.368 112.574 148.432 112.668L149.883 114.969L150.452 113.739L148.983 111.477L149.2 111.007C149.235 111.034 149.268 111.06 149.306 111.084C149.461 111.186 149.622 111.274 149.792 111.354L151.246 112.026L151.768 110.893L146.626 108.516L146.102 109.649L146.105 109.646Z" fill="#f9fafb"/>
<path d="M147.632 117.085C147.547 117.255 147.465 117.413 147.386 117.56C147.306 117.707 147.218 117.862 147.122 118.03C147.037 118.176 146.961 118.297 146.89 118.388C146.82 118.479 146.747 118.537 146.67 118.561C146.594 118.584 146.503 118.567 146.395 118.511C146.222 118.417 146.061 118.229 145.917 117.939C145.773 117.648 145.633 117.276 145.498 116.815L144.885 114.837C144.853 114.749 144.806 114.673 144.747 114.605C144.689 114.538 144.615 114.482 144.527 114.432L143.944 114.097L141.936 117.622L142.892 118.168L143.759 116.648C143.83 116.524 143.897 116.398 143.959 116.275C144.02 116.149 144.076 116.022 144.126 115.893L144.724 117.948C144.832 118.3 144.938 118.581 145.043 118.796C145.149 119.01 145.266 119.186 145.401 119.321C145.536 119.456 145.694 119.579 145.879 119.685C146.192 119.864 146.471 119.931 146.717 119.89C146.963 119.846 147.183 119.72 147.386 119.506C147.585 119.292 147.784 119.016 147.978 118.672C148.072 118.505 148.165 118.335 148.253 118.162C148.341 117.989 148.429 117.801 148.511 117.601C148.593 117.399 148.675 117.167 148.758 116.903L147.919 116.48C147.814 116.709 147.72 116.909 147.635 117.079L147.632 117.085Z" fill="#f9fafb"/>
<path d="M144.006 119.679C143.402 119.28 142.886 119.019 142.452 118.895C142.018 118.772 141.634 118.793 141.297 118.954C140.96 119.115 140.643 119.424 140.344 119.876C140.045 120.327 139.887 120.741 139.869 121.114C139.852 121.487 139.983 121.85 140.265 122.203C140.546 122.558 140.989 122.933 141.59 123.332C142.194 123.731 142.713 123.993 143.147 124.113C143.583 124.233 143.967 124.213 144.305 124.051C144.642 123.89 144.958 123.582 145.257 123.13C145.556 122.678 145.715 122.264 145.732 121.892C145.75 121.519 145.615 121.155 145.334 120.806C145.052 120.454 144.609 120.078 144.006 119.679ZM144.615 122.15C144.601 122.285 144.542 122.426 144.442 122.575C144.34 122.731 144.228 122.842 144.111 122.913C143.994 122.983 143.853 123.01 143.695 122.992C143.536 122.974 143.34 122.91 143.111 122.792C142.883 122.675 142.604 122.511 142.276 122.294C141.951 122.079 141.69 121.889 141.493 121.721C141.294 121.554 141.156 121.401 141.08 121.261C141.001 121.12 140.971 120.982 140.989 120.847C141.007 120.712 141.068 120.565 141.171 120.41C141.27 120.26 141.379 120.151 141.496 120.084C141.613 120.016 141.751 119.993 141.909 120.011C142.068 120.028 142.261 120.099 142.493 120.216C142.724 120.333 143.003 120.498 143.325 120.712C143.654 120.929 143.915 121.12 144.111 121.287C144.307 121.451 144.445 121.604 144.524 121.742C144.604 121.88 144.636 122.015 144.618 122.15H144.615Z" fill="#f9fafb"/>
<path d="M142.153 125.68C142.047 125.838 141.945 125.982 141.845 126.117C141.745 126.252 141.64 126.396 141.523 126.549C141.42 126.684 141.326 126.792 141.244 126.874C141.162 126.956 141.08 127.003 141.004 127.015C140.924 127.027 140.837 127 140.737 126.93C140.576 126.816 140.444 126.604 140.338 126.302C140.233 125.997 140.145 125.607 140.071 125.134L139.726 123.095C139.705 123.004 139.67 122.922 139.62 122.848C139.57 122.775 139.506 122.707 139.426 122.649L138.89 122.241L136.433 125.472L137.31 126.138L138.368 124.744C138.453 124.629 138.535 124.515 138.614 124.4C138.694 124.283 138.764 124.166 138.828 124.042L139.151 126.155C139.212 126.519 139.28 126.813 139.356 127.039C139.432 127.265 139.526 127.455 139.64 127.608C139.755 127.76 139.898 127.901 140.068 128.03C140.356 128.251 140.623 128.353 140.872 128.344C141.121 128.333 141.358 128.236 141.584 128.051C141.81 127.866 142.044 127.617 142.282 127.303C142.399 127.15 142.51 126.995 142.622 126.833C142.733 126.675 142.842 126.499 142.953 126.311C143.062 126.123 143.173 125.903 143.287 125.654L142.513 125.125C142.379 125.34 142.258 125.524 142.153 125.683V125.68Z" fill="#f9fafb"/>
<path d="M138.084 127.957C137.978 127.957 137.882 127.998 137.794 128.074L137.269 128.556C137.093 128.735 136.938 128.884 136.806 128.996C136.674 129.11 136.551 129.19 136.436 129.231C136.322 129.272 136.208 129.275 136.096 129.242C135.985 129.207 135.865 129.128 135.73 129.008C135.595 128.879 135.501 128.749 135.445 128.626C135.39 128.503 135.387 128.365 135.44 128.212C135.489 128.06 135.61 127.875 135.8 127.655C135.929 127.505 136.085 127.341 136.263 127.162C136.445 126.98 136.633 126.798 136.829 126.613L136.178 125.897C135.915 126.117 135.665 126.346 135.425 126.575C135.187 126.807 134.979 127.021 134.809 127.221C134.548 127.523 134.37 127.804 134.276 128.06C134.179 128.318 134.15 128.556 134.182 128.779C134.217 128.999 134.296 129.204 134.425 129.395C134.554 129.586 134.713 129.762 134.897 129.923C135.091 130.09 135.287 130.22 135.484 130.311C135.68 130.402 135.882 130.446 136.093 130.446C136.301 130.446 136.521 130.39 136.747 130.278C136.973 130.167 137.213 129.991 137.462 129.75L138.072 129.181L138.837 129.929L137.298 131.713L137.987 132.362L140.18 129.818L138.368 128.069C138.286 127.989 138.189 127.951 138.084 127.954V127.957Z" fill="#f9fafb"/>
<path d="M132.608 129.882L131.687 130.786L132.438 132.145L131.045 133.512L129.703 132.735L128.788 133.632L133.695 136.297C133.783 136.347 133.877 136.367 133.977 136.356C134.076 136.344 134.161 136.3 134.238 136.227L135.088 135.393C135.161 135.32 135.208 135.235 135.22 135.135C135.234 135.035 135.22 134.941 135.167 134.853L132.611 129.882H132.608ZM133.918 135.211C133.845 135.161 133.769 135.109 133.684 135.056C133.602 135.003 133.519 134.95 133.437 134.9L131.89 134.005L132.91 133.004L133.774 134.572C133.821 134.657 133.868 134.742 133.924 134.824C133.977 134.906 134.03 134.982 134.079 135.059L133.921 135.214L133.918 135.211Z" fill="#f9fafb"/>
<path d="M131.374 136.91C131.098 136.59 130.811 136.391 130.506 136.312C130.201 136.232 129.834 136.276 129.401 136.435L128.272 136.884C128.143 136.943 128.035 136.981 127.944 136.998C127.853 137.016 127.768 137.004 127.689 136.966C127.609 136.928 127.527 136.86 127.442 136.761C127.343 136.643 127.284 136.538 127.269 136.444C127.255 136.35 127.284 136.25 127.36 136.15C127.437 136.05 127.557 135.927 127.724 135.786C127.821 135.704 127.932 135.61 128.064 135.502C128.196 135.393 128.354 135.264 128.539 135.117C128.723 134.971 128.943 134.792 129.19 134.586L128.677 133.858C128.275 134.073 127.938 134.281 127.659 134.486C127.381 134.692 127.173 134.856 127.032 134.976C126.736 135.229 126.504 135.464 126.334 135.678C126.164 135.892 126.056 136.097 126.009 136.297C125.962 136.497 125.98 136.702 126.059 136.913C126.141 137.125 126.284 137.353 126.495 137.6C126.774 137.926 127.064 138.128 127.369 138.216C127.674 138.301 128.046 138.254 128.492 138.075L129.55 137.632C129.761 137.544 129.931 137.503 130.057 137.512C130.183 137.521 130.306 137.597 130.433 137.741C130.515 137.838 130.567 137.92 130.594 137.993C130.62 138.066 130.617 138.137 130.594 138.204C130.567 138.275 130.515 138.348 130.441 138.422C130.365 138.498 130.268 138.586 130.154 138.686C129.917 138.888 129.673 139.094 129.424 139.299C129.175 139.504 128.958 139.683 128.77 139.836L129.248 140.52C129.544 140.388 129.829 140.226 130.098 140.036C130.368 139.845 130.608 139.657 130.819 139.478C131.101 139.234 131.33 139.011 131.503 138.806C131.675 138.601 131.787 138.398 131.84 138.201C131.892 138.005 131.881 137.802 131.807 137.597C131.734 137.392 131.59 137.16 131.376 136.91H131.374Z" fill="#f9fafb"/>
<path d="M124.897 136.868L123.911 137.635L127.387 142.111L128.373 141.344L124.897 136.868Z" fill="#f9fafb"/>
<path d="M123.593 137.943L122.538 138.683L123.051 140.147L121.45 141.265L120.254 140.276L119.205 141.01L123.605 144.449C123.684 144.514 123.772 144.549 123.872 144.552C123.971 144.555 124.062 144.528 124.15 144.47L125.126 143.789C125.211 143.73 125.27 143.651 125.299 143.557C125.329 143.463 125.329 143.366 125.294 143.269L123.593 137.943ZM124.007 143.419C123.942 143.357 123.875 143.293 123.801 143.225C123.728 143.158 123.658 143.093 123.584 143.032L122.204 141.89L123.373 141.071L123.966 142.762C123.998 142.853 124.03 142.944 124.071 143.035C124.109 143.123 124.147 143.211 124.185 143.29L124.004 143.416L124.007 143.419Z" fill="#f9fafb"/>
<path d="M117.308 142.31C117.203 142.292 117.1 142.31 117.006 142.363L115.971 142.935C115.875 142.988 115.807 143.064 115.763 143.161C115.719 143.258 115.716 143.357 115.751 143.457L116.977 146.993C117.021 147.108 117.065 147.222 117.112 147.339C117.159 147.457 117.205 147.571 117.255 147.683L117.118 147.759C117.044 147.662 116.971 147.563 116.898 147.463C116.824 147.363 116.748 147.26 116.675 147.158L114.344 144.232C114.28 144.15 114.195 144.1 114.089 144.082C113.984 144.065 113.881 144.082 113.787 144.138L112.758 144.704C112.659 144.76 112.588 144.836 112.547 144.933C112.506 145.03 112.503 145.127 112.536 145.221L114.289 150.333L115.397 149.722L113.998 145.972C113.949 145.86 113.899 145.74 113.84 145.608C113.784 145.476 113.729 145.35 113.676 145.23L113.82 145.15C113.899 145.259 113.981 145.368 114.066 145.479C114.151 145.591 114.236 145.699 114.318 145.805L116.59 148.625C116.66 148.719 116.745 148.774 116.851 148.801C116.953 148.824 117.056 148.81 117.159 148.754L118.064 148.255C118.164 148.199 118.234 148.12 118.273 148.017C118.311 147.915 118.308 147.809 118.267 147.7L117.1 144.282C117.053 144.164 117.006 144.035 116.959 143.894C116.909 143.756 116.865 143.624 116.821 143.498L116.959 143.422C117.044 143.551 117.123 143.674 117.197 143.789C117.273 143.903 117.346 144.009 117.419 144.109L119.838 147.278L120.946 146.667L117.569 142.451C117.507 142.371 117.422 142.324 117.317 142.307L117.308 142.31Z" fill="#f9fafb"/>
<path d="M111.524 146.538C111.386 146.227 111.172 146.022 110.885 145.919C110.598 145.817 110.287 145.84 109.959 145.987C109.677 146.11 109.396 146.239 109.112 146.368C108.827 146.497 108.552 146.629 108.282 146.764C108.012 146.899 107.763 147.031 107.531 147.158L107.954 147.967L109.941 147.084C110.067 147.028 110.176 147.02 110.267 147.058C110.357 147.096 110.431 147.175 110.486 147.301L110.941 148.323L108.856 149.25L109.217 150.06L111.301 149.132L111.662 149.942C111.718 150.069 111.729 150.177 111.694 150.268C111.662 150.362 111.583 150.435 111.457 150.491L109.469 151.374L109.786 152.231C110.038 152.149 110.302 152.052 110.58 151.941C110.859 151.829 111.143 151.709 111.427 151.586C111.715 151.463 111.996 151.336 112.278 151.213C112.609 151.066 112.832 150.852 112.949 150.573C113.066 150.292 113.057 149.995 112.917 149.681L111.524 146.541V146.538Z" fill="#f9fafb"/>
<path d="M107.273 148.396C107.156 148.076 106.957 147.859 106.675 147.736C106.394 147.615 106.083 147.618 105.746 147.744C105.459 147.85 105.169 147.959 104.878 148.07C104.588 148.182 104.304 148.296 104.025 148.414C103.747 148.531 103.489 148.645 103.251 148.757L103.621 149.593L105.661 148.836C105.79 148.789 105.899 148.786 105.987 148.83C106.074 148.874 106.145 148.959 106.192 149.088L106.579 150.136L104.439 150.928L104.746 151.762L106.886 150.969L107.194 151.803C107.241 151.932 107.247 152.041 107.206 152.132C107.165 152.223 107.083 152.29 106.954 152.34L104.914 153.097L105.177 153.971C105.432 153.907 105.705 153.825 105.989 153.731C106.274 153.637 106.564 153.537 106.857 153.432C107.15 153.326 107.441 153.22 107.728 153.112C108.068 152.985 108.302 152.786 108.44 152.516C108.575 152.243 108.584 151.947 108.464 151.621L107.271 148.399L107.273 148.396Z" fill="#f9fafb"/>
<path d="M101.366 149.282L101.92 151.157C101.964 151.304 102.029 151.457 102.114 151.618C102.123 151.636 102.134 151.653 102.146 151.674L101.645 151.823L99.5107 149.834L98.1652 150.233L100.323 152.146C100.405 152.225 100.499 152.293 100.607 152.355C100.716 152.413 100.812 152.454 100.9 152.475L100.906 152.498C100.853 152.566 100.801 152.645 100.754 152.733C100.707 152.821 100.666 152.921 100.636 153.032L99.8684 155.644L101.167 155.26L101.894 152.66L102.389 152.513C102.392 152.557 102.395 152.598 102.401 152.642C102.428 152.827 102.466 153.006 102.518 153.185L102.973 154.723L104.169 154.368L102.56 148.933L101.363 149.288L101.366 149.282Z" fill="#f9fafb"/>
<path d="M96.7991 155.339C96.6173 155.389 96.4443 155.43 96.2802 155.465C96.116 155.5 95.9431 155.539 95.7554 155.577C95.5883 155.612 95.4476 155.632 95.3333 155.638C95.216 155.644 95.1252 155.627 95.0577 155.585C94.9903 155.544 94.9434 155.462 94.9112 155.348C94.8672 155.157 94.9053 154.911 95.0255 154.611C95.1457 154.312 95.3362 153.96 95.5913 153.555L96.6701 151.791C96.7141 151.709 96.7434 151.624 96.7522 151.536C96.761 151.448 96.758 151.354 96.7375 151.257L96.6027 150.597L92.6304 151.413L92.8503 152.493L94.5623 152.14C94.703 152.111 94.8379 152.079 94.9727 152.044C95.1076 152.008 95.2395 151.964 95.3685 151.917L94.2222 153.722C94.0288 154.036 93.8881 154.303 93.7942 154.523C93.7034 154.743 93.6506 154.949 93.6359 155.139C93.6213 155.33 93.6359 155.53 93.6799 155.738C93.7532 156.093 93.8851 156.348 94.0786 156.504C94.2721 156.66 94.5154 156.742 94.8086 156.753C95.1017 156.765 95.4388 156.73 95.8258 156.651C96.0134 156.613 96.201 156.569 96.3886 156.522C96.5763 156.475 96.7756 156.416 96.9808 156.346C97.186 156.275 97.4147 156.184 97.6668 156.07L97.4323 155.163C97.189 155.236 96.9779 155.295 96.7961 155.345L96.7991 155.339Z" fill="#f9fafb"/>
<path d="M92.0177 152.636C91.8243 152.228 91.5546 151.953 91.2116 151.806C90.8686 151.659 90.4288 151.624 89.8924 151.697C89.3559 151.771 88.9425 151.923 88.6494 152.158C88.3592 152.39 88.1716 152.73 88.0924 153.176C88.0133 153.622 88.0221 154.203 88.1188 154.919C88.2155 155.635 88.3621 156.199 88.5585 156.604C88.7549 157.012 89.0246 157.287 89.3676 157.434C89.7106 157.581 90.1503 157.616 90.6868 157.543C91.2233 157.469 91.6366 157.317 91.9298 157.082C92.22 156.85 92.4047 156.51 92.4838 156.067C92.5601 155.621 92.5513 155.043 92.4545 154.327C92.3578 153.611 92.2112 153.047 92.0177 152.639V152.636ZM91.2438 156.073C91.194 156.222 91.1119 156.337 91.0005 156.413C90.8891 156.489 90.7454 156.539 90.5666 156.563C90.3819 156.589 90.2236 156.58 90.0946 156.536C89.9657 156.492 89.8543 156.407 89.7605 156.275C89.6666 156.143 89.5904 155.955 89.5259 155.706C89.4614 155.456 89.4028 155.136 89.35 154.746C89.2973 154.362 89.268 154.039 89.265 153.781C89.2592 153.523 89.2855 153.317 89.3383 153.164C89.3911 153.012 89.4761 152.9 89.5904 152.824C89.7048 152.748 89.8543 152.698 90.0389 152.672C90.2178 152.648 90.3702 152.657 90.4992 152.701C90.6282 152.745 90.7367 152.833 90.8246 152.962C90.9155 153.094 90.9917 153.285 91.0562 153.537C91.1207 153.79 91.1793 154.106 91.2321 154.491C91.2848 154.881 91.3142 155.204 91.32 155.462C91.3259 155.718 91.3024 155.923 91.2497 156.073H91.2438Z" fill="#f9fafb"/>
<path d="M86.7293 156.885C86.5416 156.909 86.3657 156.929 86.1986 156.944C86.0315 156.959 85.8527 156.974 85.6622 156.985C85.4921 156.997 85.3514 157 85.2342 156.991C85.1169 156.982 85.029 156.953 84.9674 156.903C84.9058 156.853 84.8677 156.768 84.856 156.648C84.8355 156.451 84.9058 156.213 85.0641 155.932C85.2224 155.65 85.457 155.327 85.7648 154.96L87.0664 153.352C87.1221 153.276 87.1602 153.197 87.1807 153.109C87.2012 153.021 87.21 152.93 87.2012 152.83L87.1543 152.158L83.1088 152.443L83.185 153.54L84.9293 153.417C85.07 153.408 85.2107 153.393 85.3514 153.376C85.4892 153.358 85.627 153.332 85.7618 153.302L84.387 154.94C84.1554 155.225 83.9795 155.471 83.8593 155.676C83.7391 155.882 83.6599 156.078 83.6218 156.266C83.5837 156.454 83.572 156.654 83.5867 156.865C83.613 157.226 83.7098 157.496 83.8827 157.675C84.0557 157.854 84.2844 157.968 84.5746 158.018C84.8648 158.068 85.2049 158.077 85.5977 158.05C85.7882 158.039 85.9817 158.018 86.1752 157.998C86.3687 157.977 86.5709 157.945 86.7849 157.901C86.999 157.857 87.2364 157.798 87.5002 157.719L87.3859 156.789C87.1367 156.827 86.9169 156.859 86.7293 156.885Z" fill="#f9fafb"/>
<path d="M80.6991 152.378C80.3004 152.384 79.9721 152.437 79.717 152.537C79.462 152.636 79.2626 152.771 79.119 152.944C78.9753 153.118 78.8786 153.314 78.82 153.537C78.7643 153.76 78.7379 153.995 78.7408 154.241C78.7438 154.5 78.7789 154.732 78.8434 154.94C78.9079 155.148 79.0076 155.33 79.1483 155.486C79.289 155.641 79.4737 155.767 79.7082 155.864C79.9427 155.961 80.233 156.02 80.576 156.046L81.4056 156.122L81.3557 157.191L78.9988 157.229L78.9724 158.174L82.329 158.118L82.4287 155.6C82.4316 155.486 82.3964 155.389 82.3261 155.31C82.2528 155.23 82.159 155.186 82.0447 155.172L81.3382 155.101C81.086 155.09 80.875 155.072 80.702 155.051C80.5291 155.028 80.3883 154.99 80.2828 154.931C80.1743 154.872 80.0981 154.79 80.0483 154.685C79.9984 154.579 79.9779 154.435 79.9809 154.253C79.9896 154.065 80.0219 153.913 80.0747 153.787C80.1304 153.663 80.23 153.569 80.3795 153.508C80.5261 153.446 80.746 153.411 81.0333 153.408C81.2297 153.405 81.4554 153.408 81.7105 153.426C81.9655 153.44 82.2264 153.461 82.4961 153.481L82.5958 152.519C82.2557 152.469 81.9186 152.434 81.5873 152.407C81.2561 152.384 80.96 152.372 80.6962 152.378H80.6991Z" fill="#f9fafb"/>
<path d="M75.4605 153.845L73.5139 153.702L73.209 152.179L71.9309 152.085L73.1768 157.531C73.1973 157.631 73.2442 157.713 73.3175 157.78C73.3908 157.845 73.4817 157.883 73.5843 157.892L74.7715 157.98C74.8741 157.989 74.968 157.965 75.053 157.91C75.138 157.854 75.1966 157.78 75.2289 157.684L77.2663 152.478L75.9823 152.384L75.4575 153.845H75.4605ZM74.5253 156.454C74.4901 156.545 74.4608 156.636 74.4344 156.733C74.408 156.827 74.3846 156.918 74.3611 157.003L74.1413 156.985C74.1325 156.897 74.1178 156.803 74.1032 156.706C74.0885 156.61 74.0738 156.513 74.0592 156.419L73.7074 154.664L75.1292 154.77L74.5253 156.454Z" fill="#f9fafb"/>
<path d="M69.7674 151.653C69.3834 151.597 69.0551 151.58 68.7824 151.592C68.5098 151.603 68.2841 151.659 68.1052 151.756C67.9264 151.853 67.7828 152 67.6772 152.202C67.5717 152.402 67.4955 152.663 67.4515 152.983C67.3929 153.405 67.431 153.76 67.5658 154.045C67.7007 154.33 67.985 154.579 68.413 154.796L69.4449 155.298C69.6531 155.401 69.7938 155.5 69.87 155.6C69.9462 155.7 69.9726 155.844 69.9462 156.034C69.9286 156.158 69.9023 156.255 69.8642 156.322C69.826 156.39 69.7733 156.434 69.7029 156.46C69.6326 156.486 69.5446 156.495 69.4391 156.489C69.3335 156.483 69.2016 156.469 69.0521 156.445C68.7443 156.401 68.4306 156.354 68.1111 156.304C67.7916 156.255 67.5131 156.208 67.2756 156.169L67.0792 156.979C67.3753 157.114 67.6831 157.223 68.0026 157.296C68.3222 157.373 68.6212 157.431 68.8997 157.469C69.2691 157.522 69.5857 157.546 69.8554 157.54C70.1251 157.534 70.3508 157.487 70.5296 157.396C70.7114 157.305 70.855 157.164 70.9635 156.974C71.0719 156.78 71.1482 156.522 71.1951 156.196C71.2537 155.779 71.2127 155.43 71.069 155.148C70.9254 154.867 70.6527 154.62 70.2453 154.4L69.1635 153.848C69.0345 153.79 68.9319 153.734 68.8616 153.678C68.7883 153.619 68.7414 153.549 68.7179 153.467C68.6945 153.382 68.6915 153.276 68.7091 153.147C68.7297 152.994 68.7707 152.883 68.8323 152.807C68.8938 152.733 68.9847 152.689 69.1108 152.68C69.2368 152.672 69.4068 152.68 69.6238 152.713C69.7469 152.73 69.8935 152.754 70.0635 152.78C70.2306 152.807 70.4329 152.842 70.6674 152.883C70.9019 152.924 71.1775 152.971 71.497 153.021L71.7022 152.152C71.2772 151.994 70.8961 151.876 70.5589 151.803C70.2218 151.73 69.9609 151.68 69.7762 151.653H69.7674Z" fill="#f9fafb"/>
<path d="M65.7053 151.072L64.6411 156.641L65.8677 156.876L66.9318 151.307L65.7053 151.072Z" fill="#f9fafb"/>
<path d="M64.0187 150.723L63.2594 152.076L61.3627 151.609L61.3158 150.057L60.0728 149.752L60.3953 155.33C60.3982 155.433 60.4305 155.524 60.495 155.6C60.5565 155.676 60.6386 155.729 60.7412 155.753L61.8962 156.037C61.9959 156.061 62.0927 156.055 62.1835 156.014C62.2744 155.973 62.3448 155.911 62.3946 155.82L65.2704 151.028L64.0187 150.72V150.723ZM61.9021 154.491C61.8523 154.576 61.8083 154.661 61.7673 154.749C61.7262 154.837 61.6881 154.922 61.65 155.004L61.436 154.952C61.4419 154.864 61.4448 154.77 61.4448 154.67C61.4448 154.57 61.4448 154.473 61.4477 154.379L61.392 152.589L62.7786 152.93L61.9021 154.491Z" fill="#f9fafb"/>
<path d="M57.6103 148.992L56.4993 148.587C56.3967 148.549 56.2941 148.549 56.1915 148.581C56.0889 148.613 56.0127 148.678 55.9628 148.769L54.113 152.02C54.0573 152.129 53.9987 152.237 53.9401 152.352C53.8814 152.463 53.8257 152.575 53.7759 152.686L53.6293 152.633C53.6557 152.513 53.6821 152.396 53.7085 152.272C53.7349 152.152 53.7612 152.029 53.7906 151.906L54.4531 148.223C54.4736 148.12 54.4531 148.023 54.3974 147.932C54.3388 147.841 54.2596 147.777 54.157 147.742L53.0547 147.34C52.9463 147.301 52.8437 147.298 52.744 147.331C52.6443 147.366 52.571 147.425 52.5212 147.513L49.8359 152.202L51.0232 152.633L52.9199 149.109C52.9697 149 53.0284 148.88 53.0899 148.751C53.1515 148.622 53.2101 148.496 53.2658 148.378L53.4212 148.434C53.3919 148.563 53.3626 148.698 53.3362 148.836C53.3098 148.974 53.2834 149.109 53.26 149.241L52.6385 152.809C52.615 152.924 52.6267 153.027 52.6795 153.121C52.7323 153.214 52.8085 153.282 52.917 153.32L53.8902 153.672C53.9987 153.71 54.1042 153.71 54.2039 153.672C54.3065 153.634 54.3827 153.564 54.4384 153.461L56.2355 150.33C56.2941 150.218 56.3586 150.095 56.4319 149.969C56.5052 149.84 56.5726 149.719 56.64 149.602L56.7866 149.655C56.7455 149.802 56.7045 149.942 56.6693 150.074C56.6341 150.207 56.6019 150.333 56.5755 150.453L55.7869 154.362L56.9742 154.793L57.9152 149.47C57.9328 149.373 57.9152 149.276 57.8566 149.185C57.798 149.094 57.7188 149.03 57.6162 148.995L57.6103 148.992Z" fill="#f9fafb"/>
<path d="M50.9059 146.726C50.7945 146.442 50.5717 146.224 50.2463 146.072C49.9678 145.943 49.6864 145.814 49.4021 145.684C49.1177 145.555 48.8363 145.435 48.5578 145.321C48.2793 145.206 48.0154 145.103 47.7692 145.015L47.4379 145.866L49.4108 146.779C49.534 146.838 49.6131 146.911 49.6454 147.005C49.6776 147.099 49.6659 147.207 49.6073 147.331L49.1382 148.346L47.0686 147.386L46.6963 148.193L48.7688 149.153L48.3965 149.96C48.3379 150.083 48.2646 150.165 48.1737 150.201C48.0829 150.236 47.9744 150.227 47.8483 150.168L45.8754 149.256L45.4415 150.06C45.6673 150.195 45.9165 150.33 46.1862 150.468C46.4559 150.603 46.7314 150.738 47.0129 150.873C47.2943 151.008 47.5757 151.137 47.8542 151.266C48.1825 151.418 48.4903 151.445 48.7776 151.351C49.0649 151.254 49.2819 151.052 49.4284 150.738L50.8678 147.621C51.0115 147.313 51.0261 147.017 50.9118 146.732L50.9059 146.726Z" fill="#f9fafb"/>
<path d="M46.7666 144.757C46.6728 144.467 46.4647 144.235 46.1481 144.062C45.8783 143.915 45.6057 143.768 45.3302 143.624C45.0546 143.478 44.782 143.34 44.5093 143.208C44.2367 143.076 43.9817 142.958 43.7413 142.853L43.3572 143.683L45.2686 144.719C45.3888 144.784 45.4621 144.866 45.4885 144.96C45.5148 145.054 45.4943 145.162 45.4298 145.282L44.8992 146.265L42.8941 145.177L42.4719 145.957L44.4771 147.046L44.0549 147.827C43.9904 147.947 43.9113 148.023 43.8175 148.053C43.7237 148.082 43.6152 148.064 43.495 148L41.5837 146.964L41.1 147.739C41.3169 147.888 41.5573 148.038 41.8152 148.193C42.0732 148.349 42.34 148.499 42.6126 148.648C42.8853 148.801 43.1579 148.948 43.4276 149.094C43.7442 149.267 44.052 149.314 44.3452 149.235C44.6383 149.156 44.867 148.968 45.0311 148.663L46.664 145.643C46.8252 145.344 46.8604 145.051 46.7637 144.76L46.7666 144.757Z" fill="#f9fafb"/>
<path d="M42.1025 141.773L41.0618 143.428C40.9798 143.557 40.9065 143.707 40.842 143.877C40.8332 143.897 40.8273 143.918 40.8215 143.935L40.3788 143.657L40.4638 140.74L39.2765 139.992L39.2648 142.879C39.259 142.991 39.2678 143.108 39.2971 143.228C39.3235 143.349 39.3586 143.448 39.3997 143.528L39.3879 143.548C39.3029 143.551 39.2091 143.566 39.1124 143.586C39.0156 143.61 38.913 143.645 38.8104 143.698L36.3421 144.842L37.4883 145.564L39.9186 144.399L40.3554 144.675C40.326 144.707 40.2938 144.737 40.2674 144.769C40.1472 144.91 40.0358 145.059 39.9361 145.215L39.0831 146.571L40.1384 147.237L43.1579 142.442L42.1025 141.776V141.773Z" fill="#f9fafb"/>
<path d="M34.1082 142.031C33.9734 141.931 33.8298 141.826 33.6773 141.708C33.5425 141.605 33.434 141.515 33.3519 141.429C33.2698 141.347 33.2229 141.265 33.2112 141.189C33.1995 141.11 33.2259 141.022 33.2933 140.922C33.4076 140.76 33.6158 140.628 33.9206 140.52C34.2255 140.414 34.6125 140.323 35.0874 140.25L37.1248 139.898C37.2157 139.877 37.2978 139.842 37.371 139.789C37.4443 139.739 37.5118 139.672 37.5704 139.595L37.9779 139.058L34.7444 136.608L34.0819 137.485L35.4773 138.542C35.5916 138.627 35.7059 138.709 35.8203 138.788C35.9346 138.868 36.0548 138.938 36.1779 139.003L34.0672 139.331C33.7037 139.393 33.4105 139.463 33.1848 139.54C32.9591 139.616 32.7715 139.713 32.619 139.827C32.4666 139.942 32.3259 140.085 32.1969 140.256C31.98 140.543 31.8744 140.813 31.8861 141.063C31.8979 141.312 31.9946 141.55 32.1822 141.776C32.3669 142.002 32.619 142.233 32.9327 142.471C33.0851 142.586 33.2405 142.7 33.4018 142.812C33.5601 142.923 33.7359 143.032 33.9236 143.14C34.1112 143.249 34.331 143.36 34.5832 143.475L35.1079 142.697C34.8939 142.562 34.7092 142.442 34.5509 142.336C34.3926 142.231 34.249 142.128 34.1141 142.031H34.1082Z" fill="#f9fafb"/>
<path d="M32.4373 138.398C32.9093 137.852 33.2347 137.371 33.4135 136.957C33.5923 136.543 33.6216 136.159 33.5044 135.804C33.3871 135.449 33.1233 135.094 32.7158 134.739C32.3054 134.384 31.9184 134.175 31.549 134.108C31.1826 134.043 30.8044 134.128 30.4174 134.36C30.0305 134.595 29.5996 134.985 29.1276 135.531C28.6556 136.077 28.3302 136.558 28.1543 136.975C27.9784 137.392 27.9491 137.776 28.0664 138.131C28.1836 138.486 28.4445 138.841 28.8549 139.196C29.2654 139.551 29.6523 139.76 30.0217 139.827C30.3881 139.892 30.7663 139.807 31.1503 139.572C31.5344 139.337 31.9624 138.947 32.4373 138.398ZM30.8308 138.292C30.6402 138.466 30.4731 138.583 30.3266 138.645C30.18 138.706 30.0422 138.721 29.9103 138.686C29.7813 138.653 29.6465 138.577 29.5087 138.46C29.368 138.336 29.2712 138.213 29.2155 138.087C29.1628 137.961 29.154 137.82 29.1921 137.664C29.2302 137.509 29.3211 137.324 29.4647 137.113C29.6083 136.901 29.8106 136.646 30.0686 136.347C30.3236 136.053 30.5464 135.819 30.737 135.643C30.9275 135.466 31.0976 135.349 31.2471 135.29C31.3966 135.232 31.5373 135.22 31.6692 135.255C31.8011 135.29 31.9389 135.37 32.0796 135.49C32.2174 135.607 32.3112 135.731 32.3611 135.854C32.4138 135.977 32.4197 136.118 32.3786 136.271C32.3405 136.426 32.2467 136.608 32.1001 136.822C31.9536 137.036 31.7542 137.292 31.4992 137.585C31.2412 137.885 31.0184 138.119 30.8279 138.292H30.8308Z" fill="#f9fafb"/>
<path d="M26.3543 133.911C26.668 133.847 27.0667 133.809 27.5475 133.797L29.6142 133.715C29.708 133.706 29.793 133.682 29.8722 133.641C29.9513 133.6 30.0246 133.544 30.095 133.474L30.567 132.996L27.6823 130.143L26.9084 130.927L28.1514 132.156C28.251 132.256 28.3566 132.353 28.4592 132.444C28.5618 132.535 28.6732 132.623 28.7846 132.702L26.6475 132.749C26.2811 132.764 25.9791 132.793 25.7446 132.84C25.5101 132.887 25.3107 132.958 25.1466 133.051C24.9824 133.145 24.8241 133.269 24.6716 133.421C24.4166 133.679 24.2818 133.932 24.2583 134.178C24.2378 134.425 24.3023 134.674 24.4576 134.924C24.613 135.173 24.83 135.434 25.1084 135.713C25.2433 135.848 25.384 135.98 25.5277 136.112C25.6713 136.244 25.8296 136.373 26.0026 136.508C26.1755 136.64 26.3778 136.781 26.6123 136.925L27.2338 136.224C27.0403 136.062 26.8703 135.918 26.7296 135.795C26.5889 135.669 26.457 135.549 26.3368 135.434C26.2166 135.32 26.0876 135.194 25.9527 135.059C25.8325 134.938 25.7358 134.833 25.6654 134.742C25.5951 134.651 25.5599 134.563 25.557 134.483C25.557 134.404 25.5951 134.319 25.6742 134.231C25.8091 134.087 26.0348 133.982 26.3485 133.917L26.3543 133.911Z" fill="#f9fafb"/>
<path d="M25 131.455C25.0117 131.349 24.9853 131.247 24.9208 131.15L24.5104 130.569C24.355 130.369 24.229 130.199 24.1322 130.052C24.0355 129.909 23.9739 129.774 23.9476 129.656C23.9212 129.536 23.9329 129.424 23.9798 129.319C24.0296 129.213 24.1205 129.102 24.2612 128.984C24.4078 128.867 24.5456 128.791 24.6746 128.752C24.8036 128.714 24.9413 128.729 25.085 128.799C25.2286 128.87 25.3957 129.014 25.5892 129.228C25.7211 129.374 25.8648 129.551 26.0202 129.753C26.1755 129.956 26.3338 130.167 26.4921 130.384L27.2836 129.829C27.099 129.539 26.9055 129.263 26.7091 128.996C26.5126 128.729 26.325 128.497 26.1491 128.3C25.8824 128.004 25.6273 127.79 25.384 127.661C25.1407 127.532 24.9091 127.473 24.6863 127.476C24.4635 127.482 24.2495 127.535 24.0443 127.637C23.8391 127.74 23.6456 127.875 23.4609 128.039C23.2704 128.209 23.115 128.388 23.0007 128.573C22.8863 128.758 22.816 128.952 22.7867 129.16C22.7603 129.369 22.7867 129.592 22.8688 129.832C22.9508 130.073 23.0945 130.331 23.2997 130.61L23.7863 131.288L22.9479 131.951L21.3766 130.193L20.6467 130.792L22.8863 133.295L24.8505 131.722C24.9384 131.649 24.9912 131.561 25.0029 131.455H25Z" fill="#f9fafb"/>
<path d="M23.0183 124.738L21.5759 125.307L20.4004 123.749L21.3414 122.517L20.5704 121.492L17.3018 126.02C17.2402 126.103 17.208 126.191 17.208 126.29C17.208 126.39 17.2402 126.481 17.3018 126.563L18.02 127.514C18.0816 127.596 18.1607 127.652 18.2575 127.678C18.3542 127.705 18.448 127.699 18.5447 127.664L23.798 125.765L23.0212 124.735L23.0183 124.738ZM18.7294 126.44C18.6415 126.481 18.5565 126.525 18.4773 126.563L18.3425 126.387C18.404 126.323 18.4656 126.252 18.5272 126.176C18.5916 126.1 18.6532 126.026 18.7148 125.953L19.8024 124.53L20.6613 125.668L18.9962 126.326C18.9053 126.361 18.8174 126.399 18.7294 126.44Z" fill="#f9fafb"/>
<path d="M17.6975 122.863C17.8148 122.569 17.8207 122.2 17.7151 121.751L17.4161 120.571C17.3721 120.436 17.3487 120.322 17.3457 120.231C17.3399 120.14 17.3633 120.057 17.4102 119.984C17.4571 119.911 17.5363 119.837 17.6448 119.767C17.7737 119.682 17.8851 119.638 17.9819 119.635C18.0786 119.632 18.1695 119.673 18.2604 119.761C18.3513 119.849 18.4568 119.984 18.577 120.169C18.6473 120.275 18.7265 120.398 18.8174 120.542C18.9083 120.685 19.0138 120.859 19.1369 121.064C19.26 121.266 19.4095 121.507 19.5796 121.78L20.3652 121.363C20.204 120.938 20.0398 120.574 19.8727 120.272C19.7056 119.969 19.5708 119.741 19.4682 119.585C19.2542 119.259 19.0548 118.998 18.8643 118.801C18.6737 118.605 18.4832 118.473 18.2926 118.399C18.1021 118.329 17.8969 118.317 17.677 118.37C17.4571 118.423 17.2109 118.537 16.9412 118.713C16.5835 118.948 16.3432 119.209 16.22 119.5C16.0969 119.79 16.094 120.169 16.2142 120.633L16.5161 121.742C16.5777 121.965 16.5953 122.138 16.5718 122.261C16.5484 122.384 16.4546 122.499 16.2963 122.605C16.1907 122.672 16.0998 122.716 16.0266 122.731C15.9533 122.745 15.8829 122.737 15.8155 122.701C15.751 122.666 15.6836 122.605 15.6191 122.519C15.5546 122.434 15.4784 122.329 15.3963 122.2C15.2262 121.938 15.0533 121.671 14.8833 121.399C14.7103 121.126 14.5608 120.885 14.4347 120.682L13.696 121.067C13.7898 121.378 13.9129 121.68 14.0683 121.974C14.2237 122.264 14.3761 122.528 14.5285 122.76C14.7337 123.071 14.9243 123.326 15.1061 123.526C15.2878 123.726 15.4725 123.861 15.6601 123.94C15.8477 124.016 16.05 124.034 16.264 123.987C16.478 123.94 16.7243 123.828 16.9998 123.646C17.3516 123.415 17.5861 123.153 17.7034 122.863H17.6975Z" fill="#f9fafb"/>
<path d="M17.219 116.142L12.3359 119.014L12.9686 120.092L17.8517 117.219L17.219 116.142Z" fill="#f9fafb"/>
<path d="M16.3754 114.646L14.8598 114.969L13.9598 113.235L15.0943 112.175L14.5022 111.037L10.527 114.96C10.4537 115.031 10.4068 115.113 10.3892 115.213C10.3716 115.312 10.3892 115.406 10.4361 115.497L10.9843 116.554C11.0312 116.645 11.1016 116.712 11.1925 116.756C11.2833 116.797 11.3771 116.809 11.4768 116.788L16.9705 115.788L16.3754 114.643V114.646ZM11.8667 115.612C11.7729 115.638 11.682 115.664 11.597 115.691L11.4944 115.494C11.5648 115.439 11.6381 115.38 11.7113 115.315C11.7846 115.251 11.8608 115.189 11.9312 115.127L13.2387 113.907L13.8983 115.174L12.1481 115.544C12.0514 115.562 11.9576 115.585 11.8638 115.612H11.8667Z" fill="#f9fafb"/>
<path d="M13.4556 108.983C13.4849 108.88 13.482 108.777 13.4409 108.674L13.01 107.574C12.969 107.471 12.9045 107.392 12.8136 107.339C12.7227 107.284 12.623 107.269 12.5204 107.289L8.85896 108.044C8.7417 108.073 8.6215 108.102 8.49838 108.132C8.37526 108.161 8.25506 108.193 8.14073 108.228L8.08503 108.082C8.19057 108.023 8.29904 107.961 8.4075 107.903C8.51597 107.841 8.62737 107.782 8.73583 107.721L11.9371 105.787C12.0279 105.734 12.0895 105.655 12.1188 105.552C12.1481 105.449 12.1452 105.347 12.1042 105.244L11.6762 104.149C11.6351 104.044 11.5677 103.962 11.4768 103.909C11.3859 103.856 11.2921 103.841 11.1925 103.862L5.90104 104.939L6.36129 106.119L10.2573 105.218C10.3746 105.182 10.5006 105.147 10.6384 105.109C10.7762 105.071 10.9081 105.033 11.0342 104.995L11.0928 105.147C10.9755 105.212 10.8583 105.279 10.7351 105.35C10.612 105.42 10.4948 105.491 10.3804 105.558L7.29352 107.448C7.19385 107.507 7.12349 107.583 7.08538 107.683C7.04727 107.782 7.0502 107.885 7.09124 107.994L7.46941 108.959C7.51045 109.068 7.58081 109.144 7.67755 109.197C7.77429 109.247 7.87689 109.258 7.99122 109.232L11.5296 108.516C11.6527 108.487 11.7876 108.454 11.9312 108.425C12.0748 108.396 12.2126 108.366 12.3416 108.34L12.3973 108.487C12.2595 108.554 12.1276 108.616 12.0045 108.677C11.8814 108.736 11.767 108.798 11.6615 108.856L8.20816 110.846L8.66841 112.026L13.2826 109.22C13.3677 109.17 13.4263 109.091 13.4556 108.988V108.983Z" fill="#f9fafb"/>
<path d="M6.73067 103.674L10.0198 102.7C10.3452 102.603 10.5768 102.418 10.7175 102.145C10.8583 101.872 10.8759 101.564 10.7732 101.215C10.6853 100.922 10.5974 100.625 10.5065 100.326C10.4156 100.027 10.3218 99.736 10.2221 99.4514C10.1224 99.1667 10.0257 98.8997 9.9319 98.6561L9.07589 98.9701L9.69444 101.059C9.73255 101.192 9.72962 101.3 9.67979 101.385C9.62995 101.47 9.54201 101.535 9.41009 101.573L8.34008 101.89L7.69221 99.7008L6.84206 99.9531L7.48993 102.142L6.63979 102.395C6.50787 102.433 6.3994 102.43 6.31146 102.386C6.22351 102.342 6.16195 102.251 6.12091 102.122L5.50235 100.035L4.61117 100.238C4.661 100.499 4.72257 100.775 4.79585 101.065C4.86914 101.356 4.95123 101.652 5.03624 101.954C5.12125 102.254 5.2092 102.553 5.29422 102.847C5.39682 103.193 5.57857 103.442 5.84241 103.598C6.10625 103.753 6.40233 103.78 6.73067 103.683V103.674Z" fill="#f9fafb"/>
<path d="M5.38802 99.0024L8.7329 98.2394C9.06417 98.1631 9.30748 97.9958 9.46285 97.7317C9.61823 97.4676 9.65634 97.1595 9.57718 96.8074C9.50976 96.5081 9.4394 96.2058 9.36611 95.9035C9.29283 95.6013 9.21954 95.302 9.13745 95.0115C9.0583 94.7209 8.97622 94.451 8.89707 94.1986L8.02054 94.4568L8.50424 96.5785C8.53356 96.7135 8.52183 96.8191 8.46906 96.9013C8.4163 96.9834 8.32249 97.0392 8.18764 97.0715L7.10004 97.3209L6.59288 95.0936L5.72808 95.2902L6.23524 97.5175L5.37044 97.7141C5.23852 97.7435 5.12712 97.7347 5.0421 97.6848C4.95709 97.6349 4.90139 97.541 4.86914 97.409L4.38544 95.2873L3.48546 95.434C3.51771 95.6952 3.56168 95.9769 3.61738 96.2733C3.67308 96.5697 3.73464 96.869 3.80206 97.1742C3.86949 97.4794 3.93692 97.7816 4.00434 98.0809C4.08349 98.4331 4.25059 98.6943 4.5027 98.8645C4.75481 99.0347 5.04797 99.0816 5.38509 99.0053L5.38802 99.0024Z" fill="#f9fafb"/>
<path d="M8.62737 92.256L6.69842 92.5641C6.54598 92.5875 6.38768 92.6316 6.21765 92.6961C6.19713 92.7049 6.17954 92.7108 6.15902 92.7196L6.07693 92.2031L8.32542 90.3426L8.10555 88.9546L5.93036 90.8474C5.84241 90.9178 5.76033 91.0029 5.68704 91.1027C5.61375 91.2025 5.56392 91.2934 5.53167 91.3785H5.50822C5.44959 91.3198 5.3763 91.2582 5.29715 91.1995C5.21506 91.1408 5.12125 91.088 5.01572 91.044L2.52978 89.9436L2.74378 91.2817L5.22386 92.341L5.30594 92.8546C5.26197 92.8546 5.22093 92.8487 5.17695 92.8487C4.99227 92.8487 4.80758 92.8663 4.62289 92.8957L3.0428 93.148L3.23921 94.3805L8.83257 93.4884L8.63616 92.256H8.62737Z" fill="#f9fafb"/>
<path d="M3.21869 86.9386C3.19524 86.7508 3.17472 86.5748 3.16006 86.4075C3.1454 86.2402 3.13074 86.0612 3.11609 85.8705C3.10436 85.7003 3.10143 85.5594 3.11022 85.442C3.11902 85.3247 3.14833 85.2366 3.19817 85.175C3.24801 85.1134 3.33302 85.0752 3.45321 85.0605C3.64963 85.04 3.88708 85.1104 4.16851 85.2689C4.44993 85.4274 4.7724 85.6592 5.14178 85.9673L6.75119 87.2673C6.82741 87.3231 6.90656 87.3612 6.9945 87.3817C7.08245 87.4023 7.17333 87.4111 7.273 87.4023L7.94432 87.3524L7.65117 83.3028L6.55477 83.382L6.68083 85.128C6.69256 85.2689 6.70428 85.4098 6.7248 85.5506C6.74532 85.6915 6.76878 85.8265 6.80102 85.9614L5.1623 84.591C4.87794 84.3592 4.63169 84.1831 4.42355 84.0628C4.21834 83.9425 4.02193 83.8633 3.83431 83.8251C3.64669 83.787 3.44735 83.7752 3.23628 83.7899C2.8757 83.8163 2.606 83.9161 2.42718 84.0863C2.24835 84.2594 2.13402 84.4883 2.08712 84.7788C2.04021 85.0694 2.03142 85.4098 2.0578 85.803C2.07246 85.9937 2.09005 86.1874 2.11057 86.3811C2.13402 86.5747 2.16627 86.7772 2.20731 86.9915C2.24835 87.2057 2.31285 87.4434 2.392 87.7075L3.32129 87.5901C3.28025 87.3407 3.24801 87.1206 3.22455 86.9328L3.21869 86.9386Z" fill="#f9fafb"/>
<path d="M3.07504 82.578C3.50598 82.7071 4.08349 82.7658 4.80758 82.754C5.52874 82.7423 6.10332 82.666 6.53132 82.5193C6.95932 82.3755 7.2642 82.1407 7.45182 81.8179C7.63651 81.4951 7.72739 81.0608 7.71859 80.5179C7.7098 79.9751 7.60719 79.5466 7.41078 79.2297C7.21437 78.9128 6.90069 78.6868 6.46683 78.5548C6.03589 78.4227 5.45838 78.3611 4.73722 78.3728C4.01607 78.3846 3.44149 78.4638 3.01348 78.6105C2.58548 78.7572 2.2806 78.992 2.09298 79.3148C1.90829 79.6376 1.81742 80.0719 1.82621 80.6148C1.83501 81.1577 1.93761 81.5861 2.13402 81.903C2.33044 82.22 2.64411 82.443 3.07504 82.575V82.578ZM2.89036 80.1453C2.94899 80.022 3.04866 79.9222 3.18937 79.8459C3.33009 79.7696 3.52943 79.7139 3.78154 79.6816C4.03659 79.6464 4.35906 79.6258 4.75188 79.62C5.14177 79.6141 5.46424 79.6229 5.72222 79.6493C5.98019 79.6757 6.17954 79.7227 6.32318 79.7961C6.46683 79.8665 6.56943 79.9633 6.63099 80.0866C6.69256 80.2098 6.7248 80.3624 6.72773 80.5502C6.72773 80.7322 6.70428 80.8818 6.64565 81.0021C6.58702 81.1224 6.48735 81.2222 6.34663 81.2956C6.20592 81.3689 6.00658 81.4218 5.7486 81.457C5.49063 81.4922 5.16816 81.5127 4.7812 81.5186C4.38837 81.5245 4.06297 81.5157 3.80793 81.4893C3.55288 81.4629 3.35354 81.4159 3.2099 81.3484C3.06625 81.2809 2.96365 81.1841 2.90208 81.0667C2.84052 80.9464 2.80828 80.7967 2.80534 80.6177C2.80241 80.4328 2.8288 80.2773 2.88743 80.1511L2.89036 80.1453Z" fill="#f9fafb"/>
<path d="M2.05194 77.4015L2.99003 77.4074C2.98124 77.155 2.9783 76.9349 2.9783 76.7442C2.9783 76.5534 2.98124 76.3773 2.99003 76.2101C2.99589 76.0428 3.00469 75.8638 3.01641 75.6731C3.02521 75.5029 3.0428 75.362 3.06625 75.2476C3.0897 75.1331 3.13074 75.051 3.18937 74.9952C3.24801 74.9424 3.33595 74.916 3.45614 74.916C3.65256 74.9218 3.88122 75.0216 4.13626 75.2153C4.39423 75.409 4.68446 75.6819 5.00986 76.034L6.43751 77.5335C6.50494 77.5981 6.58116 77.6451 6.66324 77.6773C6.74532 77.7096 6.8362 77.7272 6.93587 77.7331L7.60719 77.7712L7.84172 73.7187L6.74239 73.6541L6.64272 75.4002C6.63393 75.541 6.63099 75.6819 6.63099 75.8227C6.63099 75.9636 6.63686 76.1015 6.65151 76.2394L5.20627 74.6665C4.95416 74.3995 4.73136 74.1941 4.54374 74.0474C4.35612 73.9006 4.17144 73.7979 3.98968 73.7363C3.81086 73.6747 3.61445 73.6365 3.40045 73.6248C3.03987 73.6042 2.75844 73.6688 2.5591 73.8155C2.35975 73.9623 2.21611 74.1765 2.13109 74.4582C2.04608 74.7399 1.99331 75.0744 1.96986 75.4706C1.95813 75.6613 1.95227 75.855 1.94934 76.0487C1.94934 76.2424 1.94934 76.4507 1.96693 76.6679C1.98158 76.885 2.0109 77.1315 2.05487 77.4015H2.05194Z" fill="#f9fafb"/>
<path d="M5.08314 72.583C5.17109 72.5214 5.22972 72.4363 5.25904 72.3219L5.4232 71.6293C5.47011 71.3799 5.51408 71.1716 5.56098 71.0043C5.60496 70.837 5.66359 70.702 5.73688 70.6023C5.81016 70.5025 5.90104 70.4379 6.01244 70.4027C6.12384 70.3704 6.27042 70.3675 6.44631 70.3939C6.63099 70.4262 6.7805 70.479 6.89483 70.5524C7.00916 70.6257 7.08831 70.7372 7.13229 70.8898C7.17333 71.0424 7.17919 71.2654 7.14401 71.553C7.12056 71.7496 7.08538 71.9727 7.03555 72.2221C6.98571 72.4715 6.93294 72.7298 6.87431 72.9939L7.81533 73.2228C7.90914 72.8912 7.99122 72.5654 8.06158 72.2397C8.13194 71.914 8.18178 71.6205 8.21109 71.3594C8.25799 70.9632 8.2492 70.6316 8.18471 70.3646C8.12021 70.0975 8.01175 69.8804 7.86224 69.716C7.7098 69.5517 7.52804 69.4255 7.31697 69.3404C7.10297 69.2553 6.87431 69.1966 6.63099 69.1673C6.37595 69.1379 6.14143 69.1379 5.92743 69.1731C5.71342 69.2084 5.51994 69.2847 5.34698 69.402C5.17402 69.5194 5.02451 69.6867 4.89846 69.9068C4.7724 70.1269 4.67273 70.4056 4.59944 70.7431L4.41182 71.556L3.3594 71.3623L3.64083 69.0206L2.7086 68.868L2.30991 72.2045L4.78706 72.6417C4.90139 72.6593 5.00106 72.6417 5.08901 72.5772L5.08314 72.583Z" fill="#f9fafb"/>
<path d="M8.68893 66.5673C8.77101 66.4998 8.82378 66.4118 8.85016 66.3032L9.11107 65.1499C9.13452 65.0443 9.12573 64.9416 9.07882 64.8448C9.03192 64.7479 8.96156 64.6804 8.86482 64.6393L5.40854 63.2073C5.29421 63.1633 5.17695 63.1222 5.05969 63.0782C4.9395 63.0342 4.82224 62.9931 4.70791 62.9579L4.74309 62.8053C4.86328 62.817 4.9864 62.8258 5.10953 62.8376C5.23265 62.8493 5.35871 62.861 5.48476 62.8728L9.21954 63.0694C9.32507 63.0753 9.41888 63.0459 9.50096 62.9784C9.58305 62.9109 9.63581 62.8229 9.6622 62.7143L9.92017 61.5669C9.94656 61.4554 9.93483 61.3527 9.89086 61.2559C9.84395 61.162 9.77653 61.0945 9.68272 61.0563L4.69911 58.9758L4.42062 60.2112L8.14953 61.655C8.26386 61.6931 8.38991 61.7342 8.52476 61.7782C8.65961 61.8222 8.79153 61.8662 8.91759 61.9044L8.88241 62.0658C8.75049 62.054 8.61271 62.0423 8.472 62.0335C8.33128 62.0247 8.1935 62.0159 8.06158 62.0071L4.447 61.8369C4.33267 61.8281 4.23007 61.8545 4.14212 61.9161C4.05418 61.9777 3.99848 62.0658 3.97209 62.1773L3.74343 63.1868C3.71705 63.2983 3.73171 63.4039 3.78154 63.4978C3.83138 63.5917 3.91346 63.6622 4.02193 63.7032L7.34922 65.0971C7.46941 65.1411 7.59547 65.191 7.73325 65.2468C7.8681 65.3025 8.00002 65.3554 8.12314 65.4052L8.08797 65.5578C7.93553 65.5344 7.79188 65.5138 7.65703 65.4933C7.52218 65.4727 7.39319 65.4581 7.273 65.4493L3.30077 65.1558L3.02228 66.3912L8.41337 66.6612C8.51304 66.6671 8.60392 66.6348 8.686 66.5673H8.68893Z" fill="#f9fafb"/>
<path d="M6.10039 58.3918L9.36904 59.4335C9.69151 59.5362 9.9876 59.5128 10.2573 59.366C10.5241 59.2193 10.7146 58.9728 10.8231 58.6295C10.9169 58.336 11.0078 58.0426 11.1016 57.7433C11.1925 57.4439 11.2775 57.1505 11.3566 56.86C11.4358 56.5695 11.5032 56.2936 11.5618 56.0383L10.6765 55.8153L10.0169 57.89C9.97587 58.022 9.91138 58.1071 9.8205 58.1512C9.72962 58.1952 9.62409 58.1952 9.49217 58.1541L8.42802 57.8166L9.11986 55.6392L8.27558 55.3692L7.58374 57.5466L6.73946 57.2767C6.61047 57.2356 6.5196 57.171 6.47269 57.083C6.42579 56.995 6.42285 56.8864 6.4639 56.7573L7.12349 54.6826L6.27335 54.351C6.16781 54.5945 6.06521 54.8557 5.9626 55.1404C5.86 55.425 5.76033 55.7155 5.66359 56.0119C5.56685 56.3083 5.47011 56.6047 5.37923 56.8952C5.27076 57.2385 5.27956 57.5496 5.41148 57.8225C5.54339 58.0983 5.77205 58.2861 6.10039 58.3918Z" fill="#f9fafb"/>
<path d="M7.60426 53.7729L10.8026 55.02C11.1192 55.1433 11.4153 55.1404 11.6908 55.0083C11.9664 54.8792 12.1716 54.6444 12.3035 54.307C12.4149 54.0223 12.5263 53.7318 12.6377 53.4413C12.7491 53.1478 12.8517 52.8602 12.9484 52.5756C13.0452 52.291 13.1302 52.021 13.2064 51.7686L12.3358 51.4898L11.5472 53.5176C11.4973 53.6467 11.427 53.7289 11.3361 53.767C11.2452 53.8052 11.1368 53.7993 11.0078 53.7494L9.96708 53.3444L10.7967 51.2169L9.97001 50.8941L9.14039 53.0216L8.31369 52.6988C8.18764 52.649 8.10262 52.5785 8.06158 52.4905C8.02054 52.4025 8.02347 52.291 8.07331 52.1648L8.86189 50.137L8.03227 49.7526C7.91207 49.9874 7.79188 50.2427 7.67169 50.5214C7.5515 50.7973 7.43423 51.0819 7.3199 51.3725C7.20557 51.663 7.09124 51.9505 6.97985 52.2352C6.84793 52.5727 6.83913 52.8808 6.95346 53.1625C7.06779 53.4442 7.28473 53.6496 7.60426 53.7729Z" fill="#f9fafb"/>
<path d="M14.0654 50.0079L12.2976 49.1774C12.1599 49.1129 12.0016 49.0571 11.8257 49.016C11.8051 49.0102 11.7846 49.0072 11.7641 49.0014L11.9869 48.5289L14.8891 48.2531L15.4842 46.9795L12.6201 47.3258C12.5087 47.3346 12.3944 47.3581 12.2771 47.4021C12.1599 47.4432 12.0661 47.4901 11.9957 47.5429L11.9722 47.5312C11.9576 47.4461 11.9341 47.3551 11.899 47.2612C11.8638 47.1673 11.8169 47.0705 11.7524 46.9736L10.313 44.6642L9.73842 45.8908L11.1954 48.1621L10.9755 48.6316C10.9403 48.6052 10.9081 48.5788 10.87 48.5553C10.7146 48.4526 10.5534 48.3616 10.3863 48.2824L8.93811 47.6016L8.41043 48.7314L13.5406 51.1348L14.0683 50.005L14.0654 50.0079Z" fill="#f9fafb"/>
</svg>
