<?xml version="1.0" encoding="UTF-8"?>
<svg id="Layer_2" data-name="Layer 2" xmlns="http://www.w3.org/2000/svg" viewBox="0 0 139.69 122.93">
  <g id="_レイヤー_2" data-name="レイヤー 2">
    <g>
      <g>
        <path class="cls-1" d="M4,105.06v2.99l2.88-2.99h.68l-2.6,2.7,2.96,3.26h-.72l-2.61-2.88-.59.6v2.29h-.55v-5.97h.55Z"/>
        <path class="cls-1" d="M8.1,105.06h.63l1.9,3.06,1.9-3.06h.6l-2.24,3.57v2.4h-.55v-2.4l-2.24-3.57Z"/>
        <path class="cls-1" d="M14.37,105.06h.55v3.21c0,1.65.77,2.4,1.92,2.4s1.93-.75,1.93-2.4v-3.21h.55v3.2c0,2.01-.99,2.91-2.48,2.91s-2.47-.9-2.47-2.91v-3.2Z"/>
        <path class="cls-1" d="M20.91,109.94c.38.37,1,.73,1.75.73s1.33-.45,1.33-1.15c0-.67-.33-1.07-1.46-1.38-1.01-.28-1.57-.89-1.57-1.71s.71-1.49,1.8-1.49c.58,0,1.16.25,1.49.5l-.12.47c-.4-.28-.94-.48-1.37-.48-.78,0-1.24.42-1.24,1,0,.49.28.91,1.24,1.17,1.16.31,1.79.88,1.79,1.85,0,1.13-.96,1.71-1.89,1.71-.86,0-1.53-.35-1.86-.67l.11-.55Z"/>
        <path class="cls-1" d="M26.59,105.06v2.58h3.56v-2.58h.55v5.97h-.55v-2.89h-3.56v2.89h-.55v-5.97h.55Z"/>
        <path class="cls-1" d="M32.49,105.06h.55v3.21c0,1.65.77,2.4,1.92,2.4s1.93-.75,1.93-2.4v-3.21h.55v3.2c0,2.01-.99,2.91-2.48,2.91s-2.47-.9-2.47-2.91v-3.2Z"/>
        <path class="cls-1" d="M41.34,105.06h.55v3.21c0,1.65.77,2.4,1.92,2.4s1.93-.75,1.93-2.4v-3.21h.55v3.2c0,2.01-.99,2.91-2.48,2.91s-2.47-.9-2.47-2.91v-3.2Z"/>
        <path class="cls-1" d="M48.45,105.06l3.61,4.86v-4.86h.52v5.97h-.38l-3.61-4.86v4.86h-.52v-5.97h.38Z"/>
        <path class="cls-1" d="M54.91,105.06v5.97h-.55v-5.97h.55Z"/>
        <path class="cls-1" d="M56.78,105.06l2.12,5.13,2.1-5.13h.57l-2.47,5.97h-.45l-2.47-5.97h.6Z"/>
        <path class="cls-1" d="M66.21,105.06v.49h-2.83v2.1h2.34v.49h-2.34v2.41h2.83v.49h-3.38v-5.97h3.38Z"/>
        <path class="cls-1" d="M70.77,109.85c.38.69.75.79,1.23.79.08,0,.15,0,.23,0v.43c-.15.03-.3.04-.44.04-.64,0-1.15-.33-1.56-1.09l-.77-1.44h-1.11v2.47h-.55v-5.97h1.85c1.28,0,1.84.82,1.84,1.75,0,.85-.45,1.57-1.45,1.72l.73,1.32ZM70.95,106.81c0-.62-.31-1.26-1.29-1.26h-1.3v2.53h1.3c.98,0,1.29-.64,1.29-1.26Z"/>
        <path class="cls-1" d="M73.2,109.94c.38.37,1,.73,1.75.73s1.33-.45,1.33-1.15c0-.67-.33-1.07-1.46-1.38-1.01-.28-1.57-.89-1.57-1.71s.71-1.49,1.8-1.49c.58,0,1.16.25,1.49.5l-.12.47c-.4-.28-.94-.48-1.37-.48-.78,0-1.24.42-1.24,1,0,.49.28.91,1.24,1.17,1.16.31,1.79.88,1.79,1.85,0,1.13-.96,1.71-1.89,1.71-.86,0-1.53-.35-1.86-.67l.11-.55Z"/>
        <path class="cls-1" d="M78.87,105.06v5.97h-.55v-5.97h.55Z"/>
        <path class="cls-1" d="M80.11,105.55v-.49h4.8v.49h-2.13v5.48h-.55v-5.48h-2.13Z"/>
        <path class="cls-1" d="M85.59,105.06h.63l1.9,3.06,1.9-3.06h.6l-2.24,3.57v2.4h-.55v-2.4l-2.24-3.57Z"/>
        <path class="cls-1" d="M94.52,105.06v5.97h-.55v-5.97h.55Z"/>
        <path class="cls-1" d="M96.69,105.06l3.61,4.86v-4.86h.52v5.97h-.38l-3.61-4.86v4.86h-.52v-5.97h.38Z"/>
        <path class="cls-1" d="M102.42,109.94c.38.37,1,.73,1.75.73s1.33-.45,1.33-1.15c0-.67-.33-1.07-1.46-1.38-1.01-.28-1.57-.89-1.57-1.71s.71-1.49,1.8-1.49c.58,0,1.16.25,1.49.5l-.12.47c-.4-.28-.94-.48-1.37-.48-.78,0-1.24.42-1.24,1,0,.49.28.91,1.24,1.17,1.16.31,1.79.88,1.79,1.85,0,1.13-.96,1.71-1.89,1.71-.86,0-1.53-.35-1.86-.67l.11-.55Z"/>
        <path class="cls-1" d="M106.79,105.55v-.49h4.8v.49h-2.13v5.48h-.55v-5.48h-2.13Z"/>
        <path class="cls-1" d="M113.38,105.06v5.97h-.55v-5.97h.55Z"/>
        <path class="cls-1" d="M114.61,105.55v-.49h4.8v.49h-2.13v5.48h-.55v-5.48h-2.13Z"/>
        <path class="cls-1" d="M120.65,105.06h.55v3.21c0,1.65.77,2.4,1.92,2.4s1.93-.75,1.93-2.4v-3.21h.55v3.2c0,2.01-.99,2.91-2.48,2.91s-2.47-.9-2.47-2.91v-3.2Z"/>
        <path class="cls-1" d="M126.82,105.55v-.49h4.8v.49h-2.13v5.48h-.55v-5.48h-2.13Z"/>
        <path class="cls-1" d="M136.24,105.06v.49h-2.83v2.1h2.34v.49h-2.34v2.41h2.83v.49h-3.38v-5.97h3.38Z"/>
      </g>
      <g>
        <path class="cls-1" d="M2.12,116.77v.37c-.1-.02-.2-.04-.29-.04-.45,0-.63.19-.63.96v1.33h.91v.4h-.91v2.99h-.51v-2.99h-.7v-.4h.7v-1.33c0-.97.37-1.36,1.06-1.36.13,0,.26.03.36.07Z"/>
        <path class="cls-1" d="M4.9,122.92c-1.05,0-1.86-.83-1.86-1.84s.81-1.83,1.86-1.83,1.87.83,1.87,1.83-.8,1.84-1.87,1.84ZM4.9,119.69c-.79,0-1.35.58-1.35,1.39s.57,1.4,1.35,1.4,1.36-.58,1.36-1.4-.57-1.39-1.36-1.39Z"/>
        <path class="cls-1" d="M8.71,120.77v2.02h-.51v-3.37l.42-.09.06.69c.25-.39.79-.75,1.32-.75v.56c-.63-.1-1.29.35-1.29.94Z"/>
        <path class="cls-1" d="M13.52,122.79h-.57l2.47-5.97h.45l2.47,5.97h-.6l-.72-1.73h-2.79l-.71,1.73ZM15.62,117.64l-1.19,2.93h2.4l-1.2-2.93Z"/>
        <path class="cls-1" d="M19.42,121.7c.38.37,1,.73,1.75.73s1.33-.45,1.33-1.15c0-.67-.33-1.07-1.46-1.38-1.01-.28-1.57-.89-1.57-1.71s.71-1.49,1.8-1.49c.58,0,1.16.25,1.49.5l-.12.47c-.4-.28-.94-.48-1.37-.48-.78,0-1.24.42-1.24,1,0,.49.28.91,1.24,1.17,1.16.31,1.79.88,1.79,1.85,0,1.13-.96,1.71-1.89,1.71-.86,0-1.53-.35-1.86-.67l.11-.55Z"/>
        <path class="cls-1" d="M25.1,116.82v5.97h-.55v-5.97h.55Z"/>
        <path class="cls-1" d="M26.94,122.79h-.57l2.47-5.97h.45l2.47,5.97h-.6l-.72-1.73h-2.79l-.71,1.73ZM29.04,117.64l-1.19,2.93h2.4l-1.2-2.93Z"/>
        <path class="cls-1" d="M33.4,116.82l3.61,4.86v-4.86h.52v5.97h-.38l-3.61-4.86v4.86h-.52v-5.97h.38Z"/>
        <path class="cls-1" d="M43.91,122.86c-.36,0-.56-.17-.58-.63-.54.5-1.01.65-1.4.65-.47,0-.85-.33-.85-.84,0-.82,1.04-1.24,2.25-1.35v-.25c0-.54-.21-.76-.78-.76-.34,0-.88.2-1.23.42v-.47c.3-.17.9-.38,1.31-.38.72,0,1.2.27,1.2,1.18v1.77c0,.21.07.3.22.3.09,0,.17-.02.22-.05v.26c-.08.09-.21.14-.37.14ZM43.33,121.06c-1.09.1-1.77.48-1.77.94,0,.35.28.46.58.46.21,0,.7-.16,1.19-.62v-.79Z"/>
        <path class="cls-1" d="M48.24,122.79v-2.06c0-.73-.34-1-.85-1s-1.25.45-1.25,1.04v2.02h-.51v-3.37l.42-.09.06.69c.25-.39.81-.75,1.38-.75.91,0,1.25.64,1.25,1.43v2.09h-.51Z"/>
        <path class="cls-1" d="M53.74,122.86c-.35,0-.54-.19-.57-.57-.36.46-.85.63-1.34.63-.91,0-1.63-.79-1.63-1.83s.73-1.82,1.63-1.82c.51,0,.98.17,1.34.61v-3.03l.51-.09v5.46c0,.21.07.3.22.3.09,0,.16-.02.22-.05v.26c-.08.09-.21.14-.38.14ZM53.18,120.42c-.24-.44-.73-.73-1.24-.73-.66,0-1.22.49-1.22,1.39s.57,1.4,1.22,1.4c.52,0,.99-.3,1.24-.73v-1.34Z"/>
        <path class="cls-1" d="M60.42,116.67c1.75,0,3.05,1.31,3.05,3.13s-1.3,3.13-3.05,3.13-3.05-1.3-3.05-3.13,1.29-3.13,3.05-3.13ZM60.42,117.18c-1.44,0-2.49,1.05-2.49,2.63s1.04,2.62,2.49,2.62,2.49-1.05,2.49-2.62-1.06-2.63-2.49-2.63Z"/>
        <path class="cls-1" d="M67.74,116.69c.71,0,1.48.24,1.96.6v.58c-.49-.38-1.11-.67-1.96-.67-1.44,0-2.49,1.04-2.49,2.61s1.04,2.6,2.49,2.6c.85,0,1.47-.29,1.96-.67v.58c-.48.36-1.25.6-1.96.6-1.66,0-3.05-1.18-3.05-3.11s1.39-3.11,3.05-3.11Z"/>
        <path class="cls-1" d="M74.63,116.82v.49h-2.83v2.1h2.34v.49h-2.34v2.41h2.83v.49h-3.38v-5.97h3.38Z"/>
        <path class="cls-1" d="M76.27,122.79h-.57l2.47-5.97h.45l2.47,5.97h-.6l-.72-1.73h-2.79l-.71,1.73ZM78.37,117.64l-1.19,2.93h2.4l-1.2-2.93Z"/>
        <path class="cls-1" d="M82.73,116.82l3.61,4.86v-4.86h.52v5.97h-.38l-3.61-4.86v4.86h-.52v-5.97h.38Z"/>
        <path class="cls-1" d="M89.19,116.82v5.97h-.55v-5.97h.55Z"/>
        <path class="cls-1" d="M91.03,122.79h-.57l2.47-5.97h.45l2.47,5.97h-.6l-.72-1.73h-2.79l-.71,1.73ZM93.13,117.64l-1.19,2.93h2.4l-1.2-2.93Z"/>
        <path class="cls-1" d="M97.5,116.82l3.61,4.86v-4.86h.52v5.97h-.38l-3.61-4.86v4.86h-.52v-5.97h.38Z"/>
        <path class="cls-1" d="M105.34,121.7c.38.37,1,.73,1.75.73s1.33-.45,1.33-1.15c0-.67-.33-1.07-1.46-1.38-1.01-.28-1.57-.89-1.57-1.71s.71-1.49,1.8-1.49c.58,0,1.16.25,1.49.5l-.12.47c-.4-.28-.94-.48-1.37-.48-.78,0-1.24.42-1.24,1,0,.49.28.91,1.24,1.17,1.16.31,1.79.88,1.79,1.85,0,1.13-.96,1.71-1.89,1.71-.86,0-1.53-.35-1.86-.67l.11-.55Z"/>
        <path class="cls-1" d="M109.72,117.31v-.49h4.8v.49h-2.13v5.48h-.55v-5.48h-2.13Z"/>
        <path class="cls-1" d="M115.75,116.82h.55v3.21c0,1.65.77,2.4,1.92,2.4s1.93-.75,1.93-2.4v-3.21h.55v3.2c0,2.01-.99,2.91-2.48,2.91s-2.47-.9-2.47-2.91v-3.2Z"/>
        <path class="cls-1" d="M124.24,116.82c2.24,0,3.19,1.34,3.19,2.98s-.95,2.98-3.19,2.98h-1.75v-5.97h1.75ZM126.86,119.8c0-1.3-.65-2.47-2.61-2.47h-1.21v4.93h1.21c1.97,0,2.61-1.16,2.61-2.47Z"/>
        <path class="cls-1" d="M129.48,116.82v5.97h-.55v-5.97h.55Z"/>
        <path class="cls-1" d="M134.65,116.82v.49h-2.83v2.1h2.34v.49h-2.34v2.41h2.83v.49h-3.38v-5.97h3.38Z"/>
        <path class="cls-1" d="M136.05,121.7c.38.37,1,.73,1.75.73s1.33-.45,1.33-1.15c0-.67-.33-1.07-1.46-1.38-1.01-.28-1.57-.89-1.57-1.71s.71-1.49,1.8-1.49c.58,0,1.16.25,1.49.5l-.12.47c-.4-.28-.94-.48-1.37-.48-.78,0-1.24.42-1.24,1,0,.49.28.91,1.24,1.17,1.16.31,1.79.88,1.79,1.85,0,1.13-.96,1.71-1.89,1.71-.86,0-1.53-.35-1.86-.67l.11-.55Z"/>
      </g>
      <g>
        <g>
          <path class="cls-1" d="M60.75,44.82v-1.08h2.98v1.08h-2.98Z"/>
          <path class="cls-1" d="M71.64,48.74l-.87-2.11h-3.46l-.87,2.11h-1.68l3.64-8.55h1.35l3.64,8.55h-1.74ZM69.04,42.31l-1.27,3.11h2.52l-1.25-3.11Z"/>
          <path class="cls-1" d="M78.4,48.98c-2.62,0-4.66-1.9-4.66-4.52s2.04-4.52,4.66-4.52,4.62,1.9,4.62,4.52-2.01,4.52-4.62,4.52ZM78.4,41.33c-1.71,0-2.84,1.28-2.84,3.14s1.13,3.14,2.84,3.14,2.79-1.28,2.79-3.14-1.11-3.14-2.79-3.14Z"/>
          <path class="cls-1" d="M87.31,48.91c-1.43,0-2.45-.56-3.04-1.07l.4-1.37c.57.54,1.47,1.16,2.64,1.16.86,0,1.51-.43,1.51-1.18,0-.71-.4-1.08-1.8-1.43-1.8-.44-2.51-1.4-2.51-2.62,0-1.4,1.11-2.41,2.95-2.41,1.06,0,2,.4,2.57.84l-.37,1.21c-.6-.4-1.45-.74-2.21-.74-.84,0-1.34.37-1.34.98,0,.5.3.88,1.47,1.17,2,.5,2.85,1.34,2.85,2.82,0,1.84-1.51,2.64-3.12,2.64Z"/>
          <path class="cls-1" d="M58.31,44.47c0-2.5-2.02-4.52-4.52-4.52s-4.52,2.02-4.52,4.52,2.02,4.52,4.52,4.52c.75,0,1.46-.19,2.09-.51.33.45.52,1.03.59,1.65h1.81c-.12-.98-.56-1.87-1.21-2.56.77-.81,1.24-1.9,1.24-3.11ZM53.79,41.38c1.7,0,3.08,1.38,3.08,3.08,0,.88-.37,1.67-.95,2.23-.63-.34-1.36-.53-2.13-.53s-1.49.19-2.13.53c-.59-.56-.95-1.35-.95-2.23,0-1.7,1.38-3.08,3.08-3.08Z"/>
        </g>
        <g>
          <path class="cls-1" d="M78.99,84.09l2.46,1.61.25-.48-.47-1.74,1-.27,1.33,4.9-1,.27-.59-2.17-1.45,2.73-1.09.3,1.51-2.76-3.17-2.05,1.22-.33Z"/>
          <path class="cls-1" d="M75.53,86.77l-.3-2.01,1.02-.15.3,2.01,2.42,2.72-1.11.17-1.71-1.98-1.05,2.39-1.08.16,1.52-3.31Z"/>
          <path class="cls-1" d="M70.5,84.98c1.34-.02,2.35.73,2.38,2.45l.05,2.73-1.05.02-.05-2.7c-.02-1.1-.5-1.63-1.33-1.61-.83.01-1.29.56-1.28,1.66l.05,2.7-1.01.02-.05-2.73c-.03-1.72.95-2.51,2.29-2.53Z"/>
          <path class="cls-1" d="M65.73,84.82c.84.09,1.41.48,1.73.82l-.32.78c-.3-.35-.8-.77-1.49-.84-.5-.05-.92.16-.96.61-.04.42.17.66.97.95,1.03.37,1.4.98,1.32,1.7-.09.82-.8,1.35-1.89,1.24-.62-.06-1.15-.36-1.46-.65l.29-.69c.33.27.81.53,1.26.57.5.05.81-.14.85-.5.03-.29-.12-.54-.8-.78-1.15-.42-1.6-.97-1.51-1.84.11-1.09,1.05-1.46,2.01-1.37Z"/>
          <path class="cls-1" d="M59.84,83.89l-.49,2.19,2.34.52.49-2.19,1.01.23-1.11,4.96-1.01-.23.43-1.92-2.34-.53-.43,1.92-1.01-.23,1.11-4.96,1.01.23Z"/>
          <path class="cls-1" d="M55.78,82.44c1.25.47,1.92,1.54,1.32,3.15l-.96,2.56-.98-.37.95-2.53c.39-1.03.13-1.7-.65-1.99-.78-.29-1.41.04-1.79,1.07l-.95,2.53-.94-.35.96-2.56c.6-1.61,1.8-1.98,3.05-1.52Z"/>
          <path class="cls-1" d="M49.49,79.43c1.15.68,1.62,1.85.75,3.33l-1.39,2.35-.9-.53,1.37-2.33c.56-.95.42-1.65-.29-2.07-.71-.42-1.39-.2-1.95.74l-1.37,2.32-.87-.51,1.39-2.35c.87-1.48,2.12-1.64,3.27-.96Z"/>
          <path class="cls-1" d="M43.81,75.59v4.28s2.08-2.63,2.08-2.63l.72.57-3.16,3.98-.56-.45v-4.28l-2.08,2.63-.72-.57,3.16-3.98.56.45Z"/>
          <path class="cls-1" d="M42.55,74.44l-3.51,3.67-.75-.71,3.51-3.67.75.71Z"/>
          <path class="cls-1" d="M39.44,71.2l.51.59-2.4,4.97-.7-.8,1.75-3.54-3.73,1.27-.67-.77,5.25-1.72Z"/>
          <path class="cls-1" d="M37.79,69.16l-4.14,2.95-1.92-2.7.66-.47,1.32,1.86.97-.69-1.08-1.51.66-.47,1.08,1.51,1.2-.85-1.32-1.85.65-.47,1.92,2.7Z"/>
          <path class="cls-1" d="M33.77,62.51c.29.54.29,1.09-.18,1.76l-.7.99.28.52,1.78-.96.49.91-4.47,2.41-.95-1.76c-.57-1.06-.19-1.85.53-2.24.63-.34,1.32-.25,1.8.3l.53-.85c.27-.43.29-.71.12-1.03-.05-.09-.1-.16-.17-.23l.57-.31c.15.14.28.32.37.49ZM32.53,66.13l-.38-.7c-.31-.57-.71-.61-1.11-.39-.4.22-.6.58-.29,1.15l.38.7,1.4-.76Z"/>
          <path class="cls-1" d="M32.78,60.09c.32.79.24,1.47.09,1.91l-.84.09c.17-.43.31-1.07.05-1.71-.19-.47-.57-.74-.99-.57-.39.16-.51.46-.38,1.31.16,1.09-.21,1.69-.88,1.97-.77.31-1.57-.08-1.98-1.09-.24-.58-.23-1.19-.11-1.6l.75-.07c-.09.42-.08.97.08,1.38.19.46.5.66.84.52.27-.11.42-.36.32-1.07-.17-1.21.1-1.87.92-2.2,1.01-.41,1.79.24,2.15,1.13Z"/>
          <path class="cls-1" d="M31.78,57.68l-4.84,1.54-.31-.98,4.84-1.54.31.98Z"/>
          <path class="cls-1" d="M26.48,54.46l4.17-.95.23,1.01-4.17.95.38,1.68-.78.18-.99-4.36.78-.18.38,1.68Z"/>
          <path class="cls-1" d="M27.92,49.1l2.02-.21.11,1.03-2.02.21-2.82,2.3-.12-1.12,2.05-1.62-2.35-1.15-.12-1.09,3.24,1.65Z"/>
          <path class="cls-1" d="M29.76,45.01l-5.08-.08.02-1.03,5.08.08-.02,1.03Z"/>
          <path class="cls-1" d="M30.15,39.41l-3.62,2.29,3.33.36-.1.92-5.05-.54.08-.72,3.62-2.29-3.33-.36.1-.92,5.05.54-.08.72Z"/>
          <path class="cls-1" d="M30.85,36.31c-.19.83-.64,1.35-1.02,1.62l-.74-.41c.39-.26.86-.7,1.01-1.38.11-.5-.05-.93-.49-1.03-.41-.09-.68.09-1.06.85-.49.98-1.14,1.27-1.85,1.11-.81-.18-1.25-.96-1.01-2.02.14-.61.49-1.1.82-1.38l.65.37c-.31.29-.62.74-.72,1.18-.11.49.04.82.39.9.29.07.55-.06.87-.7.55-1.09,1.15-1.48,2.01-1.28,1.06.24,1.33,1.22,1.12,2.15Z"/>
          <path class="cls-1" d="M27.99,30.42l4.05,1.37-.33.98-4.05-1.37-.55,1.63-.76-.26,1.43-4.23.76.26-.55,1.63Z"/>
          <path class="cls-1" d="M32.85,29.67l-4.66-2.02.41-.95,4.66,2.01-.41.95Z"/>
          <path class="cls-1" d="M30.95,23.76l3.77,2.01-.49.91-3.77-2.01-.81,1.52-.71-.38,2.1-3.95.71.38-.81,1.52Z"/>
          <path class="cls-1" d="M37.26,22.02c-.77,1.09-1.98,1.46-3.38.47l-2.23-1.58.61-.86,2.2,1.56c.9.64,1.61.56,2.09-.12.48-.68.32-1.37-.58-2.01l-2.2-1.56.58-.82,2.23,1.58c1.4.99,1.46,2.25.68,3.34Z"/>
          <path class="cls-1" d="M37.52,14.74l3.15,2.89-.7.76-3.15-2.89-1.16,1.26-.59-.54,3.03-3.29.59.54-1.16,1.26Z"/>
          <path class="cls-1" d="M42.21,16.04l-3.35-3.83,2.49-2.18.53.61-1.72,1.5.79.9,1.4-1.22.53.61-1.4,1.22.97,1.11,1.72-1.5.53.61-2.49,2.18Z"/>
          <path class="cls-1" d="M46.14,10.03l1.26,1.9-.79.52-1.26-1.9-.43.29-.34-.51.43-.29-.6-.91c-.47-.71-.26-1.28.37-1.7.11-.07.29-.15.36-.17l.34.51s-.14.04-.21.09c-.25.17-.31.38-.06.75l.6.9.59-.39.34.51-.59.39Z"/>
          <path class="cls-1" d="M49.79,10.58c-.82.48-1.81.27-2.26-.51-.45-.78-.13-1.73.69-2.21.81-.47,1.81-.28,2.26.5.45.78.13,1.74-.68,2.22ZM48.57,8.47c-.39.23-.48.67-.22,1.12.27.46.7.6,1.09.38.4-.23.48-.67.21-1.13-.26-.45-.69-.6-1.09-.37Z"/>
          <path class="cls-1" d="M52.05,7.56l.64,1.34-.86.41-1.22-2.55.74-.46.28.47c.02-.39.24-.81.68-1.02l.39.82c-.53.09-.88.53-.67.98Z"/>
          <path class="cls-1" d="M58.89,6.55l-.88-1.03-1.96.64-.1,1.35-.95.31.49-5.5.77-.25,3.62,4.17-.98.32ZM56.24,3.39l-.15,1.99,1.43-.46-1.28-1.53Z"/>
          <path class="cls-1" d="M61.84,5.97c-.83.17-1.49-.04-1.89-.27l.07-.84c.4.25.99.5,1.67.36.5-.1.83-.43.74-.87-.08-.41-.36-.58-1.21-.62-1.1-.05-1.63-.52-1.77-1.23-.16-.81.36-1.53,1.43-1.75.61-.12,1.21,0,1.59.19l-.07.75c-.4-.16-.93-.26-1.37-.17-.49.1-.74.37-.66.73.06.29.28.48.99.51,1.22.06,1.82.45,1.99,1.31.22,1.07-.57,1.71-1.51,1.9Z"/>
          <path class="cls-1" d="M64.39,5.43l-.61-5.04,1.03-.12.61,5.04-1.03.12Z"/>
          <path class="cls-1" d="M70.01,5.05l-.56-1.24-2.06.06-.48,1.27-1,.03L67.93.03l.8-.02,2.32,5.01-1.03.03ZM68.35,1.28l-.7,1.87,1.5-.05-.8-1.82Z"/>
          <path class="cls-1" d="M75.07,5.4l-2.32-3.59-.33,3.33-.92-.09.49-5.05.72.07,2.32,3.59.33-3.34.92.09-.49,5.05-.72-.07Z"/>
          <path class="cls-1" d="M80.35,6.56c-.41-.1-.59-.33-.58-.65-.36.24-.73.33-1.12.23-.43-.1-.69-.49-.58-.93.17-.67,1.02-.86,2.01-.7l.02-.09c.08-.33-.05-.47-.38-.55-.3-.07-.8-.01-1.14.11l.16-.64c.27-.09.94-.12,1.32-.02.67.17,1.15.52.96,1.3l-.31,1.25c-.05.21,0,.29.11.32.07.02.13.01.17,0l-.08.35c-.1.05-.36.07-.56.02ZM79.96,4.98c-.61-.06-.97.02-1.05.32-.04.18.07.31.25.35.16.04.38,0,.67-.19l.12-.48Z"/>
          <path class="cls-1" d="M83.53,7.5l.52-1.5c.15-.44.06-.68-.26-.79-.33-.11-.76.08-.89.44l-.51,1.46-.9-.31.93-2.67.85.2-.13.53c.29-.29.84-.36,1.23-.23.74.26.85.87.62,1.55l-.57,1.64-.9-.31Z"/>
          <path class="cls-1" d="M87.89,9.46c-.41-.19-.51-.45-.46-.7-.36.21-.83.14-1.14,0-.71-.33-.97-1.18-.59-2,.38-.81,1.19-1.15,1.91-.82.31.15.62.42.73.78l1.05-2.25.9.31-1.9,4.08c-.09.2-.05.29.05.33.05.02.12.04.18.04l-.15.32c-.12.03-.37,0-.56-.1ZM86.55,7.15c-.24.51-.1.91.27,1.08.29.14.62.07.83-.07l.38-.81c-.02-.25-.19-.54-.48-.68-.37-.17-.77-.02-1,.48Z"/>
          <path class="cls-1" d="M92.24,12.13c-1.29-.88-1.65-2.49-.78-3.78.88-1.29,2.51-1.54,3.8-.66,1.28.87,1.63,2.47.76,3.76-.88,1.29-2.5,1.55-3.78.67ZM94.8,8.37c-.84-.57-1.82-.32-2.44.59-.62.91-.5,1.92.34,2.49.83.56,1.8.3,2.42-.61.62-.91.5-1.91-.32-2.47Z"/>
          <path class="cls-1" d="M96.89,15.78c-1.09-.98-1.34-2.58-.24-3.79,1.1-1.22,2.71-1.12,3.8-.14.5.45.87,1.05.97,1.57l-.63.7c-.06-.54-.29-1.11-.81-1.58-.75-.68-1.75-.67-2.52.17-.76.84-.67,1.85.08,2.52.52.47,1.11.64,1.65.65l-.63.7c-.53-.05-1.16-.36-1.66-.8Z"/>
          <path class="cls-1" d="M98.79,17.46l3.82-3.35,2.18,2.49-.6.53-1.5-1.71-.9.79,1.22,1.39-.6.53-1.22-1.39-1.11.97,1.5,1.71-.6.53-2.18-2.49Z"/>
          <path class="cls-1" d="M103.55,23.52l.72-1.15-1.19-1.68-1.32.31-.58-.81,5.39-1.19.47.66-2.89,4.7-.6-.84ZM105.77,20.05l-1.94.46.87,1.22,1.07-1.68Z"/>
          <path class="cls-1" d="M106,27.97l1.75-3.91-2.98,1.55-.43-.82,4.51-2.34.33.64-1.75,3.91,2.98-1.55.43.82-4.51,2.34-.33-.64Z"/>
          <path class="cls-1" d="M106.68,29.55l4.7-1.92.39.96-4.7,1.92-.39-.96Z"/>
          <path class="cls-1" d="M108.53,34.88l1.05-.86-.6-1.97-1.35-.13-.29-.96,5.49.58.24.77-4.23,3.55-.3-.99ZM111.73,32.29l-1.99-.18.44,1.43,1.55-1.25Z"/>
          <path class="cls-1" d="M109.5,39.87l2.87-3.17-3.31.55-.15-.91,5.01-.84.12.71-2.87,3.18,3.31-.55.15.91-5.01.84-.12-.71Z"/>
          <path class="cls-1" d="M109.71,44.46c-.01-.85.31-1.46.61-1.81l.82.23c-.32.34-.67.88-.66,1.57,0,.51.27.89.72.89.42,0,.64-.25.83-1.08.25-1.07.81-1.5,1.54-1.51.83-.01,1.44.64,1.45,1.73,0,.63-.22,1.19-.48,1.53l-.72-.21c.23-.36.43-.87.42-1.32,0-.5-.23-.79-.59-.79-.3,0-.52.19-.68.88-.28,1.19-.77,1.7-1.65,1.72-1.09.02-1.58-.87-1.59-1.83Z"/>
          <path class="cls-1" d="M113.87,49.51l-4.26-.38.09-1.03,4.26.38.15-1.71.8.07-.4,4.45-.8-.07.15-1.71Z"/>
          <path class="cls-1" d="M108.76,53.59c.28-1.31,1.25-2.12,2.93-1.75l2.67.58-.22,1.03-2.64-.58c-1.08-.23-1.7.12-1.87.93-.18.81.24,1.39,1.32,1.62l2.64.57-.21.99-2.67-.58c-1.68-.37-2.22-1.5-1.94-2.81Z"/>
          <path class="cls-1" d="M107.52,58.48l.61-1.68,4.77,1.74-.61,1.68c-.7,1.91-2.06,2.32-3.38,1.84-1.31-.48-2.09-1.68-1.39-3.58ZM111.53,59.89l.24-.66-3.21-1.17-.24.66c-.48,1.3,0,2,.96,2.35.95.35,1.77.13,2.25-1.18Z"/>
          <path class="cls-1" d="M106.15,61.86l4.59,2.18-.44.93-4.59-2.18.44-.93Z"/>
          <path class="cls-1" d="M105.28,63.69l4.41,2.53-1.65,2.87-.7-.4,1.13-1.98-1.04-.59-.92,1.61-.7-.4.92-1.61-1.28-.73-1.13,1.98-.7-.4,1.65-2.87Z"/>
          <path class="cls-1" d="M102.21,68.42c.5-.69,1.12-.99,1.57-1.09l.52.67c-.46.09-1.07.31-1.47.87-.3.41-.32.88.05,1.14.34.25.66.18,1.31-.37.84-.71,1.54-.72,2.14-.3.67.48.77,1.37.14,2.26-.37.51-.89.82-1.3.94l-.46-.6c.4-.15.86-.44,1.12-.81.29-.41.29-.78,0-.99-.24-.17-.53-.16-1.07.3-.93.79-1.64.91-2.35.39-.89-.64-.75-1.64-.19-2.42Z"/>
        </g>
        <g>
          <path class="cls-1" d="M96.82,71.45c.24.23.49.45.72.69-.48-.62-.99-1.22-1.52-1.81,0,0,0,0,0,0-.3-.33-.59-.64-.88-.94-.02-.02-.04-.04-.06-.06-.27-.27-.53-.54-.8-.79h0c-.11-.1-.21-.2-.32-.29-.33-.31-.67-.61-1.02-.9-.25-.21-.51-.41-.76-.61-.32-.25-.67-.51-1.06-.79,0,0,0,0,0,0-.97-.7-2-1.35-3.04-1.92,0,0,0,0,0,0,0,0,0,0,0,0-.44-.24-.88-.47-1.33-.69-.01,0-.02-.02-.03-.02-1.56-.76-3.16-1.38-4.8-1.86-.02,0-.03,0-.05,0-8.74-2.54-18.34-.97-25.81,4.18l.19.14c.42.28.84.56,1.27.82l.15.09c.44.26.88.51,1.32.75.04.02.08.04.12.07h.02s.04,0,.05-.02c.4-.24.8-.47,1.2-.7,0,0,.01,0,.02-.01.42-.23.84-.45,1.27-.66,0,0,0,0,.01,0,.43-.21.87-.41,1.31-.6,0,0,.01,0,.02,0,.44-.19.87-.37,1.32-.53.02,0,.05-.02.08-.03.43-.16.86-.31,1.29-.45.05-.02.11-.03.17-.05.41-.13.81-.25,1.22-.37.12-.03.24-.06.36-.09.35-.09.7-.18,1.05-.26.48-.11.96-.2,1.44-.29.49-.09.99-.16,1.48-.22.18-.02.35-.04.53-.06.31-.03.62-.07.93-.09.23-.02.45-.03.68-.04.25-.01.5-.03.76-.04.26,0,.51-.01.77-.02.09,0,.19,0,.28,0,.1,0,.2,0,.31,0,.35,0,.7.01,1.04.03.16,0,.31.02.47.02.37.02.73.05,1.1.08.14.01.28.03.42.04.37.04.75.09,1.12.14.14.02.28.04.41.06.36.06.73.12,1.09.19.15.03.3.06.45.09.34.07.68.15,1.01.23.18.04.35.09.53.14.3.08.6.16.9.25.21.06.43.13.64.2.25.08.5.16.75.25.26.09.51.18.77.28.2.07.39.15.59.23.3.12.6.25.9.38.14.06.28.12.42.19.34.16.69.32,1.03.49.09.04.18.09.27.13.38.19.76.4,1.13.61.04.02.09.05.13.08.41.23.81.47,1.21.72.01,0,.02.01.03.02,1.68,1.06,3.26,2.28,4.72,3.66,0,0,0,0,.01.01Z"/>
          <path class="cls-1" d="M58.99,68.3h0s0,0,0,0l-.21-.11c-.17-.09-.34-.19-.51-.28-.27-.15-.54-.31-.81-.47l-.38-.22s-.02-.01-.02-.02c-.04-.02-.07-.05-.11-.07-.33-.2-.66-.41-.98-.63l-.82-.57s0,0,0,0c-.04-.03-.08-.06-.13-.09-.04-.03-.07-.05-.11-.08l-.51-.38s0,0,0,0c-.37-.28-.73-.57-1.08-.86,0,0-.01-.01-.02-.02,0,0,0,0,0,0,0,0,0,0,0,0-.07-.06-.15-.13-.22-.19-.15-.13-.3-.26-.45-.39l-.18-.15s0,0,0,0c-.15-.13-.29-.27-.44-.41l-.09-.08s0-.01-.01-.02c-.2-.19-.4-.37-.6-.57,6.35,8.19,16.64,12.71,27.1,11.69.12-.01.24-.02.35-.04.65-.07,1.3-.16,1.94-.27.32-.06.66-.12,1.02-.2-.03-.02-.06-.03-.09-.05-.52-.27-1.04-.52-1.57-.76-.1-.04-.19-.09-.29-.13-.6-.26-1.21-.51-1.82-.74-.54-.19-1.08-.36-1.63-.53-.15.01-.3.02-.45.03-.4.03-.8.06-1.19.08-.27.01-.55.02-.82.02-.16,0-.33.01-.49.01-.14,0-.28,0-.42-.01-.31,0-.63-.01-.94-.02-.28-.01-.57-.03-.85-.05-.31-.02-.63-.04-.94-.07-.31-.03-.62-.08-.94-.12-.49-.06-.99-.14-1.48-.23-.33-.06-.66-.12-.99-.19-.28-.06-.55-.13-.83-.2-.31-.08-.62-.15-.93-.24-.27-.07-.54-.15-.81-.24-.32-.1-.64-.2-.95-.31-.25-.09-.5-.17-.75-.26-.36-.13-.71-.27-1.06-.42-.16-.07-.32-.12-.48-.19-.04-.01-.08-.03-.13-.05-.31-.11-.85-.36-1.88-.9,0,0,0,0,0,0Z"/>
          <path class="cls-1" d="M38.35,27.14c-2.31,3.46-3.9,7.39-4.65,11.62-.39,2.2-.53,4.42-.44,6.62.05-.6.12-1.2.21-1.8,0-.03,0-.07.01-.1.18-1.17.41-2.35.72-3.51.17-.63.36-1.26.57-1.87,0-.03.02-.06.03-.09,2.01-5.93,5.69-11.05,10.65-14.81.08-.06.16-.12.25-.19.39-.29.79-.57,1.2-.85.11-.08.23-.16.34-.23.5-.33,1.01-.65,1.53-.95.41-.24.82-.46,1.24-.67.21-.11.42-.21.62-.31.19-.09.38-.19.57-.28.3-.14.61-.28.92-.41.06-.02.12-.05.18-.07,6.37-2.69,13.41-3.2,20.2-1.38,8.07,2.16,14.81,7.33,18.98,14.57.44.77.85,1.55,1.23,2.35,0-.02-.01-.04-.02-.07-.42-1.28-.91-2.52-1.49-3.72-.01-.02-.02-.04-.03-.07-3.58-7.42-10.08-13.23-18.04-15.83-.04-.01-.07-.02-.11-.03-.56-.18-1.13-.34-1.71-.49-.14-.04-.28-.07-.42-.11-.63-.15-1.26-.29-1.9-.41-.69-.12-1.38-.21-2.07-.29-.09,0-.17-.02-.26-.03-1.34-.13-2.67-.16-3.99-.12-.19,0-.38.01-.58.02-.6.03-1.2.08-1.79.15-.1.01-.2.02-.31.04-.66.08-1.32.18-1.97.3-.04,0-.08.01-.12.02-.69.13-1.38.29-2.06.47,0,0-.01,0-.02,0-.69.19-1.38.39-2.06.63-.01,0-.02,0-.03.01-.66.23-1.32.48-1.97.76-.05.02-.09.04-.14.06-.61.26-1.21.54-1.8.84-.11.06-.22.12-.33.18-.53.28-1.05.57-1.56.87-.18.11-.36.23-.54.35-1.04.66-2.05,1.37-3.01,2.16-.04.04-.09.07-.13.11-2.23,1.85-4.23,4.03-5.89,6.52,0,.01-.02.02-.03.03Z"/>
          <path class="cls-1" d="M80.83,74.84s0,0,0,0c0,0-.02,0-.03,0-.46.08-.93.15-1.39.21-.28.04-.57.06-.85.09-.17.02-.34.04-.5.05-.41.04-.82.06-1.23.08-.01,0-.02,0-.03,0-6.86.32-13.6-1.61-19.33-5.62-6.84-4.79-11.41-11.96-12.86-20.18-.15-.87-.27-1.75-.35-2.63,0,.02,0,.05,0,.07-.05,1.34,0,2.68.12,4,0,.03,0,.05,0,.08.82,8.2,4.95,15.88,11.54,21.05.03.02.06.05.09.07.47.36.95.71,1.44,1.05.12.08.23.16.35.24.54.36,1.09.71,1.65,1.03.51.29,1.02.57,1.54.83.21.11.43.2.64.3.31.15.62.3.93.44.26.11.53.22.8.32.27.11.53.22.8.32.29.11.58.2.87.3.25.08.5.18.76.25.3.09.6.17.91.25.25.07.49.14.74.2.31.08.63.14.94.21.24.05.48.11.72.15.32.06.64.11.96.15.24.04.48.08.72.11.32.04.64.07.96.1.24.02.48.05.72.07.32.02.64.03.96.05.24.01.49.02.73.03.32,0,.64,0,.95,0,.25,0,.5,0,.75-.01.31-.01.62-.04.94-.06.26-.02.51-.03.77-.06.3-.03.61-.07.91-.11.26-.03.53-.06.79-.1.29-.05.59-.1.88-.16.27-.05.54-.1.81-.15.28-.06.56-.13.85-.2.28-.07.56-.13.84-.21.27-.07.54-.16.8-.24.29-.09.58-.17.87-.27.25-.08.51-.18.76-.27.21-.08.42-.15.62-.23-.07-.09-.15-.18-.22-.26,0,0,0,0,0,0,0,0,0,0,0,0-.85-.62-1.76-1.21-2.7-1.75-.41.1-.8.18-1.19.26-.25.05-.5.1-.74.14Z"/>
          <path class="cls-1" d="M68.11,70.37c-.07,0-.14,0-.22-.01h-.08c-.33-.02-.66-.05-.99-.07.16.04.33.06.49.09.8.16,1.61.29,2.43.39.19.02.38.05.58.07.39.04.78.06,1.18.09.22.01.43.03.65.04.36.01.72.02,1.08.02.16,0,.31,0,.47,0-.73-.15-1.46-.27-2.19-.37-.65-.09-1.31-.16-1.97-.2-.47,0-.93-.01-1.39-.03h-.03Z"/>
          <path class="cls-1" d="M38.02,63.28c1.12,1.94,2.43,3.73,3.92,5.36-.15-.22-.29-.44-.44-.66-.07-.11-.14-.21-.21-.32-.23-.36-.46-.72-.67-1.09-.03-.05-.06-.11-.09-.16-.72-1.24-1.36-2.53-1.9-3.85-.01-.03-.03-.06-.04-.09-.16-.39-.3-.78-.45-1.17-.05-.14-.1-.27-.15-.41-.12-.36-.24-.71-.35-1.07-.06-.19-.11-.38-.16-.57-.09-.33-.19-.66-.27-.99-.09-.37-.18-.75-.26-1.12-.06-.3-.12-.6-.18-.9-.07-.4-.14-.81-.2-1.22-.03-.18-.05-.37-.07-.55-.05-.41-.1-.82-.13-1.24-.01-.16-.03-.32-.04-.49-.03-.47-.05-.94-.06-1.41,0-.11,0-.21,0-.32-.02-1.2.04-2.41.16-3.62,0-.04.01-.09.02-.13.06-.53.13-1.07.22-1.6.02-.14.05-.28.07-.42.08-.44.16-.88.26-1.32.04-.17.07-.34.11-.51.1-.43.21-.85.34-1.28.05-.16.09-.32.13-.48.17-.57.36-1.14.56-1.71.17-.45.34-.9.53-1.34.08-.19.16-.37.24-.56.1-.23.21-.47.32-.7.12-.25.24-.5.36-.75.06-.13.13-.25.2-.38,4.33-8.34,12.09-14.06,20.86-16.06.06-.01.11-.03.17-.04.35-.08.7-.15,1.06-.22.1-.02.2-.03.3-.05.34-.06.67-.12,1.01-.16.08-.01.16-.02.24-.03.67-.09,1.34-.16,2.01-.2.11,0,.21-.02.32-.02.29-.02.57-.02.86-.03.18,0,.35-.01.53-.01.29,0,.58,0,.86,0,.17,0,.34,0,.51.01.3,0,.61.02.91.04.05,0,.1,0,.15,0,0,0,.01,0,.02,0,2.88.19,5.77.78,8.62,1.81.84.31,1.67.65,2.48,1.02-4.92-3.1-10.61-4.69-16.33-4.69-4.5,0-9.02.99-13.2,3.01-.11.05-.21.1-.32.15-.56.28-1.12.57-1.66.89-.59.34-1.17.71-1.73,1.09-.11.08-.22.15-.34.23-5.46,3.76-9.46,9.15-11.54,15.26,0,.02-.02.04-.02.07-.23.68-.44,1.37-.62,2.06h0c-.17.67-.32,1.34-.45,2.02-.01.07-.03.13-.04.2-.52,2.85-.64,5.8-.32,8.77,0,.01,0,.03,0,.04.46,4.14,1.76,8.17,3.91,11.89Z"/>
          <path class="cls-1" d="M87.66,77.95c1.6,2.83,3.1,6.98,3.58,9.72.16.92.3,1.84.42,2.75h3.36c-.03-.12-.07-.25-.1-.38-.06-.2-.12-.41-.18-.62-.07-.22-.14-.45-.22-.68-.07-.22-.15-.44-.23-.67-.08-.23-.17-.47-.26-.71-.09-.23-.18-.46-.27-.7-.1-.24-.21-.48-.32-.73-.11-.24-.21-.48-.32-.72-.12-.25-.25-.49-.37-.74-.12-.24-.24-.48-.37-.72-.14-.25-.29-.5-.44-.75-.14-.23-.27-.46-.42-.69-.18-.28-.38-.55-.58-.82-.14-.19-.26-.39-.41-.57-.35-.46-.72-.9-1.12-1.33,0,0,0,0,0,0l-.12-.13-.04-.05c-.47-.48-.96-.94-1.47-1.39-.03-.03-.07-.06-.1-.09Z"/>
          <path class="cls-1" d="M45.12,71.29c.36.4.74.78,1.13,1.16,3,2.94,6.66,5.31,10.85,6.84,2.11.77,4.26,1.29,6.45,1.58-.25-.07-.5-.15-.75-.23-.2-.06-.41-.12-.61-.18-.31-.1-.62-.2-.93-.31-.13-.05-.27-.1-.4-.15-.55-.2-1.1-.42-1.64-.65-.13-.06-.26-.11-.39-.17-.94-.42-1.85-.88-2.74-1.39-.2-.11-.39-.23-.59-.35-.28-.17-.56-.34-.83-.51-.33-.21-.66-.43-.98-.65-.17-.12-.35-.25-.52-.37-.37-.27-.73-.54-1.09-.83-.07-.06-.14-.11-.22-.17-.41-.33-.8-.67-1.19-1.02-.08-.07-.15-.14-.23-.21-.88-.8-1.71-1.65-2.49-2.56,0,0-.02-.02-.02-.03-1.2-1.39-2.29-2.9-3.25-4.51-.02-.04-.05-.08-.07-.13-.59-1.01-1.13-2.07-1.62-3.17-.05-.11-.1-.22-.14-.33-.23-.53-.44-1.07-.64-1.61-.17-.45-.32-.91-.46-1.37-.06-.19-.11-.38-.17-.58-.07-.25-.15-.5-.21-.76-.07-.26-.13-.53-.2-.79-.03-.15-.07-.3-.1-.45-1.94-8.75.03-17.68,4.94-24.7.02-.02.03-.04.05-.07.2-.29.41-.57.62-.84.07-.1.15-.2.22-.29.19-.24.37-.48.57-.72.11-.13.22-.26.33-.39.18-.21.36-.42.54-.63.14-.16.29-.32.44-.47.28-.3.57-.6.86-.89.19-.18.37-.37.56-.55.18-.17.36-.33.54-.49.16-.15.33-.29.49-.44.2-.17.4-.34.61-.5.15-.12.3-.24.46-.36.23-.18.45-.35.68-.52.05-.03.09-.07.14-.1,0,0,.01,0,.02-.01,2.33-1.7,4.92-3.12,7.76-4.15.83-.3,1.68-.57,2.53-.8-.02,0-.05,0-.07,0-1.33.19-2.64.46-3.92.82-.03,0-.05.01-.08.02-7.93,2.23-14.78,7.64-18.73,15.02-.02.03-.03.06-.05.09-.28.53-.54,1.06-.79,1.61-.06.13-.12.26-.17.39-.26.59-.51,1.19-.73,1.81-.23.64-.43,1.28-.62,1.93-.05.16-.09.31-.13.47-.17.61-.32,1.21-.44,1.82,0,.04-.02.08-.03.11-.14.68-.25,1.36-.34,2.05-.01.09-.02.18-.03.27-.08.65-.14,1.3-.18,1.95,0,.04,0,.07,0,.11-.04.7-.05,1.39-.04,2.08,0,.07,0,.14,0,.21.01.61.04,1.23.09,1.84,0,.1.01.21.02.31.06.64.14,1.29.24,1.93.02.14.05.29.08.43.08.48.18.96.28,1.44.05.21.09.42.14.63.13.55.28,1.1.45,1.65.08.26.17.52.25.78.11.32.21.63.33.95.11.3.22.6.34.9.12.31.26.61.4.92.21.47.43.94.67,1.4.12.24.24.48.37.71.16.3.33.61.51.91.19.32.39.64.59.96.23.36.47.72.71,1.07.2.29.41.59.63.87.16.22.32.43.49.65.37.46.74.92,1.14,1.36.11.12.22.24.33.36Z"/>
          <path class="cls-1" d="M95.85,90.42h4.37s0-.02,0-.03c-.22-.61-.47-1.2-.72-1.79-.04-.1-.09-.2-.13-.3-.25-.56-.52-1.11-.81-1.65-.05-.1-.11-.2-.16-.3-.3-.55-.61-1.09-.94-1.62-.02-.03-.04-.07-.06-.1-.32-.52-.67-1.02-1.02-1.51-.05-.07-.1-.14-.14-.2-.36-.49-.74-.97-1.12-1.44-.07-.08-.14-.17-.21-.25-.4-.47-.8-.93-1.23-1.37-.04-.04-.09-.09-.13-.13-.42-.44-.86-.86-1.31-1.28-.04-.03-.07-.07-.11-.1-.46-.42-.93-.82-1.41-1.2-.08-.06-.15-.12-.23-.18-.48-.38-.97-.75-1.47-1.1-.06-.04-.12-.08-.18-.12-.52-.36-1.05-.71-1.6-1.03,0,0,0,0,0,0-.54-.32-1.09-.63-1.66-.92-.08-.04-.16-.08-.23-.12-.55-.28-1.1-.54-1.66-.79-.08-.03-.16-.07-.23-.1-1.17-.5-2.36-.92-3.59-1.27-.08-.02-.16-.05-.24-.07-.59-.16-1.19-.31-1.79-.44-.1-.02-.19-.04-.29-.06-.61-.12-1.23-.23-1.86-.32,0,0-.01,0-.02,0,.23.06.47.14.7.2.04.01.08.02.13.03,0,0,0,0,0,0h0s.07.02.11.03c.2.06.41.12.61.19.35.11.69.23,1.01.34.47.17.94.36,1.41.56.22.09.44.19.65.29.22.1.44.2.66.3.28.13.57.27.84.41.09.05.18.09.27.14,2.06,1.07,3.97,2.37,5.74,3.88.11.1.23.2.34.29.57.5,1.13,1.02,1.67,1.57,0,0,0,0,0,.01l.16.17c1.68,1.81,2.94,3.89,3.9,5.93.04.09.08.18.12.27.19.41.37.81.53,1.21.06.16.12.31.18.47.13.33.25.65.36.97.07.2.13.39.19.58.09.27.18.54.26.8.06.21.12.4.17.6.05.17.11.36.15.52Z"/>
          <path class="cls-1" d="M101.06,90.42h3.07c-.04-.17-.09-.33-.14-.5-.07-.25-.14-.51-.22-.76-.07-.23-.15-.46-.23-.69-.09-.26-.17-.52-.27-.77-.08-.22-.16-.43-.25-.65-.1-.26-.2-.52-.31-.78-.09-.21-.18-.41-.27-.61-.12-.26-.23-.52-.36-.78-.09-.19-.19-.38-.29-.57-.13-.26-.26-.52-.4-.77-.1-.18-.21-.37-.31-.55-.14-.25-.29-.51-.44-.76-.11-.18-.22-.35-.33-.52-.16-.25-.32-.5-.48-.74-.12-.17-.24-.34-.36-.5-.17-.24-.34-.48-.52-.71-.13-.17-.26-.33-.39-.49-.18-.23-.36-.46-.55-.68-.14-.16-.28-.32-.42-.48-.19-.22-.38-.43-.57-.64-.15-.16-.3-.31-.46-.47-.2-.2-.39-.41-.6-.61-.16-.16-.33-.31-.49-.46-.2-.19-.4-.38-.61-.56-.18-.16-.37-.31-.56-.47-.2-.17-.4-.34-.6-.5-.21-.17-.43-.32-.64-.48-.19-.14-.38-.29-.58-.43,0,0-.01,0-.02-.01,0,0,0,0,0,0h0c-.24-.17-.49-.34-.74-.5-.17-.11-.33-.23-.5-.34-.43-.28-.87-.55-1.32-.81-.49-.28-.98-.55-1.48-.8-.18-.09-.36-.17-.53-.25-.32-.16-.65-.32-.98-.46-.21-.09-.43-.18-.64-.27-.3-.12-.59-.25-.89-.36-.23-.09-.47-.17-.7-.25-.29-.1-.57-.2-.86-.29-.25-.08-.49-.15-.74-.22-.28-.08-.56-.16-.84-.23-.26-.07-.51-.12-.77-.18-.28-.06-.55-.13-.83-.18-.26-.05-.53-.1-.79-.14-.27-.05-.54-.09-.82-.13-.27-.04-.54-.07-.81-.1-.27-.03-.54-.06-.81-.09-.27-.02-.55-.04-.83-.06-.27-.02-.54-.03-.8-.04-.28,0-.56-.02-.84-.02-.26,0-.53,0-.79,0-.28,0-.57.01-.85.03-.26.01-.52.03-.78.05-.29.02-.57.04-.86.07-.26.03-.52.06-.77.09-.29.04-.58.07-.86.12-.25.04-.51.09-.76.13-.29.05-.58.1-.87.17-.25.05-.49.11-.74.17-.29.07-.59.14-.88.22-.24.06-.48.14-.72.21-.3.09-.59.17-.89.27-.01,0-.02,0-.04.01.2.03.39.05.59.08.45.06.9.11,1.35.15.16.01.32.03.48.04.63.04,1.27.07,1.9.07.03,0,.06,0,.08,0,.39-.03.78-.04,1.16-.05,13.33-.38,25.66,7.94,30.25,20.56.04.1.07.2.1.3Z"/>
          <path class="cls-1" d="M64.67,80.32c.25.06.51.12.77.17.58.12,1.17.23,1.76.31.15.02.31.04.46.06.54.07,1.09.13,1.64.17,4.19.32,8.5-.22,12.7-1.74,1.48-.54,2.93-1.2,4.34-1.98-.05-.07-.09-.13-.14-.2-.12.05-.24.09-.36.13-.36.14-.73.27-1.1.4-.2.07-.4.13-.6.19-.33.11-.66.21-1,.3-.22.06-.43.12-.65.18-.32.08-.65.16-.97.23-.22.05-.44.1-.66.15-.34.07-.67.13-1.01.18-.21.04-.41.07-.62.11-.46.07-.92.12-1.38.17-.21.02-.42.04-.64.06-.39.03-.79.06-1.18.08-.23.01-.46.01-.69.02-.23,0-.46.02-.69.02-.06,0-.13,0-.19,0-.49,0-.99-.02-1.48-.05-.14,0-.28,0-.42-.02-.65-.04-1.29-.11-1.93-.19,0,0-.01,0-.02,0-.62-.08-1.24-.19-1.85-.31-.18-.04-.36-.08-.54-.12-.44-.09-.88-.19-1.32-.31-.22-.06-.44-.12-.65-.18-.4-.11-.8-.23-1.19-.36-.23-.07-.45-.15-.68-.23-.39-.14-.78-.28-1.16-.44-.22-.09-.44-.17-.65-.26-.41-.17-.81-.36-1.22-.55-.18-.09-.37-.17-.55-.26-.58-.29-1.16-.59-1.72-.92-.42-.24-.83-.5-1.23-.76-.17-.11-.33-.22-.5-.33-.22-.15-.44-.29-.65-.44-.22-.16-.44-.32-.66-.48-.12-.09-.24-.18-.36-.28-7.12-5.46-11.35-13.58-12.1-22.13,0-.01,0-.03,0-.04-.03-.36-.05-.71-.07-1.07,0-.11-.01-.23-.02-.34-.01-.31-.02-.62-.03-.94,0-.16,0-.32,0-.48,0-.29,0-.57.01-.86,0-.19.02-.39.03-.58.02-.45.06-.89.1-1.34.02-.24.04-.48.07-.72.03-.25.07-.49.1-.73.03-.21.06-.43.1-.64.04-.26.09-.52.14-.78.04-.19.07-.38.11-.57.06-.28.12-.56.19-.84.01-.06.02-.11.04-.17,0,0,0-.01.01-.02.69-2.8,1.77-5.55,3.28-8.17.44-.77.92-1.52,1.43-2.24-.01.02-.03.03-.04.05-.9,1-1.74,2.06-2.49,3.17,0,.01-.02.03-.03.04-4.64,6.81-6.42,15.36-4.7,23.55,0,.03.02.07.02.1.12.58.27,1.16.43,1.74.04.14.07.27.11.41.18.62.38,1.24.6,1.85.23.64.49,1.26.76,1.88.07.15.13.29.2.44.26.57.54,1.14.83,1.69.02.03.03.07.05.1.33.61.69,1.21,1.06,1.79.05.08.1.15.15.23.36.55.73,1.09,1.11,1.61.02.03.04.06.06.09.42.56.85,1.1,1.31,1.63.05.05.09.1.14.16.41.47.83.92,1.26,1.36.07.07.14.14.21.21.46.46.94.9,1.43,1.33.11.09.21.18.32.27.38.32.76.63,1.16.93.17.13.33.26.5.38.46.34.93.67,1.41.98.22.14.45.28.67.42.29.18.59.36.89.53.27.15.54.31.82.45.32.17.65.33.98.49.43.21.87.41,1.31.6.26.11.52.22.78.32.31.12.63.25.94.36.39.14.78.27,1.18.39.37.12.74.22,1.11.32.36.1.72.19,1.08.28Z"/>
          <path class="cls-1" d="M41.56,21.98c.35-.35.71-.69,1.08-1.03.03-.03.07-.06.1-.09.33-.3.67-.59,1.01-.87.08-.07.16-.13.24-.2.31-.25.62-.49.94-.73.11-.08.21-.16.32-.24.17-.13.34-.26.52-.39.14-.1.28-.19.42-.28.1-.06.19-.13.29-.19.35-.23.71-.46,1.07-.68.05-.03.09-.05.14-.08,4.88-2.92,10.38-4.43,16.01-4.42h0c.42,0,.84,0,1.26.03.1,0,.2.01.3.02.35.02.69.04,1.04.07.21.02.41.04.62.06.26.03.51.05.77.08.48.06.95.13,1.43.22.48.08.95.18,1.42.29.19.04.38.09.58.14.26.06.51.13.77.2.26.07.52.15.78.22.15.04.29.09.44.14,8.54,2.69,15.29,8.86,18.92,16.62.01.03.03.06.04.09.14.31.28.63.42.94.05.12.1.24.15.36.11.28.22.55.33.83.06.17.12.34.18.51.09.25.18.5.26.76.07.22.14.45.21.67.11.35.2.69.3,1.05.08.29.15.57.22.86.05.22.1.45.14.67.05.23.1.46.14.69.05.25.09.49.13.74.03.21.07.41.1.62.04.27.07.54.11.81,0,.06.02.13.02.19,0,0,0,.02,0,.03.31,2.86.24,5.82-.29,8.79-.16.88-.35,1.76-.58,2.62,3.91-9.59,2.69-20.75-3.41-29.29-.08-.11-.16-.22-.24-.33-.38-.52-.78-1.03-1.19-1.53-.44-.52-.89-1.02-1.36-1.5-.11-.12-.22-.23-.34-.34-.44-.45-.89-.88-1.36-1.3-.03-.03-.06-.05-.08-.08-.52-.46-1.05-.9-1.6-1.32-.07-.06-.15-.11-.22-.17-.52-.39-1.04-.77-1.58-1.12-.04-.02-.07-.05-.11-.07-.58-.38-1.17-.74-1.77-1.07-.07-.04-.14-.08-.21-.11-.53-.29-1.06-.56-1.6-.82-.1-.05-.21-.1-.31-.15-.58-.27-1.17-.52-1.76-.75-.15-.06-.31-.11-.47-.17-.43-.16-.87-.31-1.31-.45-.23-.07-.45-.15-.68-.21-.53-.16-1.06-.3-1.6-.42-.3-.07-.59-.13-.89-.19-.29-.06-.58-.12-.87-.17-.34-.06-.68-.12-1.03-.16-.24-.03-.48-.06-.71-.08-.62-.07-1.24-.12-1.87-.16-.23-.01-.45-.02-.68-.03-.37-.01-.74-.02-1.11-.02-.28,0-.56.01-.84.02-.53.02-1.06.05-1.59.09-.33.03-.66.06-.99.1-.28.03-.57.07-.85.11-.57.08-1.15.18-1.72.3-.17.03-.33.08-.5.11-.52.12-1.04.25-1.56.39-4.05,1.13-7.92,3.11-11.34,5.98-1.71,1.44-3.25,3.04-4.59,4.78Z"/>
          <path class="cls-1" d="M104.78,89.76c.06.22.13.43.18.65h.66c-.07-.55-.14-1.05-.22-1.51-.78-4.41-2.48-8.42-4.86-11.89-.3-.44-.61-.86-.93-1.28-.1-.14-.21-.28-.31-.41-.36-.46-.74-.91-1.13-1.34-.18-.21-.37-.41-.56-.61-.24-.26-.48-.5-.73-.75-.32-.32-.65-.63-.98-.94-.26-.24-.53-.48-.8-.71-.27-.23-.54-.45-.82-.66-.21-.16-.41-.32-.62-.48-.42-.32-.85-.62-1.29-.91-.27-.18-.54-.36-.82-.54-.27-.17-.55-.33-.83-.49-.29-.17-.58-.33-.87-.49-.24-.13-.48-.26-.72-.39-.51-.26-1.02-.5-1.55-.73-.2-.09-.39-.17-.59-.25-.46-.19-.92-.37-1.38-.53-.13-.05-.26-.1-.4-.14-.62-.21-1.24-.4-1.87-.57-.09-.02-.19-.05-.28-.07-.6-.16-1.21-.3-1.82-.42-.06-.01-.12-.03-.18-.04-.69-.13-1.38-.24-2.08-.32-.03,0-.05,0-.08,0-.66-.08-1.32-.13-1.98-.16-.08,0-.17,0-.25-.01-.7-.03-1.39-.04-2.09-.02-.03,0-.06,0-.09,0-.63.02-1.27.06-1.91.12-.16.01-.31.03-.47.05-.67.07-1.34.16-2.01.28-.47.08-.93.18-1.39.28-.11.03-.23.06-.34.08-.35.08-.69.17-1.04.26-.12.03-.24.07-.36.11-.33.1-.67.19-1,.3-.11.04-.23.08-.34.12-.34.11-.67.23-1,.36-.1.04-.21.08-.31.12-.34.13-.68.27-1.01.41-.09.04-.19.08-.28.12-.34.15-.68.31-1.02.47-.09.04-.17.09-.26.13-.34.17-.68.35-1.01.53-.08.05-.16.09-.25.14-.17.09-.33.19-.49.29.02.01.05.02.07.03,0,0,.01,0,.02,0l.3.14c.26.12.47.22.63.29,0,0,.01,0,.02,0h0c.41.12.83.23,1.25.33.06.01.11.02.17.04.36.09.73.15,1.1.23.41-.16.82-.29,1.23-.43.11-.04.22-.08.33-.12.41-.13.81-.24,1.22-.36.16-.04.32-.1.48-.14.37-.1.74-.18,1.11-.26.2-.05.4-.1.6-.14.33-.07.66-.12.99-.17.24-.04.49-.09.73-.13.29-.04.58-.07.87-.1.29-.03.57-.07.86-.1.25-.02.51-.03.76-.05.32-.02.64-.05.97-.06.22,0,.45,0,.67,0,.35,0,.71-.01,1.06,0,.19,0,.39.02.58.03.38.02.76.03,1.14.06.17.01.33.04.5.05.41.04.81.08,1.22.13.14.02.29.05.43.07.42.06.85.13,1.27.21.13.02.26.06.39.08.43.09.87.18,1.3.29.11.03.22.06.34.09.45.12.89.24,1.33.37.11.03.22.08.33.11.44.14.88.29,1.31.45.11.04.21.09.32.13.44.17.87.34,1.3.53.11.05.21.1.32.15.42.19.85.38,1.27.6.52.26,1.04.55,1.55.84.46.27.92.54,1.36.83.12.08.24.17.36.25.32.21.64.42.95.64.14.1.26.2.4.3.29.21.58.43.86.65.13.11.26.22.39.33.27.22.55.45.81.68.13.11.25.23.37.34.26.24.52.47.77.72.12.12.23.24.35.36.25.25.5.5.74.76.11.12.22.25.33.37.24.26.47.52.7.8.1.12.2.25.3.38.22.28.45.55.66.83.1.13.19.27.29.4.21.28.42.57.61.86.09.14.18.28.27.42.19.29.38.58.56.88.09.15.17.3.26.45.17.3.35.59.51.89.09.16.17.33.25.49.15.3.31.6.45.9.08.18.16.36.24.53.13.3.27.59.39.89.08.19.15.39.23.59.11.29.23.58.33.87.08.22.15.43.22.65.09.28.19.56.28.84.07.24.14.48.2.72Z"/>
          <path class="cls-1" d="M86.21,13.66c-.23-.15-.47-.31-.71-.45-.49-.3-1-.6-1.51-.88-.16-.08-.32-.16-.47-.24-.46-.24-.93-.47-1.4-.68-3.83-1.74-8.09-2.72-12.57-2.72-2.24,0-4.45.24-6.6.72.24-.02.48-.03.72-.04.17-.01.34-.02.51-.03.39-.02.78-.03,1.17-.04.12,0,.24,0,.36,0,1.33,0,2.64.08,3.95.25.12.02.24.03.36.04.36.05.72.11,1.08.17.2.04.41.07.61.11.32.06.64.13.95.2.27.06.53.13.8.19.26.07.53.13.79.21.52.15,1.05.31,1.56.48.08.03.15.06.22.08.48.17.95.35,1.43.54.13.05.25.11.38.16.43.18.86.37,1.28.57.11.05.23.11.34.16.46.22.92.46,1.37.71.06.03.12.06.18.1,1.06.59,2.1,1.25,3.1,1.98.02.01.03.02.05.04.45.33.9.68,1.34,1.03.1.08.2.17.3.25.35.29.7.6,1.04.91.12.11.24.22.37.34.32.3.64.62.95.94.11.12.23.23.34.35.41.43.81.88,1.2,1.34.3.36.59.72.87,1.09.13.17.25.34.37.5.14.19.28.39.42.58.17.24.33.48.48.72.07.11.15.22.22.34.2.31.39.61.57.93,0,.02.02.03.03.05,5.9,9.98,5.73,22.41-.23,32.17,0,0,0,0,0,.01-.18.3-.38.6-.57.89-.04.06-.08.13-.12.2,0,0,0,0,0,0-1.17,1.75-2.54,3.41-4.1,4.94.21.11.42.22.63.33.07-.05.13-.11.2-.16.38-.3.76-.61,1.13-.93.09-.08.17-.16.26-.23.35-.31.7-.63,1.03-.95.09-.09.18-.19.28-.28.32-.32.63-.64.94-.97.1-.11.19-.22.29-.33.29-.32.57-.65.84-.98.1-.13.2-.26.3-.39.25-.32.51-.64.75-.98.11-.15.2-.3.31-.45.22-.32.45-.64.66-.97.11-.17.21-.34.31-.51.19-.32.39-.63.57-.96.11-.19.2-.39.31-.58.17-.31.34-.62.49-.94.1-.21.19-.42.29-.63.14-.31.29-.62.42-.93.1-.23.18-.46.27-.69.12-.3.24-.6.35-.91.09-.25.17-.51.25-.77.09-.29.19-.57.28-.87.08-.28.15-.56.22-.84.07-.28.15-.55.22-.83.07-.3.12-.6.18-.9.05-.27.12-.53.16-.8.06-.33.1-.66.14-1,.03-.24.08-.49.1-.73.04-.38.07-.76.1-1.14.02-.2.04-.41.05-.61.03-.59.05-1.18.05-1.78,0-.68-.03-1.35-.07-2.02-.01-.16-.02-.32-.04-.48-.05-.63-.12-1.25-.21-1.86,0-.04,0-.08-.01-.12-.1-.69-.23-1.37-.38-2.04-.02-.09-.04-.18-.06-.27-.15-.64-.31-1.27-.49-1.89-.01-.04-.02-.07-.03-.11-.2-.67-.43-1.32-.67-1.97-.03-.07-.05-.13-.08-.2-.22-.57-.46-1.14-.71-1.69-.04-.09-.08-.19-.13-.28-.28-.59-.57-1.16-.88-1.73-.07-.13-.15-.25-.22-.38-.24-.42-.49-.84-.75-1.25-.12-.18-.23-.37-.35-.55-.31-.47-.64-.94-.98-1.39-.16-.22-.34-.43-.51-.65-.21-.26-.41-.52-.63-.77-.21-.25-.42-.49-.63-.73-.22-.24-.44-.47-.66-.7-.37-.38-.74-.76-1.13-1.12-.19-.18-.38-.36-.58-.53-.26-.23-.53-.47-.8-.69-.27-.22-.55-.44-.82-.65-.36-.28-.73-.55-1.11-.82-.28-.2-.57-.39-.86-.58Z"/>
          <path class="cls-1" d="M95.16,68.27c.1.1.2.2.31.31.3.3.59.6.87.91,1.84-1.86,3.43-3.94,4.74-6.2,1.12-1.94,2.01-3.96,2.67-6.06-.98,2.1-2.2,4.1-3.64,5.95,0,.01-.02.02-.03.04-1.32,1.71-2.83,3.29-4.52,4.71-.14.12-.27.24-.4.35Z"/>
          <path class="cls-1" d="M105.4,38.76c-.39-2.21-1.01-4.34-1.85-6.38.07.25.12.5.18.75.03.14.07.27.1.41.09.41.18.81.26,1.22.01.08.03.15.04.23.25,1.39.4,2.78.46,4.18,0,.06,0,.11,0,.17.02.4.02.8.02,1.2,0,.16,0,.33,0,.49,0,.36-.02.72-.03,1.08-.01.22-.03.44-.04.66-.02.32-.04.64-.08.96-.05.48-.11.95-.18,1.43-.03.19-.06.37-.09.56-.07.43-.15.87-.24,1.3-.04.17-.08.33-.11.49-.1.42-.2.84-.31,1.25-.04.15-.08.29-.12.43-.13.46-.28.93-.43,1.39-.03.09-.06.18-.09.27-.4,1.14-.86,2.26-1.4,3.36-.02.04-.04.07-.05.1-.24.49-.49.97-.76,1.45-.07.12-.14.24-.21.36-.22.39-.46.78-.7,1.16-.09.14-.18.29-.28.43-.24.37-.49.73-.75,1.09-.1.13-.19.27-.29.4-.36.48-.72.95-1.11,1.41-.41.48-.83.95-1.26,1.41-.15.16-.32.32-.48.48-.28.29-.57.58-.86.85-.2.19-.4.36-.61.54-.27.24-.53.48-.81.7-.22.18-.44.35-.66.53-.2.16-.39.32-.6.47.22.16.43.33.65.49.27.21.53.42.78.62.35.29.71.61,1.07.95.01.01.02.02.04.03.13-.11.27-.22.4-.33.23-.2.46-.4.69-.6.38-.34.76-.69,1.12-1.05.14-.13.27-.27.41-.4.27-.28.53-.55.79-.84,0,0,0,0,0-.01,1.94-2.15,3.56-4.56,4.82-7.16.03-.05.05-.1.08-.16.17-.35.33-.7.48-1.05.06-.15.12-.3.19-.45.2-.49.39-.99.57-1.49.1-.29.2-.59.3-.89.07-.22.15-.45.21-.67,1.29-4.42,1.59-9.14.76-13.84Z"/>
          <path class="cls-1" d="M76.03,59.52c-2.12-.46-4.28-.7-6.48-.7-4.3,0-8.5.9-12.38,2.63-.07.03-.14.06-.2.1-.52.24-1.04.49-1.55.76-.1.06-.21.11-.32.16-.5.27-.99.56-1.48.86-.09.06-.18.11-.27.17.14.12.28.25.42.37.41.35.85.68,1.29,1.02l.31.22s.05-.04.08-.05c.35-.24.7-.48,1.06-.71,0,0,0,0,0,0,5.93-3.8,12.8-5.4,19.51-4.82Z"/>
          <path class="cls-1" d="M103.32,35.09c-.06-.35-.14-.69-.21-1.03-.1-.45-.2-.89-.32-1.33-.09-.34-.18-.67-.28-1-.08-.27-.16-.53-.25-.8-.18-.55-.38-1.1-.6-1.65-.06-.16-.14-.32-.2-.48-.2-.48-.42-.96-.64-1.44-1.82-3.8-4.44-7.28-7.87-10.16-1.72-1.44-3.56-2.67-5.52-3.69.21.15.42.31.62.46.11.08.22.16.33.25.33.25.66.51.99.77.06.05.12.1.17.15,1.08.9,2.1,1.87,3.04,2.9.04.04.08.08.12.13.27.3.53.6.79.91.1.12.21.25.31.38.23.28.45.56.67.85.13.17.26.35.39.53.19.26.38.52.56.79.27.39.53.8.78,1.2.1.16.2.33.29.5.22.38.44.76.65,1.15.08.15.15.3.23.45.2.38.39.77.57,1.16.06.14.13.28.19.41.2.44.38.89.56,1.34.03.09.07.18.1.26.43,1.13.79,2.29,1.09,3.47,0,.04.02.08.03.11.13.53.24,1.06.35,1.6.03.14.05.27.07.41.08.44.15.89.21,1.34.02.17.05.34.06.51.05.44.09.88.12,1.32.01.17.03.33.04.49.03.6.06,1.19.06,1.8s-.02,1.21-.05,1.81c-.01.19-.03.38-.05.58-.03.41-.06.81-.1,1.21-.03.23-.07.45-.1.68-.05.36-.09.73-.16,1.09-.04.24-.09.47-.14.71-.07.35-.13.69-.21,1.03-.05.24-.12.47-.18.71-.09.34-.17.67-.27,1.01-.07.23-.15.46-.22.69-.1.33-.21.66-.32.99-.08.23-.17.45-.26.67-.12.33-.25.65-.38.97-.09.22-.19.43-.29.64-.14.32-.29.64-.44.96-.1.21-.21.41-.32.61-.16.32-.33.64-.5.95-.11.2-.23.39-.34.58-.19.31-.37.63-.57.93-.12.18-.24.36-.37.55-.21.31-.41.62-.63.92-.12.17-.26.34-.39.51-.23.3-.46.6-.7.9-.13.16-.27.32-.4.47-.25.3-.5.59-.77.88-.13.15-.27.29-.41.43-.28.29-.55.58-.84.86-.14.13-.28.27-.42.4-.3.28-.6.56-.91.83-.14.12-.29.24-.43.36-.22.18-.42.37-.64.54.8.46,1.59.96,2.36,1.51.26-.19.52-.39.78-.6.19-.15.38-.29.57-.45.31-.26.61-.53.91-.8.16-.15.33-.29.5-.44.32-.29.62-.6.92-.91.14-.14.28-.27.41-.41.43-.45.85-.92,1.25-1.4.44-.52.85-1.05,1.24-1.6.1-.13.19-.26.28-.39.36-.51.71-1.03,1.04-1.56.02-.03.04-.07.06-.1.36-.59.7-1.19,1.02-1.81.04-.08.08-.16.13-.25.3-.58.57-1.16.83-1.76.02-.04.03-.07.05-.11.27-.64.52-1.28.75-1.94.02-.07.05-.14.07-.21.2-.58.38-1.16.54-1.75.03-.1.06-.2.08-.3.17-.62.31-1.25.44-1.89.03-.15.05-.29.08-.44.09-.48.16-.96.23-1.44.03-.22.06-.44.08-.65.06-.56.11-1.13.14-1.69.02-.28.02-.55.03-.83,0-.33.01-.66.01-.99,0-.32,0-.65-.02-.97-.01-.32-.03-.63-.06-.95-.04-.53-.08-1.07-.15-1.6-.03-.26-.06-.52-.1-.77-.05-.35-.1-.7-.17-1.04Z"/>
        </g>
      </g>
    </g>
  </g>
</svg>