<svg width="284" height="287" viewBox="0 0 284 287" fill="none" xmlns="http://www.w3.org/2000/svg">
<path d="M41.8107 91.7314L62.5169 77.8901C63.9924 71.0831 71.4056 68.2034 72.5691 61.4232C66.8008 61.6996 63.5288 57.2196 64.826 51.6741C65.2183 49.998 66.1633 49.4096 66.6358 48.1391C68.4011 43.3961 64.6833 41.0291 64.135 37.0884C63.6893 33.8744 64.9686 31.4895 64.9151 29.0912C64.875 27.3884 63.1632 24.3928 62.8735 22.3021C62.1959 17.3718 63.4886 14.4698 65.4411 10.1592C66.6314 10.0388 66.1544 10.1503 66.3193 10.8234C66.6492 12.1919 67.1574 15.4728 67.0013 16.7923C66.6536 19.721 64.5674 21.62 65.0934 25.4225C65.7175 29.9248 69.4085 30.8609 70.9732 33.8164C72.2659 36.2593 72.5111 39.7319 74.419 42.1792C78.8991 42.6472 82.8887 42.4199 86.9854 44.5462C94.042 48.2105 94.0331 51.4825 103.983 51.6385C111.03 51.7499 107.299 45.4467 109.207 42.1123C109.724 41.2029 113.322 39.1122 114.423 37.9666C118.221 34.0126 117.445 29.6886 119.678 25.0302L117.146 12.3836C117.516 11.9646 118.782 13.3955 118.925 13.5961C120.155 15.348 120.262 17.4922 121.034 19.4179C124.252 27.4374 130.337 39.7586 139.765 41.2519C143.238 41.8002 146.175 40.5164 149.697 41.5729C152.287 42.353 155.216 45.7498 157.498 45.8479C159.932 45.9504 162.709 43.8954 164.804 43.405C166.899 42.9147 169.783 44.1807 171.745 44.2475C180.059 44.5284 180.362 33.6604 186.108 29.8624C190.178 27.1744 195.184 26.528 199.316 24.3482C203.448 22.1683 211 14.2068 214.985 13.7165C215.97 13.5961 220.606 13.3643 219.465 15.0761C218.836 16.0211 215.515 17.7953 214.548 18.6289C208.905 23.5146 198.349 36.1434 196.285 43.1599C195.402 46.1688 196.04 48.6964 195.505 51.2952C195.144 53.0382 192.603 55.1735 193.253 56.8273C194.199 59.2345 199.922 60.2865 202.093 62.2969C204.968 64.9582 204.884 69.7324 207.643 72.6656C208.182 73.2362 211.383 75.4696 211.945 75.5676C215.395 76.1471 222.817 67.2183 227.355 65.7606C234.149 63.5763 237.858 65.8498 243.92 65.3817C245.668 65.248 249.216 64.4545 250.972 63.9686C253.692 63.2152 256.188 61.7308 258.903 60.9864L253.277 66.251C244.669 74.3596 231.251 71.52 222.643 77.9882C222.135 78.3715 221.734 78.4607 221.908 79.2542C227.061 79.6108 229.236 84.7684 232.927 87.6659L244.91 86.8814C250.411 86.9661 258.149 90.2247 262.045 94.1742C265.941 98.1238 268.246 104.703 273.939 107.244C276.529 108.399 278.414 107.579 280.032 110.958C280.38 111.689 281.847 115.527 280.086 114.475C277.469 112.915 274.135 110.178 271.054 109.683C266.467 108.947 261.096 111.542 256.696 108.885C254.03 107.276 250.379 102.631 247.767 101.766C244.571 100.709 237.898 101.489 234.639 102.47C231.987 103.268 229.531 104.864 226.843 105.608C226.575 105.978 228.224 113.093 228.167 114.68C228.091 116.659 226.597 118.545 226.495 119.659C226.41 120.542 227.034 121.331 226.718 122.615C226.468 123.635 224.502 125.115 224.614 125.789C228.728 128.485 225.898 130.447 226.557 133.206C227.181 135.818 230.239 137.842 231.171 139.768C232.103 141.694 231.822 144.868 232.74 147.114C233.418 148.768 236.404 151.791 236.195 153.427C236.159 153.707 235.442 153.716 235.312 154.051C233.779 158.072 233.257 161.731 228.559 163.711C227.565 164.13 224.119 164.459 223.678 165.168C221.952 167.932 226.005 172.118 225.452 173.95C225.229 174.699 224.048 174.467 223.776 174.779C223.504 175.091 223.785 175.858 223.678 175.996C223.611 176.081 222.683 175.666 222.042 175.889C221.346 176.13 216.296 179.781 216.157 180.329L218.77 186.222C216.492 187.305 215.64 189.387 213.295 190.8C209.903 192.846 201.643 193.35 203.48 199.114C204.416 202.056 211.584 203.126 214.437 204.994C215.382 205.613 218.721 208.925 219.452 209.884C219.795 210.33 220.316 210.45 220.116 211.221C218.658 211.703 217.33 210.12 216.269 210.009C215.128 209.893 212.128 211.092 210.527 211.212C207.072 211.48 205.526 210.94 202.597 209.349C197.421 206.532 188.1 196.907 184.543 206.46C185.551 208.168 187.347 211.003 187.351 212.964C187.351 214.19 186.139 216.53 186.032 217.85C185.769 221.046 190.075 224.978 191.368 227.71C192.661 230.443 192.389 233.809 193.637 236.586C195.491 240.727 202.227 245.706 205.976 248.318C208.16 249.839 211.61 251.015 213.434 252.897C218.083 257.698 218.698 263.221 219.22 269.613C217.285 268.276 216.202 266.19 213.871 265.383C206.056 262.677 197.644 266.136 191.448 258.803C189.277 256.235 187.494 252.036 185.363 249.758C182.782 246.995 177.651 245.434 175.088 242.202C172.525 238.971 171.201 232.587 169.043 229.97C167.626 228.25 164.421 227.091 163.284 225.923C162.344 224.96 161.795 221.042 160.574 219.272C160.03 218.487 155.786 214.765 155.055 214.538C152.973 213.891 147.254 215.059 146.336 217.007C145.649 218.469 146.01 221.238 144.713 223.409C143.447 225.539 139.992 227.389 138.954 229.685C137.349 233.233 138.548 237.758 137.893 241.552C137.688 242.728 135.405 248.497 134.309 248.212C130.56 243.486 129.579 239.965 130.288 233.942C130.769 229.863 133.596 223.342 133.145 219.949C132.954 218.523 130.154 214.373 128.857 213.98C126.338 213.223 123.65 215.434 121.47 215.148C120.677 215.046 118.493 212.59 117.138 211.885C111.663 209.032 108.284 209.558 103.024 212.478C96.4224 216.138 95.522 223.342 90.8413 228.825C88.3361 231.758 84.4891 233.051 80.7847 231.749C79.2913 229.137 82.0819 227.456 82.2914 226.057C82.4875 224.755 81.3464 223.239 82.1577 221.47C83.1161 219.374 89.0315 218.077 90.5471 216.009C91.403 213.936 90.9394 203.175 90.0612 201.071C88.5411 197.42 83.1428 194.09 79.5009 192.909C78.324 192.53 73.7281 191.482 72.8945 192.008C72.15 193.519 70.5096 193.854 69.4487 194.941C66.7785 197.683 67.2242 202.395 65.1024 205.431L56.4365 209.122C53.4409 209.656 49.8703 210.196 47.0351 211.31C45.1718 212.041 44.3917 213.209 42.7022 213.882C42.4749 213.637 43.8701 208.386 43.9192 207.298C44.0529 204.191 43.0187 202.11 44.1421 198.606C46.6562 190.765 54.8317 190.002 57.2122 184.484C58.5094 181.475 57.3281 179.059 57.9521 176.308C58.3489 174.565 61.8482 172.367 60.5733 170.504C57.3191 167.879 53.695 170.388 50.3874 170.531C46.3219 170.709 42.3991 170.326 38.1241 171.195C34.3707 171.957 30.6485 175.532 26.6766 176.241C24.528 176.625 22.4017 176.161 20.3823 176.634C16.5977 177.521 12.3717 181.118 7.14281 182.117C6.26909 182.286 4.49046 182.651 3.69252 182.237C3.23337 181.35 6.8486 179.785 7.45485 179.308C9.76396 177.494 18.3095 167.959 19.883 165.436C22.0049 162.034 22.785 157.858 25.1253 154.63C26.4092 152.86 30.1358 150.476 30.8446 149.223C31.9457 147.284 32.0705 143.477 33.702 141.364C33.9026 140.285 32.1374 140.142 31.9947 139.576C31.6381 138.177 32.8729 135.297 32.0215 134.744C31.2993 134.276 29.0437 134.642 27.8713 134.437C26.6187 134.218 24.9961 133.023 24.0154 132.961C23.5161 132.93 20.9975 133.973 19.7359 134.084C18.675 134.178 16.2901 134.281 15.3718 134.009C13.1518 133.344 14.1816 129.288 12.8353 128.521L5.44887 126.992L5.31068 125.682C7.61979 124.117 10.3078 123.109 12.6882 121.692C17.6408 118.745 22.6379 116.672 27.2561 113.971C29.806 112.478 31.8922 109.812 34.1701 108.403C36.448 106.995 39.3232 106.429 41.6725 105.207C45.7468 103.09 49.1838 99.3853 53.3919 97.3125L53.8822 96.4209C54.1408 95.0792 49.9862 91.7492 49.1659 91.7492H41.8107V91.7314ZM196.784 70.4903C159.727 33.6114 94.7151 41.2653 69.5244 87.5723C35.1597 150.743 95.8474 224.015 164.403 202.065C220.455 184.118 238.981 112.482 196.784 70.4903Z" fill="#BF0000"/>
<path d="M213.879 31.1017C212.992 30.2681 218.841 26.1714 219.527 25.8326C223.316 23.9604 228.229 23.9158 231.706 20.8533C231.055 23.3898 228.648 24.4106 227.03 25.7568C225.964 26.6439 225.269 27.7762 224.003 28.5251C220.932 30.3483 217.232 30.1611 213.884 31.1061L213.879 31.1017Z" fill="#BF0000"/>
<path d="M231.933 7.03432C231.79 7.03432 228.554 7.96153 229.927 6.593C230.863 5.66133 242.645 4.72521 243.296 5.25122C243.915 6.38349 239.961 7.02986 239.511 7.02986C236.988 7.02986 234.456 6.98974 231.933 7.02986V7.03432Z" fill="#BF0000"/>
<path d="M30.2201 93.519C29.7877 96.1981 21.5409 97.5488 20.8633 95.9618C23.6717 94.2411 26.9258 93.5279 30.2201 93.519Z" fill="#BF0000"/>
<path d="M12.3892 149.687C10.6774 152.161 7.58375 153.654 4.81104 154.581C6.5451 152.165 9.54516 150.471 12.3892 149.687Z" fill="#BF0000"/>
<path d="M224.573 285.193C223.521 285.483 223.423 284.444 223.174 283.722C222.612 282.09 221.975 279.799 221.908 278.065L224.368 282.064L224.578 285.193H224.573Z" fill="#BF0000"/>
</svg>
