<?xml version="1.0" encoding="UTF-8"?>
<svg id="Layer_2" data-name="Layer 2" xmlns="http://www.w3.org/2000/svg" viewBox="0 0 202.32 44.97">
  <g id="_レイヤー_2" data-name="レイヤー 2">
    <g>
      <g>
        <g>
          <path class="cls-1" d="M53.15,13.97v3.25l3.13-3.25h.74l-2.83,2.94,3.22,3.54h-.78l-2.84-3.13-.64.65v2.48h-.59v-6.48h.59Z"/>
          <path class="cls-1" d="M57.82,13.97h.68l2.06,3.33,2.06-3.33h.65l-2.43,3.88v2.6h-.59v-2.6l-2.43-3.88Z"/>
          <path class="cls-1" d="M64.84,13.97h.59v3.49c0,1.79.83,2.6,2.08,2.6s2.09-.81,2.09-2.6v-3.49h.59v3.48c0,2.18-1.08,3.16-2.69,3.16s-2.68-.98-2.68-3.16v-3.48Z"/>
          <path class="cls-1" d="M72.16,19.27c.41.4,1.09.79,1.9.79s1.45-.49,1.45-1.25c0-.72-.36-1.17-1.59-1.5-1.1-.3-1.71-.97-1.71-1.86s.77-1.62,1.95-1.62c.63,0,1.26.27,1.62.54l-.13.51c-.43-.3-1.03-.52-1.49-.52-.84,0-1.35.45-1.35,1.09,0,.53.3.99,1.35,1.27,1.26.34,1.94.96,1.94,2.01,0,1.23-1.05,1.86-2.05,1.86-.94,0-1.66-.38-2.02-.72l.12-.59Z"/>
          <path class="cls-1" d="M78.54,13.97v2.81h3.87v-2.81h.59v6.48h-.59v-3.14h-3.87v3.14h-.59v-6.48h.59Z"/>
          <path class="cls-1" d="M85.16,13.97h.59v3.49c0,1.79.83,2.6,2.08,2.6s2.09-.81,2.09-2.6v-3.49h.59v3.48c0,2.18-1.08,3.16-2.69,3.16s-2.68-.98-2.68-3.16v-3.48Z"/>
          <path class="cls-1" d="M95.19,13.97h.59v3.49c0,1.79.83,2.6,2.08,2.6s2.09-.81,2.09-2.6v-3.49h.59v3.48c0,2.18-1.08,3.16-2.69,3.16s-2.68-.98-2.68-3.16v-3.48Z"/>
          <path class="cls-1" d="M103.13,13.97l3.92,5.28v-5.28h.56v6.48h-.41l-3.92-5.28v5.28h-.56v-6.48h.41Z"/>
          <path class="cls-1" d="M110.36,13.97v6.48h-.59v-6.48h.59Z"/>
          <path class="cls-1" d="M112.61,13.97l2.3,5.57,2.28-5.57h.62l-2.68,6.48h-.49l-2.68-6.48h.65Z"/>
          <path class="cls-1" d="M123.07,13.97v.53h-3.08v2.28h2.54v.53h-2.54v2.61h3.08v.53h-3.67v-6.48h3.67Z"/>
          <path class="cls-1" d="M128.23,19.18c.41.74.81.85,1.34.85.09,0,.16,0,.25-.01v.46c-.16.03-.32.04-.48.04-.69,0-1.25-.36-1.69-1.19l-.83-1.57h-1.21v2.68h-.59v-6.48h2.01c1.39,0,2,.89,2,1.9,0,.92-.49,1.71-1.58,1.87l.79,1.44ZM128.42,15.87c0-.67-.33-1.37-1.4-1.37h-1.41v2.74h1.41c1.07,0,1.4-.69,1.4-1.37Z"/>
          <path class="cls-1" d="M131.08,19.27c.41.4,1.09.79,1.9.79s1.45-.49,1.45-1.25c0-.72-.36-1.17-1.59-1.5-1.1-.3-1.71-.97-1.71-1.86s.77-1.62,1.95-1.62c.63,0,1.26.27,1.62.54l-.13.51c-.43-.3-1.03-.52-1.49-.52-.84,0-1.35.45-1.35,1.09,0,.53.3.99,1.35,1.27,1.26.34,1.94.96,1.94,2.01,0,1.23-1.05,1.86-2.05,1.86-.94,0-1.66-.38-2.02-.72l.12-.59Z"/>
          <path class="cls-1" d="M137.46,13.97v6.48h-.59v-6.48h.59Z"/>
          <path class="cls-1" d="M139.01,14.5v-.53h5.22v.53h-2.31v5.95h-.59v-5.95h-2.31Z"/>
          <path class="cls-1" d="M145.18,13.97h.68l2.06,3.33,2.06-3.33h.65l-2.43,3.88v2.6h-.59v-2.6l-2.43-3.88Z"/>
          <path class="cls-1" d="M155.31,13.97v6.48h-.59v-6.48h.59Z"/>
          <path class="cls-1" d="M157.88,13.97l3.92,5.28v-5.28h.56v6.48h-.41l-3.92-5.28v5.28h-.56v-6.48h.41Z"/>
          <path class="cls-1" d="M164.31,19.27c.41.4,1.09.79,1.9.79s1.45-.49,1.45-1.25c0-.72-.36-1.17-1.59-1.5-1.1-.3-1.71-.97-1.71-1.86s.77-1.62,1.95-1.62c.63,0,1.26.27,1.62.54l-.13.51c-.43-.3-1.03-.52-1.49-.52-.84,0-1.35.45-1.35,1.09,0,.53.3.99,1.35,1.27,1.26.34,1.94.96,1.94,2.01,0,1.23-1.05,1.86-2.05,1.86-.94,0-1.66-.38-2.02-.72l.12-.59Z"/>
          <path class="cls-1" d="M169.28,14.5v-.53h5.22v.53h-2.31v5.95h-.59v-5.95h-2.31Z"/>
          <path class="cls-1" d="M176.64,13.97v6.48h-.59v-6.48h.59Z"/>
          <path class="cls-1" d="M178.19,14.5v-.53h5.22v.53h-2.31v5.95h-.59v-5.95h-2.31Z"/>
          <path class="cls-1" d="M184.96,13.97h.59v3.49c0,1.79.83,2.6,2.08,2.6s2.1-.81,2.1-2.6v-3.49h.59v3.48c0,2.18-1.08,3.16-2.69,3.16s-2.68-.98-2.68-3.16v-3.48Z"/>
          <path class="cls-1" d="M191.88,14.5v-.53h5.22v.53h-2.31v5.95h-.59v-5.95h-2.31Z"/>
          <path class="cls-1" d="M202.32,13.97v.53h-3.08v2.28h2.54v.53h-2.54v2.61h3.08v.53h-3.67v-6.48h3.67Z"/>
        </g>
        <g>
          <path class="cls-1" d="M54.22,26.68v.4c-.11-.02-.22-.04-.31-.04-.49,0-.68.21-.68,1.05v1.45h.99v.43h-.99v3.25h-.55v-3.25h-.76v-.43h.76v-1.45c0-1.06.4-1.48,1.16-1.48.14,0,.28.03.39.08Z"/>
          <path class="cls-1" d="M57.19,33.36c-1.15,0-2.02-.91-2.02-2s.87-1.99,2.02-1.99,2.03.9,2.03,1.99-.86,2-2.03,2ZM57.19,29.85c-.85,0-1.47.63-1.47,1.51s.62,1.52,1.47,1.52,1.48-.63,1.48-1.52-.62-1.51-1.48-1.51Z"/>
          <path class="cls-1" d="M61.27,31.02v2.19h-.55v-3.66l.45-.1.06.75c.27-.42.85-.81,1.44-.81v.6c-.68-.11-1.4.38-1.4,1.03Z"/>
          <path class="cls-1" d="M66.38,33.21h-.62l2.68-6.48h.49l2.68,6.48h-.65l-.78-1.88h-3.03l-.77,1.88ZM68.66,27.62l-1.3,3.19h2.6l-1.31-3.19Z"/>
          <path class="cls-1" d="M72.73,32.03c.41.4,1.09.79,1.9.79s1.45-.49,1.45-1.25c0-.72-.36-1.17-1.59-1.5-1.1-.3-1.71-.97-1.71-1.86s.77-1.62,1.95-1.62c.63,0,1.26.27,1.62.54l-.13.51c-.43-.3-1.03-.52-1.49-.52-.84,0-1.35.45-1.35,1.09,0,.53.3.99,1.35,1.27,1.26.34,1.94.96,1.94,2.01,0,1.23-1.05,1.86-2.05,1.86-.94,0-1.66-.38-2.02-.72l.12-.59Z"/>
          <path class="cls-1" d="M78.84,26.73v6.48h-.59v-6.48h.59Z"/>
          <path class="cls-1" d="M80.78,33.21h-.62l2.68-6.48h.49l2.68,6.48h-.65l-.78-1.88h-3.03l-.77,1.88ZM83.06,27.62l-1.3,3.19h2.6l-1.31-3.19Z"/>
          <path class="cls-1" d="M87.75,26.73l3.92,5.28v-5.28h.56v6.48h-.41l-3.92-5.28v5.28h-.56v-6.48h.41Z"/>
          <path class="cls-1" d="M99.05,33.29c-.39,0-.61-.18-.63-.68-.58.54-1.1.7-1.52.7-.51,0-.92-.36-.92-.91,0-.89,1.13-1.35,2.44-1.47v-.27c0-.58-.23-.82-.84-.82-.37,0-.95.22-1.34.45v-.51c.32-.18.98-.41,1.43-.41.78,0,1.31.29,1.31,1.28v1.92c0,.23.08.32.24.32.1,0,.18-.02.24-.05v.28c-.09.1-.23.15-.4.15ZM98.42,31.34c-1.19.11-1.92.52-1.92,1.03,0,.38.3.5.63.5.23,0,.76-.17,1.3-.67v-.85Z"/>
          <path class="cls-1" d="M103.69,33.21v-2.23c0-.79-.37-1.09-.92-1.09s-1.36.49-1.36,1.13v2.19h-.55v-3.66l.45-.1.06.75c.27-.42.88-.81,1.5-.81.99,0,1.36.69,1.36,1.55v2.27h-.55Z"/>
          <path class="cls-1" d="M109.62,33.29c-.38,0-.58-.21-.62-.62-.39.5-.92.68-1.46.68-.98,0-1.77-.85-1.77-1.99s.79-1.98,1.77-1.98c.55,0,1.07.18,1.46.66v-3.29l.55-.1v5.93c0,.23.08.32.24.32.1,0,.17-.02.24-.05v.28c-.09.1-.23.15-.41.15ZM109,30.64c-.26-.48-.79-.79-1.35-.79-.71,0-1.33.53-1.33,1.51s.62,1.52,1.33,1.52c.56,0,1.08-.32,1.35-.79v-1.46Z"/>
          <path class="cls-1" d="M116.75,26.57c1.9,0,3.32,1.43,3.32,3.4s-1.41,3.4-3.32,3.4-3.31-1.41-3.31-3.4,1.4-3.4,3.31-3.4ZM116.75,27.12c-1.56,0-2.7,1.14-2.7,2.85s1.13,2.85,2.7,2.85,2.7-1.14,2.7-2.85-1.16-2.85-2.7-2.85Z"/>
          <path class="cls-1" d="M124.64,26.59c.77,0,1.61.26,2.13.65v.63c-.53-.41-1.21-.72-2.13-.72-1.57,0-2.7,1.13-2.7,2.83s1.13,2.83,2.7,2.83c.92,0,1.6-.31,2.13-.72v.63c-.52.39-1.36.65-2.13.65-1.8,0-3.31-1.28-3.31-3.38s1.51-3.38,3.31-3.38Z"/>
          <path class="cls-1" d="M132.07,26.73v.53h-3.08v2.28h2.54v.53h-2.54v2.61h3.08v.53h-3.67v-6.48h3.67Z"/>
          <path class="cls-1" d="M133.8,33.21h-.62l2.68-6.48h.49l2.68,6.48h-.65l-.78-1.88h-3.04l-.77,1.88ZM136.07,27.62l-1.3,3.19h2.6l-1.31-3.19Z"/>
          <path class="cls-1" d="M140.76,26.73l3.92,5.28v-5.28h.56v6.48h-.41l-3.92-5.28v5.28h-.56v-6.48h.41Z"/>
          <path class="cls-1" d="M147.72,26.73v6.48h-.59v-6.48h.59Z"/>
          <path class="cls-1" d="M149.66,33.21h-.62l2.68-6.48h.49l2.68,6.48h-.65l-.78-1.88h-3.03l-.77,1.88ZM151.94,27.62l-1.3,3.19h2.6l-1.31-3.19Z"/>
          <path class="cls-1" d="M156.63,26.73l3.92,5.28v-5.28h.56v6.48h-.41l-3.92-5.28v5.28h-.56v-6.48h.41Z"/>
          <path class="cls-1" d="M165.04,32.03c.41.4,1.09.79,1.9.79s1.45-.49,1.45-1.25c0-.72-.36-1.17-1.59-1.5-1.1-.3-1.71-.97-1.71-1.86s.77-1.62,1.95-1.62c.63,0,1.26.27,1.62.54l-.13.51c-.43-.3-1.03-.52-1.49-.52-.84,0-1.35.45-1.35,1.09,0,.53.3.99,1.35,1.27,1.26.34,1.94.96,1.94,2.01,0,1.23-1.05,1.86-2.05,1.86-.94,0-1.66-.38-2.02-.72l.12-.59Z"/>
          <path class="cls-1" d="M169.73,27.26v-.53h5.22v.53h-2.31v5.95h-.59v-5.95h-2.31Z"/>
          <path class="cls-1" d="M176.23,26.73h.59v3.49c0,1.79.83,2.6,2.08,2.6s2.09-.81,2.09-2.6v-3.49h.59v3.48c0,2.18-1.08,3.16-2.69,3.16s-2.68-.98-2.68-3.16v-3.48Z"/>
          <path class="cls-1" d="M185.38,26.73c2.43,0,3.47,1.46,3.47,3.24s-1.04,3.24-3.47,3.24h-1.9v-6.48h1.9ZM188.23,29.97c0-1.41-.7-2.68-2.84-2.68h-1.32v5.36h1.32c2.14,0,2.84-1.26,2.84-2.68Z"/>
          <path class="cls-1" d="M191.02,26.73v6.48h-.59v-6.48h.59Z"/>
          <path class="cls-1" d="M196.58,26.73v.53h-3.08v2.28h2.54v.53h-2.54v2.61h3.08v.53h-3.67v-6.48h3.67Z"/>
          <path class="cls-1" d="M198.05,32.03c.41.4,1.09.79,1.9.79s1.45-.49,1.45-1.25c0-.72-.36-1.17-1.59-1.5-1.1-.3-1.71-.97-1.71-1.86s.77-1.62,1.95-1.62c.63,0,1.26.27,1.62.54l-.13.51c-.43-.3-1.03-.52-1.49-.52-.84,0-1.35.45-1.35,1.09,0,.53.3.99,1.35,1.27,1.26.34,1.94.96,1.94,2.01,0,1.23-1.05,1.86-2.05,1.86-.94,0-1.66-.38-2.02-.72l.12-.59Z"/>
        </g>
      </g>
      <g>
        <g>
          <path class="cls-1" d="M17.94,22.29v-.54h1.48v.54h-1.48Z"/>
          <path class="cls-1" d="M23.35,24.24l-.43-1.05h-1.72l-.43,1.05h-.84l1.81-4.25h.67l1.81,4.25h-.86ZM22.06,21.04l-.63,1.55h1.25l-.62-1.55Z"/>
          <path class="cls-1" d="M26.72,24.36c-1.3,0-2.32-.94-2.32-2.25s1.01-2.25,2.32-2.25,2.3.94,2.3,2.25-1,2.25-2.3,2.25ZM26.72,20.55c-.85,0-1.41.64-1.41,1.56s.56,1.56,1.41,1.56,1.39-.64,1.39-1.56-.55-1.56-1.39-1.56Z"/>
          <path class="cls-1" d="M31.15,24.33c-.71,0-1.22-.28-1.51-.53l.2-.68c.28.27.73.57,1.31.57.43,0,.75-.21.75-.59,0-.35-.2-.54-.89-.71-.89-.22-1.25-.69-1.25-1.3,0-.69.55-1.2,1.47-1.2.52,0,.99.2,1.28.42l-.18.6c-.3-.2-.72-.37-1.1-.37-.42,0-.67.18-.67.49,0,.25.15.44.73.58.99.25,1.42.67,1.42,1.4,0,.91-.75,1.31-1.55,1.31Z"/>
          <path class="cls-1" d="M16.73,22.11c0-1.24-1.01-2.25-2.25-2.25s-2.25,1.01-2.25,2.25,1.01,2.25,2.25,2.25c.37,0,.73-.09,1.04-.25.16.22.26.51.29.82h.9c-.06-.49-.28-.93-.6-1.27.38-.4.62-.95.62-1.55ZM14.48,20.58c.85,0,1.53.69,1.53,1.53,0,.44-.18.83-.47,1.11-.32-.17-.68-.26-1.06-.26s-.74.1-1.06.26c-.29-.28-.47-.67-.47-1.11,0-.85.69-1.53,1.53-1.53Z"/>
        </g>
        <g>
          <path class="cls-1" d="M27.01,41.82l1.22.8.13-.24-.24-.87.5-.14.66,2.44-.5.14-.29-1.08-.72,1.36-.54.15.75-1.37-1.58-1.02.61-.16Z"/>
          <path class="cls-1" d="M25.29,43.16l-.15-1,.51-.08.15,1,1.2,1.35-.55.08-.85-.98-.52,1.19-.54.08.75-1.65Z"/>
          <path class="cls-1" d="M22.79,42.26c.67-.01,1.17.36,1.18,1.22l.02,1.36h-.52s-.02-1.33-.02-1.33c0-.55-.25-.81-.66-.8-.41,0-.64.28-.63.82l.02,1.34h-.5s-.02-1.35-.02-1.35c-.01-.85.47-1.25,1.14-1.26Z"/>
          <path class="cls-1" d="M20.42,42.18c.42.04.7.24.86.41l-.16.39c-.15-.18-.4-.38-.74-.42-.25-.03-.46.08-.48.3-.02.21.08.33.48.47.51.18.69.49.66.85-.04.41-.4.67-.94.62-.31-.03-.57-.18-.73-.33l.15-.34c.16.14.4.26.63.29.25.03.4-.07.42-.25.02-.15-.06-.27-.4-.39-.57-.21-.8-.48-.75-.92.06-.54.52-.73,1-.68Z"/>
          <path class="cls-1" d="M17.49,41.72l-.24,1.09,1.16.26.24-1.09.5.11-.55,2.47-.5-.11.21-.95-1.16-.26-.21.95-.5-.11.55-2.47.5.11Z"/>
          <path class="cls-1" d="M15.47,41c.62.23.95.77.66,1.57l-.48,1.27-.49-.18.47-1.26c.19-.51.06-.84-.32-.99-.39-.14-.7.02-.89.53l-.47,1.26-.47-.18.48-1.27c.3-.8.89-.99,1.52-.75Z"/>
          <path class="cls-1" d="M12.34,39.5c.57.34.81.92.37,1.66l-.69,1.17-.45-.27.68-1.16c.28-.47.21-.82-.14-1.03-.36-.21-.69-.1-.97.37l-.68,1.16-.43-.25.69-1.17c.43-.74,1.05-.81,1.63-.48Z"/>
          <path class="cls-1" d="M9.52,37.6v2.13s1.04-1.31,1.04-1.31l.36.28-1.57,1.98-.28-.22v-2.13l-1.04,1.31-.36-.29,1.57-1.98.28.22Z"/>
          <path class="cls-1" d="M8.89,37.02l-1.74,1.83-.37-.35,1.74-1.83.37.35Z"/>
          <path class="cls-1" d="M7.34,35.41l.26.29-1.2,2.47-.35-.4.87-1.76-1.86.63-.34-.38,2.61-.86Z"/>
          <path class="cls-1" d="M6.52,34.39l-2.06,1.47-.95-1.34.33-.23.66.92.48-.34-.53-.75.33-.23.53.75.6-.42-.66-.92.33-.23.95,1.34Z"/>
          <path class="cls-1" d="M4.52,31.09c.14.27.15.54-.09.88l-.35.49.14.26.89-.48.24.45-2.22,1.2-.47-.87c-.28-.53-.09-.92.26-1.11.32-.17.66-.12.89.15l.26-.42c.13-.22.14-.36.06-.51-.02-.04-.05-.08-.09-.12l.29-.15c.07.07.14.16.18.24ZM3.91,32.89l-.19-.35c-.15-.28-.35-.3-.55-.2-.2.11-.3.29-.15.57l.19.35.7-.38Z"/>
          <path class="cls-1" d="M4.03,29.88c.16.39.12.73.04.95l-.42.04c.09-.22.15-.53.02-.85-.09-.23-.28-.37-.49-.28-.2.08-.25.23-.19.65.08.54-.1.84-.44.98-.38.15-.78-.04-.99-.54-.12-.29-.11-.59-.05-.8l.37-.03c-.04.21-.04.48.04.69.09.23.25.33.42.26.14-.06.21-.18.16-.53-.08-.6.05-.93.46-1.09.5-.2.89.12,1.07.56Z"/>
          <path class="cls-1" d="M3.53,28.69l-2.41.76-.16-.49,2.41-.76.16.49Z"/>
          <path class="cls-1" d="M.9,27.09l2.07-.47.11.5-2.07.47.19.83-.39.09-.49-2.17.39-.09.19.83Z"/>
          <path class="cls-1" d="M1.61,24.42l1-.11.05.51-1,.11-1.4,1.14-.06-.56,1.02-.81-1.17-.57-.06-.54,1.61.82Z"/>
          <path class="cls-1" d="M2.53,22.38L0,22.34v-.51s2.53.04,2.53.04v.51Z"/>
          <path class="cls-1" d="M2.72,19.6l-1.8,1.14,1.66.18-.05.46L.02,21.1l.04-.36,1.8-1.14-1.66-.18.05-.46,2.51.27-.04.36Z"/>
          <path class="cls-1" d="M3.07,18.06c-.09.41-.32.67-.51.8l-.37-.2c.19-.13.43-.35.5-.68.06-.25-.02-.46-.24-.51-.21-.05-.34.04-.53.42-.24.49-.57.63-.92.55-.4-.09-.62-.48-.5-1.01.07-.3.25-.55.41-.68l.32.19c-.15.15-.31.37-.36.59-.05.24.02.41.2.45.14.03.27-.03.43-.35.27-.54.57-.73,1-.64.53.12.66.61.56,1.07Z"/>
          <path class="cls-1" d="M1.65,15.13l2.01.68-.16.49-2.01-.68-.27.81-.38-.13.71-2.11.38.13-.27.81Z"/>
          <path class="cls-1" d="M4.07,14.76l-2.32-1,.2-.47,2.32,1-.2.47Z"/>
          <path class="cls-1" d="M3.12,11.82l1.88,1-.24.45-1.88-1-.4.75-.35-.19,1.05-1.96.35.19-.4.75Z"/>
          <path class="cls-1" d="M6.26,10.95c-.39.54-.98.73-1.68.23l-1.11-.79.3-.43,1.1.78c.45.32.8.28,1.04-.06.24-.34.16-.68-.29-1l-1.1-.78.29-.41,1.11.79c.7.49.72,1.12.34,1.66Z"/>
          <path class="cls-1" d="M6.39,7.33l1.56,1.44-.35.38-1.56-1.44-.58.63-.29-.27,1.51-1.64.29.27-.58.63Z"/>
          <path class="cls-1" d="M8.72,7.98l-1.66-1.9,1.24-1.08.26.3-.85.75.39.45.69-.61.26.3-.69.61.48.55.85-.75.26.3-1.24,1.08Z"/>
          <path class="cls-1" d="M10.68,4.99l.63.94-.39.26-.63-.94-.21.14-.17-.25.21-.14-.3-.45c-.23-.35-.13-.64.18-.84.05-.03.14-.07.18-.09l.17.25s-.07.02-.11.05c-.13.08-.15.19-.03.37l.3.45.29-.2.17.25-.29.2Z"/>
          <path class="cls-1" d="M12.49,5.26c-.41.24-.9.13-1.12-.25-.22-.39-.07-.86.34-1.1.4-.23.9-.14,1.12.25.22.39.07.87-.34,1.1ZM11.88,4.21c-.19.11-.24.33-.11.56.13.23.35.3.54.19.2-.11.24-.33.11-.56-.13-.23-.34-.3-.54-.18Z"/>
          <path class="cls-1" d="M13.61,3.76l.32.67-.43.2-.61-1.27.37-.23.14.24c0-.2.12-.4.34-.51l.2.41c-.26.04-.44.27-.33.49Z"/>
          <path class="cls-1" d="M17.02,3.26l-.44-.51-.97.32-.05.67-.47.15.24-2.74.38-.12,1.8,2.07-.49.16ZM15.7,1.69l-.07.99.71-.23-.64-.76Z"/>
          <path class="cls-1" d="M18.48,2.97c-.41.08-.74-.02-.94-.13l.04-.42c.2.12.49.25.83.18.25-.05.41-.21.37-.43-.04-.21-.18-.29-.6-.31-.55-.02-.81-.26-.88-.61-.08-.4.18-.76.71-.87.31-.06.6,0,.79.09l-.04.37c-.2-.08-.46-.13-.68-.09-.24.05-.37.19-.33.36.03.14.14.24.49.25.61.03.9.22.99.65.11.53-.28.85-.75.95Z"/>
          <path class="cls-1" d="M19.75,2.7l-.3-2.51.51-.06.3,2.51-.51.06Z"/>
          <path class="cls-1" d="M22.55,2.51l-.28-.61-1.02.03-.24.63-.5.02L21.51.01h.4s1.15,2.48,1.15,2.48l-.51.02ZM21.72.64l-.35.93.75-.02-.4-.91Z"/>
          <path class="cls-1" d="M25.06,2.69l-1.15-1.79-.16,1.66-.46-.04.25-2.51.36.03,1.15,1.79.16-1.66.46.04-.24,2.51-.36-.03Z"/>
          <path class="cls-1" d="M27.69,3.26c-.2-.05-.29-.16-.29-.32-.18.12-.37.16-.56.11-.21-.05-.34-.24-.29-.46.08-.34.51-.43,1-.35v-.05c.05-.16-.01-.23-.18-.27-.15-.04-.4,0-.57.06l.08-.32c.14-.04.47-.06.66-.01.34.08.57.26.48.65l-.15.62c-.03.11,0,.14.06.16.03,0,.06,0,.09,0l-.04.17s-.18.03-.28,0ZM27.49,2.48c-.3-.03-.48.01-.52.16-.02.09.04.15.13.17.08.02.19,0,.34-.1l.06-.24Z"/>
          <path class="cls-1" d="M29.27,3.73l.26-.74c.08-.22.03-.34-.13-.39-.16-.06-.38.04-.44.22l-.25.72-.45-.15.46-1.33.42.1-.06.26c.14-.14.42-.18.61-.11.37.13.42.43.31.77l-.28.82-.45-.15Z"/>
          <path class="cls-1" d="M31.44,4.7c-.2-.09-.25-.22-.23-.35-.18.11-.41.07-.57,0-.35-.17-.48-.59-.29-.99.19-.4.59-.57.95-.41.16.07.31.21.36.39l.52-1.12.45.15-.95,2.03c-.05.1-.02.14.03.16.03.01.06.02.09.02l-.07.16c-.06.01-.18,0-.28-.05ZM30.77,3.56c-.12.25-.05.45.14.54.15.07.31.04.41-.04l.19-.4c-.01-.13-.09-.27-.24-.34-.18-.09-.38-.01-.5.24Z"/>
          <path class="cls-1" d="M33.6,6.03c-.64-.44-.82-1.24-.39-1.88.44-.64,1.25-.76,1.89-.33.64.43.81,1.23.38,1.87-.44.64-1.24.77-1.88.34ZM34.87,4.16c-.42-.28-.91-.16-1.21.29-.31.45-.25.95.17,1.24.41.28.9.15,1.2-.3.31-.45.25-.95-.16-1.23Z"/>
          <path class="cls-1" d="M35.91,7.85c-.54-.49-.67-1.28-.12-1.89.55-.61,1.35-.56,1.89-.07.25.22.43.52.48.78l-.31.35c-.03-.27-.14-.55-.4-.78-.37-.34-.87-.34-1.25.09-.38.42-.33.92.04,1.26.26.23.55.32.82.32l-.31.35c-.26-.02-.58-.18-.82-.4Z"/>
          <path class="cls-1" d="M36.86,8.69l1.9-1.67,1.09,1.24-.3.26-.75-.85-.45.39.61.69-.3.26-.61-.69-.55.48.75.85-.3.26-1.09-1.24Z"/>
          <path class="cls-1" d="M39.23,11.7l.36-.57-.59-.83-.66.15-.29-.4,2.68-.59.23.33-1.44,2.34-.3-.42ZM40.33,9.97l-.96.23.43.61.53-.83Z"/>
          <path class="cls-1" d="M40.44,13.91l.87-1.94-1.48.77-.21-.41,2.24-1.16.16.32-.87,1.94,1.48-.77.21.41-2.24,1.16-.16-.32Z"/>
          <path class="cls-1" d="M40.78,14.7l2.34-.95.19.48-2.34.95-.19-.48Z"/>
          <path class="cls-1" d="M41.7,17.35l.52-.43-.3-.98-.67-.06-.15-.48,2.73.29.12.38-2.1,1.77-.15-.49ZM43.3,16.06l-.99-.09.22.71.77-.62Z"/>
          <path class="cls-1" d="M42.19,19.83l1.43-1.58-1.64.27-.08-.45,2.49-.42.06.35-1.43,1.58,1.65-.27.08.45-2.49.42-.06-.35Z"/>
          <path class="cls-1" d="M42.29,22.11c0-.42.15-.73.3-.9l.41.11c-.16.17-.33.44-.33.78,0,.25.13.44.36.44.21,0,.32-.12.41-.54.12-.53.4-.75.76-.75.41,0,.72.32.72.86,0,.31-.11.59-.24.76l-.36-.1c.12-.18.21-.43.21-.66,0-.25-.11-.39-.3-.39-.15,0-.26.09-.34.44-.14.59-.38.85-.82.85-.54,0-.78-.44-.79-.91Z"/>
          <path class="cls-1" d="M44.36,24.62l-2.12-.19.05-.51,2.12.19.08-.85.4.04-.2,2.21-.4-.04.08-.85Z"/>
          <path class="cls-1" d="M41.82,26.65c.14-.65.62-1.05,1.46-.87l1.33.29-.11.51-1.31-.29c-.54-.12-.84.06-.93.46-.09.4.12.69.66.81l1.31.29-.11.49-1.33-.29c-.84-.18-1.11-.74-.96-1.4Z"/>
          <path class="cls-1" d="M41.2,29.08l.3-.83,2.37.87-.3.83c-.35.95-1.03,1.15-1.68.92-.65-.24-1.04-.83-.69-1.78ZM43.19,29.78l.12-.33-1.6-.58-.12.33c-.24.65,0,1,.48,1.17.47.17.88.06,1.12-.59Z"/>
          <path class="cls-1" d="M40.52,30.76l2.28,1.09-.22.46-2.28-1.09.22-.46Z"/>
          <path class="cls-1" d="M40.09,31.68l2.19,1.26-.82,1.43-.35-.2.56-.98-.52-.3-.46.8-.35-.2.46-.8-.64-.37-.56.98-.35-.2.82-1.43Z"/>
          <path class="cls-1" d="M38.56,34.03c.25-.34.56-.49.78-.54l.26.33c-.23.04-.53.15-.73.43-.15.2-.16.44.02.57.17.12.33.09.65-.18.42-.35.77-.36,1.06-.15.33.24.39.68.07,1.12-.18.25-.44.41-.65.47l-.23-.3c.2-.07.43-.22.56-.4.15-.2.14-.39,0-.49-.12-.09-.26-.08-.53.15-.46.39-.81.45-1.17.2-.44-.32-.37-.82-.09-1.2Z"/>
        </g>
        <g>
          <path class="cls-1" d="M35.88,35.53c.12.11.24.23.36.34-.24-.31-.49-.61-.75-.9,0,0,0,0,0,0-.15-.17-.29-.32-.44-.47,0,0-.02-.02-.03-.03-.13-.14-.27-.27-.4-.39h0c-.05-.05-.11-.1-.16-.15-.17-.15-.33-.3-.51-.45-.12-.1-.25-.2-.38-.3-.16-.13-.33-.25-.53-.39,0,0,0,0,0,0-.48-.35-.99-.67-1.51-.96,0,0,0,0,0,0,0,0,0,0,0,0-.22-.12-.44-.24-.66-.34,0,0,0,0-.01-.01-.77-.38-1.57-.69-2.39-.93,0,0-.01,0-.02,0-4.35-1.26-9.12-.48-12.83,2.08l.09.07c.21.14.42.28.63.41l.08.04c.22.13.44.25.66.37.02.01.04.02.06.03h0s.02,0,.03-.01c.2-.12.4-.24.6-.35,0,0,0,0,0,0,.21-.11.42-.22.63-.33,0,0,0,0,0,0,.21-.1.43-.2.65-.3,0,0,0,0,.01,0,.22-.09.44-.18.66-.27.01,0,.03,0,.04-.01.21-.08.43-.15.64-.22.03,0,.06-.02.08-.02.2-.06.4-.13.61-.18.06-.02.12-.03.18-.04.17-.05.35-.09.52-.13.24-.05.48-.1.72-.14.25-.04.49-.08.74-.11.09-.01.17-.02.26-.03.15-.02.31-.03.46-.05.11,0,.22-.02.34-.02.13,0,.25-.01.38-.02.13,0,.26,0,.38,0,.05,0,.09,0,.14,0,.05,0,.1,0,.15,0,.17,0,.35,0,.52.01.08,0,.16,0,.23.01.18.01.36.02.55.04.07,0,.14.01.21.02.19.02.37.04.55.07.07,0,.14.02.21.03.18.03.36.06.54.09.07.01.15.03.22.05.17.04.34.07.5.11.09.02.18.04.26.07.15.04.3.08.45.12.11.03.21.06.32.1.13.04.25.08.37.12.13.04.25.09.38.14.1.04.2.07.29.11.15.06.3.12.45.19.07.03.14.06.21.09.17.08.34.16.51.24.04.02.09.04.13.07.19.1.38.2.56.3.02.01.04.02.07.04.2.12.4.23.6.36,0,0,.01,0,.02.01.83.53,1.62,1.13,2.35,1.82,0,0,0,0,0,0Z"/>
          <path class="cls-1" d="M17.06,33.97h0s0,0,0,0l-.11-.06c-.09-.05-.17-.09-.26-.14-.14-.07-.27-.15-.4-.23l-.19-.11s0,0-.01,0c-.02-.01-.04-.02-.05-.04-.16-.1-.33-.21-.49-.31l-.41-.28s0,0,0,0c-.02-.02-.04-.03-.06-.05-.02-.01-.04-.03-.05-.04l-.25-.19s0,0,0,0c-.18-.14-.36-.28-.54-.43,0,0,0,0-.01,0,0,0,0,0,0,0,0,0,0,0,0,0-.04-.03-.07-.06-.11-.09-.08-.06-.15-.13-.22-.19l-.09-.08s0,0,0,0c-.07-.07-.15-.14-.22-.2l-.04-.04s0,0,0,0c-.1-.09-.2-.18-.3-.28,3.16,4.07,8.27,6.32,13.48,5.81.06,0,.12-.01.18-.02.32-.04.64-.08.97-.14.16-.03.33-.06.51-.1-.01,0-.03-.02-.04-.02-.26-.13-.52-.26-.78-.38-.05-.02-.09-.04-.14-.07-.3-.13-.6-.25-.91-.37-.27-.1-.54-.18-.81-.26-.07,0-.15,0-.22.01-.2.02-.4.03-.59.04-.14,0-.27,0-.41.01-.08,0-.16,0-.24,0-.07,0-.14,0-.21,0-.16,0-.31,0-.47-.01-.14,0-.28-.02-.42-.03-.16-.01-.31-.02-.47-.04-.16-.02-.31-.04-.47-.06-.25-.03-.49-.07-.74-.11-.16-.03-.33-.06-.49-.09-.14-.03-.28-.06-.41-.1-.15-.04-.31-.08-.46-.12-.13-.04-.27-.08-.4-.12-.16-.05-.32-.1-.47-.15-.12-.04-.25-.08-.37-.13-.18-.07-.35-.14-.53-.21-.08-.03-.16-.06-.24-.09-.02,0-.04-.01-.06-.02-.15-.05-.42-.18-.93-.45,0,0,0,0,0,0Z"/>
          <path class="cls-1" d="M6.8,13.5c-1.15,1.72-1.94,3.68-2.31,5.78-.19,1.1-.27,2.2-.22,3.29.03-.3.06-.6.11-.9,0-.02,0-.03,0-.05.09-.58.2-1.17.36-1.75.08-.32.18-.62.28-.93,0-.01.01-.03.02-.04,1-2.95,2.83-5.49,5.29-7.36.04-.03.08-.06.12-.09.19-.14.39-.29.6-.42.06-.04.11-.08.17-.12.25-.16.5-.32.76-.47.2-.12.41-.23.61-.34.1-.05.21-.1.31-.15.09-.05.19-.09.28-.14.15-.07.3-.14.46-.2.03-.01.06-.02.09-.04,3.17-1.34,6.67-1.59,10.05-.69,4.01,1.07,7.36,3.65,9.44,7.24.22.38.42.77.61,1.17,0-.01,0-.02-.01-.03-.21-.64-.45-1.25-.74-1.85,0-.01-.01-.02-.02-.03-1.78-3.69-5.02-6.58-8.97-7.87-.02,0-.04-.01-.05-.02-.28-.09-.56-.17-.85-.24-.07-.02-.14-.04-.21-.05-.31-.08-.63-.15-.95-.2-.34-.06-.69-.11-1.03-.14-.04,0-.09,0-.13-.01-.66-.06-1.33-.08-1.98-.06-.1,0-.19,0-.29.01-.3.02-.6.04-.89.07-.05,0-.1.01-.15.02-.33.04-.65.09-.98.15-.02,0-.04,0-.06.01-.34.07-.68.14-1.02.23,0,0,0,0-.01,0-.34.09-.69.2-1.02.31,0,0-.01,0-.02,0-.33.11-.66.24-.98.38-.02.01-.05.02-.07.03-.3.13-.6.27-.89.42-.06.03-.11.06-.17.09-.26.14-.52.28-.78.43-.09.06-.18.12-.27.17-.52.33-1.02.68-1.5,1.07-.02.02-.04.04-.06.05-1.11.92-2.1,2.01-2.93,3.24,0,0,0,0-.01.01Z"/>
          <path class="cls-1" d="M27.93,37.22s0,0,0,0c0,0,0,0-.01,0-.23.04-.46.08-.69.1-.14.02-.28.03-.42.05-.08,0-.17.02-.25.03-.2.02-.41.03-.61.04,0,0-.01,0-.02,0-3.41.16-6.77-.8-9.61-2.79-3.4-2.38-5.67-5.95-6.39-10.04-.08-.43-.13-.87-.17-1.31,0,.01,0,.02,0,.03-.02.67,0,1.33.06,1.99,0,.01,0,.03,0,.04.41,4.08,2.46,7.9,5.74,10.47.02.01.03.02.05.04.23.18.47.35.71.52.06.04.12.08.18.12.27.18.54.35.82.51.25.15.51.28.77.41.1.05.21.1.32.15.15.07.31.15.46.22.13.06.26.11.4.16.13.05.26.11.4.16.14.05.29.1.43.15.13.04.25.09.38.13.15.05.3.08.45.13.12.03.24.07.37.1.16.04.31.07.47.1.12.03.24.05.36.08.16.03.32.05.48.08.12.02.24.04.36.06.16.02.32.03.48.05.12.01.24.03.36.03.16.01.32.02.48.02.12,0,.24.01.36.01.16,0,.32,0,.47,0,.12,0,.25,0,.37,0,.16,0,.31-.02.47-.03.13,0,.25-.02.38-.03.15-.01.3-.04.45-.05.13-.02.26-.03.39-.05.15-.02.29-.05.44-.08.13-.02.27-.05.4-.08.14-.03.28-.07.42-.1.14-.03.28-.07.42-.1.13-.04.27-.08.4-.12.14-.04.29-.09.43-.13.13-.04.25-.09.38-.13.1-.04.21-.08.31-.12-.04-.04-.07-.09-.11-.13,0,0,0,0,0,0,0,0,0,0,0,0-.42-.31-.87-.6-1.34-.87-.2.05-.4.09-.59.13-.13.03-.25.05-.37.07Z"/>
          <path class="cls-1" d="M21.6,35s-.07,0-.11,0h-.04c-.16-.01-.33-.02-.49-.04.08.02.16.03.25.05.4.08.8.14,1.21.19.1.01.19.03.29.04.19.02.39.03.59.04.11,0,.21.02.32.02.18,0,.36,0,.54,0,.08,0,.16,0,.23,0-.36-.08-.73-.14-1.09-.18-.33-.04-.65-.08-.98-.1-.23,0-.46,0-.69-.02h-.01Z"/>
          <path class="cls-1" d="M6.64,31.47c.56.97,1.21,1.86,1.95,2.66-.08-.11-.14-.22-.22-.33-.04-.05-.07-.11-.1-.16-.12-.18-.23-.36-.34-.54-.02-.03-.03-.05-.05-.08-.36-.62-.68-1.26-.95-1.91,0-.02-.01-.03-.02-.05-.08-.19-.15-.39-.22-.58-.02-.07-.05-.14-.07-.2-.06-.18-.12-.36-.18-.53-.03-.09-.05-.19-.08-.28-.05-.16-.09-.33-.14-.49-.05-.18-.09-.37-.13-.56-.03-.15-.06-.3-.09-.45-.04-.2-.07-.4-.1-.6-.01-.09-.02-.18-.03-.27-.03-.2-.05-.41-.06-.61,0-.08-.01-.16-.02-.24-.02-.23-.03-.47-.03-.7,0-.05,0-.11,0-.16,0-.6.02-1.2.08-1.8,0-.02,0-.04,0-.07.03-.27.07-.53.11-.8.01-.07.02-.14.04-.21.04-.22.08-.44.13-.66.02-.08.04-.17.06-.25.05-.21.11-.42.17-.63.02-.08.04-.16.07-.24.09-.28.18-.57.28-.85.08-.23.17-.45.26-.67.04-.09.08-.19.12-.28.05-.12.1-.23.16-.35.06-.13.12-.25.18-.37.03-.06.06-.13.1-.19,2.15-4.15,6.01-6.99,10.37-7.99.03,0,.06-.01.08-.02.17-.04.35-.07.53-.11.05,0,.1-.02.15-.03.17-.03.33-.06.5-.08.04,0,.08,0,.12-.01.33-.04.67-.08,1-.1.05,0,.11,0,.16-.01.14,0,.29-.01.43-.02.09,0,.17,0,.26,0,.14,0,.29,0,.43,0,.08,0,.17,0,.25,0,.15,0,.3.01.45.02.02,0,.05,0,.07,0,0,0,0,0,.01,0,1.43.09,2.87.39,4.28.9.42.15.83.32,1.23.51-2.45-1.54-5.28-2.33-8.12-2.33-2.24,0-4.49.49-6.57,1.5-.05.03-.1.05-.16.08-.28.14-.56.28-.83.44-.3.17-.58.35-.86.54-.06.04-.11.08-.17.11-2.71,1.87-4.7,4.55-5.74,7.59,0,.01,0,.02-.01.03-.11.34-.22.68-.31,1.03h0c-.09.33-.16.67-.22,1.01,0,.03-.01.07-.02.1-.26,1.42-.32,2.88-.16,4.36,0,0,0,.01,0,.02.23,2.06.88,4.07,1.94,5.91Z"/>
          <path class="cls-1" d="M31.32,38.77c.79,1.41,1.54,3.47,1.78,4.83.08.46.15.92.21,1.37h1.67c-.02-.06-.03-.12-.05-.19-.03-.1-.06-.2-.09-.31-.03-.11-.07-.22-.11-.34-.04-.11-.07-.22-.11-.33-.04-.12-.09-.23-.13-.35-.04-.12-.09-.23-.14-.35-.05-.12-.1-.24-.16-.36-.05-.12-.1-.24-.16-.36-.06-.12-.12-.24-.19-.37-.06-.12-.12-.24-.19-.36-.07-.12-.15-.25-.22-.37-.07-.11-.13-.23-.21-.34-.09-.14-.19-.27-.29-.41-.07-.09-.13-.19-.2-.28-.17-.23-.36-.45-.56-.66,0,0,0,0,0,0l-.06-.06-.02-.02c-.23-.24-.48-.47-.73-.69-.02-.01-.03-.03-.05-.04Z"/>
          <path class="cls-1" d="M10.16,35.45c.18.2.37.39.56.58,1.49,1.46,3.31,2.64,5.4,3.4,1.05.38,2.12.64,3.21.79-.13-.03-.25-.08-.37-.11-.1-.03-.2-.06-.3-.09-.16-.05-.31-.1-.46-.15-.07-.02-.13-.05-.2-.07-.27-.1-.55-.21-.81-.32-.06-.03-.13-.06-.19-.08-.47-.21-.92-.44-1.36-.69-.1-.06-.2-.11-.29-.17-.14-.08-.28-.17-.41-.26-.16-.11-.33-.21-.49-.33-.09-.06-.17-.12-.26-.18-.18-.13-.36-.27-.54-.41-.04-.03-.07-.06-.11-.09-.2-.16-.4-.33-.59-.51-.04-.03-.08-.07-.12-.1-.44-.4-.85-.82-1.24-1.27,0,0,0,0-.01-.01-.6-.69-1.14-1.44-1.62-2.24-.01-.02-.02-.04-.04-.06-.3-.5-.56-1.03-.8-1.57-.02-.05-.05-.11-.07-.16-.11-.26-.22-.53-.32-.8-.08-.23-.16-.45-.23-.68-.03-.1-.06-.19-.08-.29-.04-.13-.07-.25-.11-.38-.03-.13-.07-.26-.1-.39-.02-.07-.03-.15-.05-.22-.97-4.35.01-8.79,2.46-12.28,0-.01.01-.02.02-.03.1-.14.2-.28.31-.42.04-.05.07-.1.11-.15.09-.12.19-.24.28-.36.05-.07.11-.13.16-.2.09-.1.18-.21.27-.31.07-.08.15-.16.22-.23.14-.15.28-.3.43-.44.09-.09.18-.18.28-.27.09-.08.18-.16.27-.24.08-.07.16-.15.25-.22.1-.09.2-.17.3-.25.07-.06.15-.12.23-.18.11-.09.23-.17.34-.26.02-.02.04-.03.07-.05,0,0,0,0,.01,0,1.16-.85,2.45-1.55,3.86-2.06.41-.15.83-.28,1.26-.4-.01,0-.02,0-.03,0-.66.09-1.31.23-1.95.41-.01,0-.03,0-.04.01-3.94,1.11-7.35,3.8-9.31,7.47,0,.02-.02.03-.02.05-.14.26-.27.53-.39.8-.03.06-.06.13-.09.19-.13.29-.25.59-.36.9-.12.32-.22.64-.31.96-.02.08-.04.15-.06.23-.08.3-.16.6-.22.91,0,.02,0,.04-.01.06-.07.34-.12.68-.17,1.02,0,.04-.01.09-.02.13-.04.32-.07.64-.09.97,0,.02,0,.04,0,.05-.02.35-.03.69-.02,1.04,0,.04,0,.07,0,.11,0,.31.02.61.05.91,0,.05,0,.1.01.15.03.32.07.64.12.96.01.07.03.14.04.21.04.24.09.48.14.71.02.11.05.21.07.32.07.27.14.55.22.82.04.13.08.26.13.39.05.16.11.31.16.47.06.15.11.3.17.45.06.15.13.3.2.46.1.24.21.47.33.7.06.12.12.24.18.35.08.15.16.3.25.45.09.16.19.32.29.48.11.18.23.36.35.53.1.15.2.29.31.43.08.11.16.22.24.32.18.23.37.46.57.68.05.06.11.12.17.18Z"/>
          <path class="cls-1" d="M35.4,44.97h2.18s0,0,0-.01c-.11-.3-.23-.6-.36-.89-.02-.05-.04-.1-.06-.15-.13-.28-.26-.55-.4-.82-.03-.05-.05-.1-.08-.15-.15-.27-.3-.54-.47-.8-.01-.02-.02-.03-.03-.05-.16-.26-.33-.51-.51-.75-.02-.03-.05-.07-.07-.1-.18-.25-.37-.48-.56-.72-.03-.04-.07-.08-.1-.12-.2-.23-.4-.46-.61-.68-.02-.02-.04-.04-.06-.06-.21-.22-.43-.43-.65-.63-.02-.02-.03-.03-.05-.05-.23-.21-.46-.41-.7-.6-.04-.03-.08-.06-.11-.09-.24-.19-.48-.37-.73-.55-.03-.02-.06-.04-.09-.06-.26-.18-.52-.35-.79-.51,0,0,0,0,0,0-.27-.16-.54-.31-.82-.46-.04-.02-.08-.04-.12-.06-.27-.14-.55-.27-.83-.39-.04-.02-.08-.03-.12-.05-.58-.25-1.18-.46-1.79-.63-.04-.01-.08-.02-.12-.03-.29-.08-.59-.15-.89-.22-.05-.01-.1-.02-.15-.03-.31-.06-.61-.12-.92-.16,0,0,0,0-.01,0,.12.03.23.07.35.1.02,0,.04.01.06.02,0,0,0,0,0,0h0s.03.01.05.02c.1.03.2.06.3.09.17.06.34.11.5.17.24.09.47.18.7.28.11.05.22.09.32.14.11.05.22.1.33.15.14.07.28.13.42.21.04.02.09.05.13.07,1.02.53,1.98,1.18,2.85,1.93.06.05.11.1.17.15.28.25.56.51.83.78,0,0,0,0,0,0l.08.09c.83.9,1.46,1.93,1.94,2.95.02.04.04.09.06.13.09.2.18.4.26.6.03.08.06.16.09.23.06.16.13.32.18.48.03.1.06.19.1.29.04.13.09.27.13.4.03.1.06.2.09.3.02.09.05.18.07.26Z"/>
          <path class="cls-1" d="M37.99,44.97h1.53c-.02-.08-.04-.16-.07-.25-.04-.13-.07-.25-.11-.38-.04-.12-.07-.23-.11-.34-.04-.13-.09-.26-.13-.38-.04-.11-.08-.21-.12-.32-.05-.13-.1-.26-.15-.39-.04-.1-.09-.2-.13-.3-.06-.13-.12-.26-.18-.39-.05-.1-.1-.19-.14-.29-.07-.13-.13-.26-.2-.38-.05-.09-.1-.18-.16-.27-.07-.13-.14-.25-.22-.38-.05-.09-.11-.17-.17-.26-.08-.12-.16-.25-.24-.37-.06-.08-.12-.17-.18-.25-.08-.12-.17-.24-.26-.35-.06-.08-.13-.16-.19-.24-.09-.11-.18-.23-.27-.34-.07-.08-.14-.16-.21-.24-.09-.11-.19-.22-.28-.32-.07-.08-.15-.16-.23-.23-.1-.1-.19-.2-.3-.3-.08-.08-.16-.15-.25-.23-.1-.09-.2-.19-.3-.28-.09-.08-.18-.16-.28-.23-.1-.08-.2-.17-.3-.25-.1-.08-.21-.16-.32-.24-.1-.07-.19-.15-.29-.22,0,0,0,0-.01,0,0,0,0,0,0,0h0c-.12-.09-.24-.17-.37-.25-.08-.06-.16-.11-.25-.17-.21-.14-.43-.27-.66-.4-.24-.14-.49-.27-.74-.4-.09-.04-.18-.08-.26-.13-.16-.08-.32-.16-.49-.23-.11-.05-.21-.09-.32-.13-.15-.06-.3-.12-.44-.18-.12-.04-.23-.08-.35-.12-.14-.05-.28-.1-.43-.15-.12-.04-.24-.07-.37-.11-.14-.04-.28-.08-.42-.12-.13-.03-.25-.06-.38-.09-.14-.03-.27-.06-.41-.09-.13-.03-.26-.05-.39-.07-.14-.02-.27-.05-.41-.07-.13-.02-.27-.04-.4-.05-.13-.02-.27-.03-.4-.04-.14-.01-.27-.02-.41-.03-.13,0-.27-.01-.4-.02-.14,0-.28,0-.42,0-.13,0-.26,0-.39,0-.14,0-.28,0-.42.01-.13,0-.26.01-.39.02-.14.01-.28.02-.43.04-.13.01-.26.03-.38.05-.14.02-.29.04-.43.06-.13.02-.25.04-.38.07-.14.03-.29.05-.43.08-.12.03-.25.06-.37.09-.15.03-.29.07-.44.11-.12.03-.24.07-.36.1-.15.04-.29.09-.44.13,0,0-.01,0-.02,0,.1.01.19.03.29.04.22.03.45.06.67.07.08,0,.16.01.24.02.32.02.63.03.94.04.01,0,.03,0,.04,0,.19-.01.39-.02.58-.03,6.63-.19,12.76,3.95,15.04,10.22.02.05.04.1.05.15Z"/>
          <path class="cls-1" d="M19.89,39.94c.13.03.25.06.38.09.29.06.58.11.88.16.08.01.15.02.23.03.27.04.54.06.82.08,2.08.16,4.23-.11,6.31-.87.73-.27,1.46-.6,2.16-.99-.02-.03-.05-.07-.07-.1-.06.02-.12.04-.18.07-.18.07-.36.14-.55.2-.1.03-.2.07-.3.1-.16.05-.33.1-.5.15-.11.03-.21.06-.32.09-.16.04-.32.08-.48.12-.11.02-.22.05-.33.07-.17.03-.34.06-.5.09-.1.02-.2.04-.31.05-.23.03-.46.06-.69.09-.11.01-.21.02-.32.03-.2.02-.39.03-.59.04-.12,0-.23,0-.35,0-.11,0-.23,0-.34,0-.03,0-.06,0-.1,0-.25,0-.49-.01-.74-.02-.07,0-.14,0-.21,0-.32-.02-.64-.05-.96-.09,0,0,0,0,0,0-.31-.04-.62-.09-.92-.15-.09-.02-.18-.04-.27-.06-.22-.05-.44-.1-.65-.15-.11-.03-.22-.06-.33-.09-.2-.06-.4-.12-.59-.18-.11-.04-.23-.07-.34-.11-.19-.07-.39-.14-.58-.22-.11-.04-.22-.09-.32-.13-.2-.09-.4-.18-.6-.27-.09-.04-.18-.08-.28-.13-.29-.14-.58-.3-.86-.46-.21-.12-.41-.25-.61-.38-.08-.05-.17-.11-.25-.16-.11-.07-.22-.15-.32-.22-.11-.08-.22-.16-.33-.24-.06-.05-.12-.09-.18-.14-3.54-2.71-5.65-6.75-6.02-11,0,0,0-.01,0-.02-.02-.18-.03-.35-.04-.53,0-.06,0-.11,0-.17,0-.16-.01-.31-.01-.47,0-.08,0-.16,0-.24,0-.14,0-.28,0-.43,0-.1,0-.19.01-.29.01-.22.03-.44.05-.67.01-.12.02-.24.04-.36.01-.12.03-.24.05-.37.02-.11.03-.21.05-.32.02-.13.05-.26.07-.39.02-.09.04-.19.06-.28.03-.14.06-.28.09-.42,0-.03.01-.06.02-.08,0,0,0,0,0-.01.34-1.39.88-2.76,1.63-4.06.22-.38.46-.75.71-1.11,0,0-.01.02-.02.02-.45.5-.86,1.03-1.24,1.57,0,0,0,.01-.01.02-2.31,3.39-3.19,7.64-2.34,11.71,0,.02,0,.03.01.05.06.29.14.58.21.87.02.07.04.13.06.2.09.31.19.62.3.92.12.32.24.63.38.93.03.07.07.15.1.22.13.28.27.56.42.84,0,.02.02.03.03.05.16.3.34.6.52.89.02.04.05.07.07.11.18.27.36.54.55.8.01.01.02.03.03.04.21.28.42.55.65.81.02.03.05.05.07.08.2.23.41.46.63.67.03.03.07.07.1.1.23.23.47.45.71.66.05.05.11.09.16.13.19.16.38.31.58.46.08.06.17.13.25.19.23.17.46.33.7.49.11.07.22.14.33.21.15.09.29.18.44.26.13.08.27.15.41.23.16.08.32.16.49.24.22.1.43.2.65.3.13.06.26.11.39.16.16.06.31.12.47.18.19.07.39.13.59.2.18.06.37.11.55.16.18.05.36.09.54.14Z"/>
          <path class="cls-1" d="M8.4,10.93c.17-.17.35-.34.54-.51.02-.01.03-.03.05-.04.16-.15.33-.29.5-.43.04-.03.08-.07.12-.1.15-.12.31-.25.47-.36.05-.04.11-.08.16-.12.09-.06.17-.13.26-.19.07-.05.14-.09.21-.14.05-.03.1-.06.14-.1.18-.12.35-.23.53-.34.02-.01.05-.03.07-.04,2.43-1.45,5.16-2.2,7.96-2.2h0c.21,0,.42,0,.63.01.05,0,.1,0,.15,0,.17,0,.35.02.52.03.1,0,.21.02.31.03.13.01.25.03.38.04.24.03.47.07.71.11.24.04.47.09.71.14.1.02.19.05.29.07.13.03.25.06.38.1.13.04.26.07.39.11.07.02.15.04.22.07,4.25,1.34,7.6,4.41,9.41,8.27,0,.01.01.03.02.04.07.16.14.31.21.47.03.06.05.12.07.18.06.14.11.28.16.41.03.08.06.17.09.25.04.13.09.25.13.38.04.11.07.22.1.33.05.17.1.35.15.52.04.14.08.28.11.43.03.11.05.22.07.33.02.11.05.23.07.35.02.12.04.24.06.37.02.1.03.21.05.31.02.13.04.27.05.4,0,.03,0,.06.01.09,0,0,0,0,0,.01.15,1.42.12,2.89-.14,4.37-.08.44-.17.87-.29,1.3,1.95-4.77,1.34-10.32-1.7-14.57-.04-.05-.08-.11-.12-.16-.19-.26-.39-.51-.59-.76-.22-.26-.44-.51-.68-.75-.06-.06-.11-.11-.17-.17-.22-.22-.44-.44-.68-.65-.01-.01-.03-.03-.04-.04-.26-.23-.52-.45-.8-.66-.04-.03-.07-.06-.11-.08-.26-.19-.52-.38-.79-.56-.02-.01-.03-.02-.05-.04-.29-.19-.58-.37-.88-.53-.03-.02-.07-.04-.1-.06-.26-.14-.53-.28-.8-.41-.05-.02-.1-.05-.15-.07-.29-.13-.58-.26-.88-.37-.08-.03-.15-.06-.23-.08-.22-.08-.43-.15-.65-.22-.11-.04-.22-.07-.34-.11-.26-.08-.53-.15-.8-.21-.15-.03-.3-.06-.44-.09-.14-.03-.29-.06-.43-.08-.17-.03-.34-.06-.51-.08-.12-.02-.24-.03-.36-.04-.31-.04-.62-.06-.93-.08-.11,0-.23-.01-.34-.02-.18,0-.37,0-.55,0-.14,0-.28,0-.42.01-.26,0-.53.02-.79.05-.16.01-.33.03-.49.05-.14.02-.28.03-.42.05-.29.04-.57.09-.86.15-.08.02-.17.04-.25.06-.26.06-.52.12-.78.2-2.01.56-3.94,1.55-5.64,2.97-.85.72-1.61,1.51-2.28,2.38Z"/>
          <path class="cls-1" d="M39.84,44.64c.03.11.06.21.09.32h.33c-.03-.27-.07-.52-.11-.75-.39-2.19-1.23-4.19-2.42-5.91-.15-.22-.3-.43-.46-.64-.05-.07-.1-.14-.16-.2-.18-.23-.37-.45-.56-.67-.09-.1-.19-.2-.28-.3-.12-.13-.24-.25-.36-.37-.16-.16-.32-.31-.49-.47-.13-.12-.26-.24-.4-.35-.13-.11-.27-.22-.41-.33-.1-.08-.21-.16-.31-.24-.21-.16-.42-.31-.64-.45-.13-.09-.27-.18-.41-.27-.14-.08-.27-.17-.41-.25-.14-.08-.29-.16-.43-.24-.12-.06-.24-.13-.36-.19-.25-.13-.51-.25-.77-.36-.1-.04-.2-.08-.29-.12-.23-.09-.46-.18-.69-.27-.07-.02-.13-.05-.2-.07-.31-.1-.62-.2-.93-.28-.05-.01-.09-.02-.14-.04-.3-.08-.6-.15-.91-.21-.03,0-.06-.01-.09-.02-.34-.06-.69-.12-1.03-.16-.01,0-.03,0-.04,0-.33-.04-.66-.06-.99-.08-.04,0-.08,0-.12,0-.35-.01-.69-.02-1.04,0-.01,0-.03,0-.04,0-.32,0-.63.03-.95.06-.08,0-.16.01-.23.02-.33.04-.67.08-1,.14-.23.04-.46.09-.69.14-.06.01-.11.03-.17.04-.17.04-.34.08-.51.13-.06.02-.12.04-.18.05-.17.05-.33.1-.5.15-.06.02-.11.04-.17.06-.17.06-.33.11-.5.18-.05.02-.1.04-.15.06-.17.07-.34.13-.5.21-.05.02-.09.04-.14.06-.17.08-.34.15-.51.24-.04.02-.08.04-.13.06-.17.08-.34.17-.5.26-.04.02-.08.05-.12.07-.08.05-.16.1-.25.14.01,0,.02.01.03.02,0,0,0,0,0,0l.15.07c.13.06.23.11.31.14,0,0,0,0,0,0h0c.21.06.41.11.62.17.03,0,.06.01.08.02.18.04.36.08.55.11.2-.08.41-.15.61-.21.06-.02.11-.04.16-.06.2-.07.4-.12.61-.18.08-.02.16-.05.24-.07.18-.05.37-.09.55-.13.1-.02.2-.05.3-.07.16-.03.33-.06.49-.09.12-.02.24-.05.37-.06.14-.02.29-.03.43-.05.14-.02.29-.04.43-.05.13-.01.25-.02.38-.02.16-.01.32-.02.48-.03.11,0,.22,0,.33,0,.18,0,.35,0,.53,0,.1,0,.19.01.29.01.19,0,.38.01.57.03.08,0,.16.02.25.03.2.02.4.04.61.06.07,0,.14.02.21.03.21.03.42.06.63.1.06.01.13.03.19.04.22.04.43.09.65.14.06.01.11.03.17.05.22.06.44.12.66.19.06.02.11.04.16.06.22.07.44.14.65.22.05.02.1.04.16.06.22.08.43.17.65.26.05.02.11.05.16.08.21.1.42.19.63.3.26.13.52.27.77.42.23.13.46.27.68.41.06.04.12.08.18.12.16.11.32.21.47.32.07.05.13.1.2.15.14.11.29.21.43.32.07.05.13.11.19.16.14.11.27.22.4.34.06.06.12.11.19.17.13.12.26.24.38.36.06.06.12.12.17.18.12.12.25.25.37.38.06.06.11.12.16.18.12.13.23.26.35.4.05.06.1.13.15.19.11.14.22.27.33.41.05.07.09.13.14.2.1.14.21.28.31.43.05.07.09.14.14.21.09.15.19.29.28.44.05.07.09.15.13.23.09.15.17.29.25.44.04.08.08.16.12.24.08.15.15.3.23.45.04.09.08.18.12.27.07.15.13.29.2.44.04.1.08.2.12.29.06.14.11.29.17.43.04.11.07.22.11.32.05.14.09.28.14.42.04.12.07.24.1.36Z"/>
          <path class="cls-1" d="M30.6,6.79c-.12-.08-.23-.15-.35-.23-.25-.15-.5-.3-.75-.44-.08-.04-.16-.08-.24-.12-.23-.12-.46-.23-.7-.34-1.91-.87-4.02-1.35-6.25-1.35-1.12,0-2.21.12-3.28.36.12-.01.24-.01.36-.02.09,0,.17-.01.26-.01.19,0,.39-.02.58-.02.06,0,.12,0,.18,0,.66,0,1.31.04,1.96.12.06,0,.12.01.18.02.18.02.36.05.53.09.1.02.2.04.31.06.16.03.32.06.47.1.13.03.26.06.4.1.13.03.26.07.39.1.26.07.52.15.78.24.04.01.07.03.11.04.24.08.47.17.71.27.06.03.12.05.19.08.21.09.43.18.64.28.06.03.11.05.17.08.23.11.46.23.68.35.03.02.06.03.09.05.53.3,1.04.62,1.54.98,0,0,.02.01.02.02.23.16.45.34.67.51.05.04.1.08.15.12.18.15.35.3.52.45.06.06.12.11.18.17.16.15.32.31.47.47.06.06.11.11.17.17.2.22.4.44.6.67.15.18.29.36.43.54.06.08.12.17.18.25.07.1.14.19.21.29.08.12.16.24.24.36.04.06.07.11.11.17.1.15.19.31.28.46,0,0,0,.02.01.02,2.93,4.96,2.85,11.15-.11,16,0,0,0,0,0,0-.09.15-.19.3-.28.44-.02.03-.04.07-.06.1,0,0,0,0,0,0-.58.87-1.26,1.7-2.04,2.45.1.05.21.11.31.16.03-.03.07-.05.1-.08.19-.15.38-.3.56-.46.04-.04.08-.08.13-.12.17-.16.35-.31.51-.47.05-.05.09-.09.14-.14.16-.16.32-.32.47-.48.05-.05.1-.11.14-.16.14-.16.28-.32.42-.49.05-.06.1-.13.15-.19.13-.16.25-.32.37-.49.05-.07.1-.15.15-.22.11-.16.22-.32.33-.48.05-.08.1-.17.15-.25.1-.16.19-.31.29-.48.05-.09.1-.19.15-.29.08-.15.17-.31.25-.47.05-.1.1-.21.14-.31.07-.15.14-.31.21-.46.05-.11.09-.23.13-.34.06-.15.12-.3.17-.45.05-.13.08-.26.13-.38.05-.14.1-.29.14-.43.04-.14.07-.28.11-.42.04-.14.08-.27.11-.41.03-.15.06-.3.09-.45.03-.13.06-.27.08-.4.03-.16.05-.33.07-.5.02-.12.04-.24.05-.36.02-.19.03-.38.05-.57,0-.1.02-.2.03-.3.02-.29.03-.59.03-.88,0-.34-.01-.67-.04-1.01,0-.08-.01-.16-.02-.24-.03-.31-.06-.62-.1-.93,0-.02,0-.04,0-.06-.05-.34-.11-.68-.19-1.02,0-.04-.02-.09-.03-.13-.07-.32-.15-.63-.25-.94,0-.02,0-.04-.02-.05-.1-.33-.21-.66-.33-.98-.01-.03-.03-.07-.04-.1-.11-.28-.23-.56-.36-.84-.02-.05-.04-.09-.06-.14-.14-.29-.28-.58-.44-.86-.04-.06-.07-.13-.11-.19-.12-.21-.25-.42-.38-.62-.06-.09-.12-.18-.18-.27-.16-.23-.32-.47-.49-.69-.08-.11-.17-.21-.25-.32-.1-.13-.21-.26-.31-.38-.1-.12-.21-.24-.31-.36-.11-.12-.22-.23-.33-.35-.18-.19-.37-.38-.56-.56-.09-.09-.19-.18-.29-.26-.13-.12-.26-.23-.4-.34-.13-.11-.27-.22-.41-.33-.18-.14-.36-.28-.55-.41-.14-.1-.28-.2-.43-.29Z"/>
          <path class="cls-1" d="M35.05,33.95c.05.05.1.1.15.15.15.15.29.3.43.45.92-.92,1.71-1.96,2.36-3.08.56-.96,1-1.97,1.33-3.01-.49,1.05-1.09,2.04-1.81,2.96,0,0,0,.01-.01.02-.66.85-1.41,1.63-2.25,2.34-.07.06-.13.12-.2.17Z"/>
          <path class="cls-1" d="M40.15,19.28c-.19-1.1-.5-2.16-.92-3.17.03.12.06.25.09.37.02.07.03.14.05.2.05.2.09.4.13.61,0,.04.01.08.02.11.12.69.2,1.38.23,2.08,0,.03,0,.06,0,.09,0,.2,0,.4,0,.6,0,.08,0,.16,0,.24,0,.18,0,.36-.02.54,0,.11-.01.22-.02.33-.01.16-.02.32-.04.48-.02.24-.05.47-.09.71-.01.09-.03.19-.05.28-.04.22-.08.43-.12.65-.02.08-.04.16-.06.25-.05.21-.1.42-.16.62-.02.07-.04.14-.06.22-.07.23-.14.46-.22.69-.02.04-.03.09-.04.13-.2.57-.43,1.12-.69,1.67,0,.02-.02.03-.03.05-.12.24-.25.48-.38.72-.03.06-.07.12-.1.18-.11.19-.23.39-.35.58-.05.07-.09.14-.14.22-.12.18-.25.36-.37.54-.05.07-.09.14-.14.2-.18.24-.36.47-.55.7-.2.24-.41.47-.63.7-.08.08-.16.16-.24.24-.14.14-.28.29-.43.42-.1.09-.2.18-.3.27-.13.12-.26.24-.4.35-.11.09-.22.18-.33.26-.1.08-.2.16-.3.24.11.08.22.16.32.25.14.1.26.21.39.31.18.15.35.3.53.47,0,0,.01.01.02.02.07-.05.13-.11.2-.17.12-.1.23-.2.34-.3.19-.17.38-.34.56-.52.07-.07.14-.13.2-.2.13-.14.26-.28.39-.42,0,0,0,0,0,0,.96-1.07,1.77-2.27,2.4-3.56.01-.03.03-.05.04-.08.08-.17.16-.35.24-.52.03-.07.06-.15.09-.22.1-.24.2-.49.28-.74.05-.15.1-.29.15-.44.04-.11.07-.22.11-.34.64-2.2.79-4.55.38-6.88Z"/>
          <path class="cls-1" d="M25.54,29.6c-1.05-.23-2.13-.35-3.22-.35-2.14,0-4.23.45-6.16,1.31-.03.02-.07.03-.1.05-.26.12-.52.25-.77.38-.05.03-.1.05-.16.08-.25.13-.49.28-.74.43-.04.03-.09.06-.13.08.07.06.14.12.21.18.21.17.42.34.64.5l.15.11s.03-.02.04-.03c.17-.12.35-.24.53-.35,0,0,0,0,0,0,2.95-1.89,6.37-2.68,9.71-2.4Z"/>
          <path class="cls-1" d="M39.11,17.45c-.03-.17-.07-.34-.1-.51-.05-.22-.1-.44-.16-.66-.04-.17-.09-.33-.14-.5-.04-.13-.08-.27-.12-.4-.09-.28-.19-.55-.3-.82-.03-.08-.07-.16-.1-.24-.1-.24-.21-.48-.32-.72-.9-1.89-2.21-3.62-3.91-5.05-.85-.72-1.77-1.33-2.74-1.84.11.07.21.15.31.23.06.04.11.08.16.12.17.13.33.25.49.39.03.02.06.05.09.07.54.45,1.04.93,1.51,1.44.02.02.04.04.06.06.13.15.26.3.39.45.05.06.1.12.15.19.11.14.23.28.33.42.07.09.13.18.19.26.09.13.19.26.28.39.13.2.26.4.39.6.05.08.1.16.15.25.11.19.22.38.32.57.04.07.08.15.12.23.1.19.19.38.28.58.03.07.06.14.09.21.1.22.19.44.28.67.02.04.04.09.05.13.21.56.39,1.14.54,1.73,0,.02,0,.04.01.06.06.26.12.53.17.79.01.07.02.14.04.2.04.22.07.44.1.67.01.08.02.17.03.25.03.22.04.44.06.66,0,.08.01.16.02.25.02.3.03.59.03.89s0,.6-.03.9c0,.1-.02.19-.02.29-.02.2-.03.4-.05.6-.01.11-.03.23-.05.34-.02.18-.05.36-.08.54-.02.12-.05.23-.07.35-.03.17-.07.34-.1.51-.03.12-.06.23-.09.35-.04.17-.08.33-.13.5-.03.12-.07.23-.11.34-.05.16-.1.33-.16.49-.04.11-.08.22-.13.33-.06.16-.12.32-.19.48-.05.11-.1.21-.14.32-.07.16-.14.32-.22.48-.05.1-.11.2-.16.3-.08.16-.16.32-.25.47-.05.1-.11.19-.17.29-.09.16-.18.31-.28.46-.06.09-.12.18-.18.27-.1.15-.21.31-.31.46-.06.09-.13.17-.19.25-.11.15-.23.3-.35.45-.06.08-.13.16-.2.24-.13.15-.25.29-.38.44-.07.07-.14.14-.21.22-.14.14-.27.29-.42.43-.07.07-.14.13-.21.2-.15.14-.3.28-.45.41-.07.06-.14.12-.21.18-.11.09-.21.18-.32.27.4.23.79.48,1.17.75.13-.1.26-.2.39-.3.09-.07.19-.15.28-.22.16-.13.3-.26.45-.4.08-.07.17-.14.25-.22.16-.15.31-.3.46-.45.07-.07.14-.13.2-.2.21-.23.42-.46.62-.7.22-.26.42-.52.62-.79.05-.07.09-.13.14-.2.18-.25.35-.51.52-.78.01-.02.02-.03.03-.05.18-.29.35-.59.51-.9.02-.04.04-.08.06-.12.15-.29.29-.58.41-.87,0-.02.02-.04.02-.05.14-.32.26-.64.37-.96.01-.03.02-.07.03-.1.1-.29.19-.58.27-.87.01-.05.03-.1.04-.15.08-.31.15-.62.22-.94.01-.07.03-.15.04-.22.04-.24.08-.48.11-.71.01-.11.03-.22.04-.33.03-.28.06-.56.07-.84,0-.14,0-.28.01-.41,0-.16,0-.33,0-.49,0-.16,0-.32,0-.48,0-.16-.02-.32-.03-.47-.02-.27-.04-.53-.07-.8-.02-.13-.03-.26-.05-.38-.03-.17-.05-.35-.08-.52Z"/>
        </g>
      </g>
    </g>
  </g>
</svg>